<svg xmlns="http://www.w3.org/2000/svg" viewBox="0 0 795 242"><defs><style>.cls-1{fill:#fff;}.cls-2{fill:#e6e6e6;}.cls-3{fill:gray;}.cls-4{fill:#999;}.cls-5{fill:#666;}</style></defs><title>stepby_1</title><g id="图层_2" data-name="图层 2"><g id="图层_1-2" data-name="图层 1"><rect class="cls-1" width="795" height="242"/><rect class="cls-2" x="239" y="85" width="164" height="12"/><rect class="cls-2" x="239" y="34" width="164" height="12"/><circle class="cls-2" cx="428" cy="40" r="14"/><circle class="cls-3" cx="214" cy="40" r="14"/><path class="cls-1" d="M216.88,45.74h-6.15V44.55h2.48v-9.1l-2.34,1.17V35.26L213.4,34h1.17V44.55h2.31Z"/><path class="cls-4" d="M431.58,45.74h-6.44v-1q2.44-2.73,3.18-3.66a9.39,9.39,0,0,0,1.18-2,4.86,4.86,0,0,0,.46-2,2.06,2.06,0,0,0-.59-1.55A2.36,2.36,0,0,0,427.7,35a7.08,7.08,0,0,0-2.21.5l-.19-1.17a6.75,6.75,0,0,1,2.63-.53,3.57,3.57,0,0,1,2.52.89,3,3,0,0,1,1,2.36,4.81,4.81,0,0,1-.49,2.09,9.69,9.69,0,0,1-1.27,2q-.76,1-3,3.42h4.93Z"/><rect class="cls-2" x="453" y="34" width="164" height="12"/><circle class="cls-2" cx="642" cy="40" r="14"/><path class="cls-4" d="M643.26,39.45A3.26,3.26,0,0,1,645,40.54a2.75,2.75,0,0,1,.65,1.78,3.28,3.28,0,0,1-1.21,2.59A4.16,4.16,0,0,1,641.58,46a5,5,0,0,1-2.49-.61l.26-1.12a5.35,5.35,0,0,0,2.28.54,2.66,2.66,0,0,0,1.82-.66,2.17,2.17,0,0,0,.75-1.7,2,2,0,0,0-.81-1.66,3.28,3.28,0,0,0-2.13-.64h-.36V39h.1a3.49,3.49,0,0,0,2.11-.6,1.88,1.88,0,0,0,.83-1.62,1.55,1.55,0,0,0-.6-1.3A2.52,2.52,0,0,0,641.7,35a5,5,0,0,0-2,.49l-.19-1.17a5.37,5.37,0,0,1,2.28-.52,4,4,0,0,1,2.58.83,2.61,2.61,0,0,1,1,2.12,2.86,2.86,0,0,1-2.11,2.65Z"/><path class="cls-5" d="M116.58,37.9a4,4,0,0,0,.81,0v.72a5.57,5.57,0,0,0-.82,0H115v.22a12.59,12.59,0,0,1,1.88,1l-.4.58a6.1,6.1,0,0,0-1.24-.88l-.24-.14v.74a2,2,0,0,0,0,.5h-.78a2,2,0,0,0,0-.49v-.67a5.05,5.05,0,0,1,.05-.7,6.64,6.64,0,0,1-2.26,2.36,2.22,2.22,0,0,0-.53-.57,7.13,7.13,0,0,0,1.78-1.37,4.87,4.87,0,0,0,.48-.62h-1.11a4.68,4.68,0,0,0-.94.06v-.75a4.83,4.83,0,0,0,1,.06h1.56V36.3a4.17,4.17,0,0,0-.06-.81h.8a4,4,0,0,0-.06.81v1.6Zm-.31,7.61a7.69,7.69,0,0,0-1.15-.75,8.27,8.27,0,0,1-3.07,1.51,2.57,2.57,0,0,0-.38-.66,7.61,7.61,0,0,0,2.78-1.19,19,19,0,0,0-2-.82,9.4,9.4,0,0,0,.86-1.3h-.73a4.62,4.62,0,0,0-.86.06v-.75a3.73,3.73,0,0,0,.86.06h1.06a6,6,0,0,0,.36-1l.73.17a7.9,7.9,0,0,1-.34.78h1.68l.88,0a7.1,7.1,0,0,1-1.35,2.61,9.28,9.28,0,0,1,1.07.61Zm-3.51-9.78a8.65,8.65,0,0,1,.9,1.58l-.65.27a6.11,6.11,0,0,0-.86-1.57Zm1.33,6.57c-.16.29-.26.46-.61,1,.69.26.91.36,1.51.63a5.21,5.21,0,0,0,1-1.62Zm3.09-6.3a8.75,8.75,0,0,1-1,1.71l-.6-.3a5.78,5.78,0,0,0,1-1.71Zm5.36,2.54a4.87,4.87,0,0,0-1-.06,9.43,9.43,0,0,1-1.35,4.77,7.49,7.49,0,0,0,2.66,2.27,3.45,3.45,0,0,0-.44.74,8.44,8.44,0,0,1-2.66-2.37,9.19,9.19,0,0,1-3,2.47,2.28,2.28,0,0,0-.49-.67,7.8,7.8,0,0,0,3.11-2.45,9.25,9.25,0,0,1-1.24-3.53,6.9,6.9,0,0,1-.87,1.39,2,2,0,0,0-.6-.46,8.22,8.22,0,0,0,1.47-2.59,9,9,0,0,0,.61-2.58l.82.18c-.06.17-.06.17-.22.75s-.19.75-.39,1.39h2.54a5.43,5.43,0,0,0,1.11-.07Zm-3.9-.06a.55.55,0,0,0,0,.13l-.06.13a10.62,10.62,0,0,0,.36,1.74,9,9,0,0,0,.85,2.08,7.34,7.34,0,0,0,.68-1.72,8.88,8.88,0,0,0,.36-2.36Z"/><path class="cls-5" d="M125.18,36.72a9.32,9.32,0,0,0-.07-1.22H126a6.58,6.58,0,0,0-.07,1.2v1.17h.47a3.79,3.79,0,0,0,.77-.06v.78a4.07,4.07,0,0,0-.76-.05h-.48v2.3a9.67,9.67,0,0,0,1.19-.57V41c-.47.24-.47.24-1.19.56v3.79c0,.66-.29.86-1.27.86l-.75,0a2.46,2.46,0,0,0-.16-.75,6.23,6.23,0,0,0,1,.08c.35,0,.45-.07.45-.35V41.9l-.71.3a4.7,4.7,0,0,0-.57.25l-.22-.82a5.68,5.68,0,0,0,1.5-.48V38.54h-.55a7.34,7.34,0,0,0-.95.06v-.81a5.39,5.39,0,0,0,1,.08h.54Zm6.22,3.55h2a6.66,6.66,0,0,0,1.11-.08V41a5.75,5.75,0,0,0-1.14-.08H131.4v1.49h1.44c.37,0,.59,0,.89,0a8.86,8.86,0,0,0,0,1.14v1.59a9.77,9.77,0,0,0,.07,1.16h-.81V45.7h-3.62v.57h-.8a8.55,8.55,0,0,0,.06-1.1V43.48a9.84,9.84,0,0,0,0-1.1c.29,0,.51,0,.84,0h1.31V40.92h-2.43a9.5,9.5,0,0,1-1.52,5.13,1.83,1.83,0,0,0-.61-.48c1.19-1.62,1.51-3.3,1.51-8a12,12,0,0,0-.06-1.64,10,10,0,0,0,1.26.06h3.91a9.35,9.35,0,0,0,1.14,0,7.56,7.56,0,0,0,0,.88V38a7.41,7.41,0,0,0,0,.89c-.29,0-.63,0-1,0H131.4Zm-3.06-1.4c0,.77,0,1.13,0,1.4h2.39v-1.4Zm0-1.43c0,.38,0,.43,0,.8h4.81V36.66h-4.8Zm.95,7.61h3.62V43h-3.62Z"/><path class="cls-5" d="M140.88,41.07a11.62,11.62,0,0,1-1.75,1.57v2.73L140.5,45l1.39-.41-.07.79-1.6.42c-.73.19-1.1.29-1.87.52l-.26-.67c.25-.15.31-.32.31-.92V43.14a13.93,13.93,0,0,1-2.33,1.21,2.7,2.7,0,0,0-.47-.68,12.06,12.06,0,0,0,2.67-1.25A8.17,8.17,0,0,0,140,41.07h-3a9.87,9.87,0,0,0-1.33.07v-.81a7.21,7.21,0,0,0,1.33.07h3.54V39.23h-2.48a9.85,9.85,0,0,0-1.22.05v-.77a8.3,8.3,0,0,0,1.22.05h2.48V37.44h-3.1a8.54,8.54,0,0,0-1.28.06v-.8a8.23,8.23,0,0,0,1.3.08h3.08V36.5a5.34,5.34,0,0,0-.07-1h.88a4.92,4.92,0,0,0-.08,1v.28h3.3a8.43,8.43,0,0,0,1.32-.08v.8a8.69,8.69,0,0,0-1.29-.06H141.3v1.12H144a9.05,9.05,0,0,0,1.27-.05v.77a10.64,10.64,0,0,0-1.27-.05H141.3V40.4h3.76a9.63,9.63,0,0,0,1.31-.07v.81a10,10,0,0,0-1.31-.07h-3.38A7.2,7.2,0,0,0,143,43.13a8.6,8.6,0,0,0,1.78-1.69l.69.47-.23.23a17.7,17.7,0,0,1-1.74,1.48,9.36,9.36,0,0,0,3.09,1.75,3.45,3.45,0,0,0-.52.72,10.11,10.11,0,0,1-3.57-2.45,9.23,9.23,0,0,1-1.62-2.57Z"/><path class="cls-5" d="M149,36.19a5.69,5.69,0,0,0,1,.06h.76a6.5,6.5,0,0,0,1-.06c-.07.73-.11,1.34-.11,2V44a7.75,7.75,0,0,0,.1,1.35h-1.14a7.67,7.67,0,0,0,.1-1.35V37.06H150a7,7,0,0,0-1.05.08Z"/><path class="cls-5" d="M160.68,38V36.74a8.66,8.66,0,0,0-.08-1.27h1a8.06,8.06,0,0,0-.08,1.27V38h2.95a11,11,0,0,0,1.37-.07v.85a11.43,11.43,0,0,0-1.36-.07h-3V41.3h2.42a9.55,9.55,0,0,0,1.28-.07v.83a10.38,10.38,0,0,0-1.28-.07h-2.42v3.14h3.34a9.3,9.3,0,0,0,1.42-.08v.88a9.68,9.68,0,0,0-1.4-.09h-7.72a9.63,9.63,0,0,0-1.41.09v-.88a9.27,9.27,0,0,0,1.4.08h3.56V42h-2.19a10.2,10.2,0,0,0-1.27.07v-.83a9.49,9.49,0,0,0,1.27.07h2.19V38.72h-2.83a11.24,11.24,0,0,1-1.64,2.56,2.39,2.39,0,0,0-.68-.5,9.72,9.72,0,0,0,2.14-3.68,3.6,3.6,0,0,0,.27-1.13l.9.24a3.65,3.65,0,0,0-.24.64c-.06.19-.06.19-.43,1.16Z"/><path class="cls-5" d="M174.32,38.08a19.6,19.6,0,0,0,.21,2.13,10.06,10.06,0,0,0,.58,2.19,9.31,9.31,0,0,0,1.47-3.3l.82.33s-.18.4-.47,1a10.23,10.23,0,0,1-1.49,2.68,4.52,4.52,0,0,0,1,1.44c.33.28.56.43.7.43s.4-.61.54-1.73a3.16,3.16,0,0,0,.65.53,5.55,5.55,0,0,1-.43,1.46c-.2.38-.44.58-.75.58a2.21,2.21,0,0,1-1.26-.75,5.9,5.9,0,0,1-1-1.34,10.22,10.22,0,0,1-3.33,2.39,2.15,2.15,0,0,0-.58-.62,8.52,8.52,0,0,0,3.56-2.48,14.88,14.88,0,0,1-1-5h-4.22c0,1,0,1.05,0,2h2.29a5.32,5.32,0,0,0,.9,0c0,.25,0,.25-.08,1.34a8.77,8.77,0,0,1-.36,2.58c-.18.37-.44.48-1.13.48a6.51,6.51,0,0,1-1.24-.11,2.91,2.91,0,0,0-.15-.78,5.85,5.85,0,0,0,1.38.2c.42,0,.52-.09.6-.54a15.42,15.42,0,0,0,.17-2.45h-2.4a16.26,16.26,0,0,1-.38,3.31,5.64,5.64,0,0,1-.92,2.1,2.11,2.11,0,0,0-.63-.54,5,5,0,0,0,.84-1.8,23.75,23.75,0,0,0,.39-5.13,7.49,7.49,0,0,0-.07-1.31,12.3,12.3,0,0,0,1.47.06h3.53c0-.11,0-.29,0-.52a8.84,8.84,0,0,0-.1-1.42h.93a4.78,4.78,0,0,0-.06,1c0,.18,0,.73,0,1h2.62a6.54,6.54,0,0,0,1.28-.07v.81a9.55,9.55,0,0,0-1.34-.06Zm2.42-.87A7.22,7.22,0,0,0,175,35.94l.52-.42a9.37,9.37,0,0,1,1.71,1.18Z"/><circle class="cls-2" cx="428" cy="91" r="14"/><circle class="cls-3" cx="214" cy="91" r="14"/><path class="cls-1" d="M216.88,96.74h-6.15V95.55h2.48v-9.1l-2.34,1.17V86.26L213.4,85h1.17V95.55h2.31Z"/><path class="cls-4" d="M431.58,96.74h-6.44v-1q2.44-2.73,3.18-3.66a9.39,9.39,0,0,0,1.18-2,4.86,4.86,0,0,0,.46-2,2.06,2.06,0,0,0-.59-1.55A2.36,2.36,0,0,0,427.7,86a7.08,7.08,0,0,0-2.21.5l-.19-1.17a6.75,6.75,0,0,1,2.63-.53,3.57,3.57,0,0,1,2.52.89,3,3,0,0,1,1,2.36,4.81,4.81,0,0,1-.49,2.09,9.69,9.69,0,0,1-1.27,2q-.76,1-3,3.42h4.93Z"/><rect class="cls-2" x="453" y="85" width="164" height="12"/><circle class="cls-2" cx="642" cy="91" r="14"/><path class="cls-4" d="M643.26,90.45A3.26,3.26,0,0,1,645,91.54a2.75,2.75,0,0,1,.65,1.78,3.28,3.28,0,0,1-1.21,2.59,4.16,4.16,0,0,1-2.84,1,5,5,0,0,1-2.49-.61l.26-1.12a5.35,5.35,0,0,0,2.28.54,2.66,2.66,0,0,0,1.82-.66,2.17,2.17,0,0,0,.75-1.7,2,2,0,0,0-.81-1.66,3.28,3.28,0,0,0-2.13-.64h-.36V90h.1a3.49,3.49,0,0,0,2.11-.6,1.88,1.88,0,0,0,.83-1.62,1.55,1.55,0,0,0-.6-1.3A2.52,2.52,0,0,0,641.7,86a5,5,0,0,0-2,.49l-.19-1.17a5.37,5.37,0,0,1,2.28-.52,4,4,0,0,1,2.58.83,2.61,2.61,0,0,1,1,2.12,2.86,2.86,0,0,1-2.11,2.65Z"/><path class="cls-5" d="M102.92,87.44a5.35,5.35,0,0,0,1-.06v.72a6.16,6.16,0,0,0-1,0h-.83a5.87,5.87,0,0,1,.46.94l-.66.27a6.85,6.85,0,0,0-.54-1.21h-1a7.12,7.12,0,0,1-1.2,1.43,2.18,2.18,0,0,0-.61-.46A5.61,5.61,0,0,0,100,87.36a4.25,4.25,0,0,0,.44-1l.8.22c-.27.48-.35.65-.47.84Zm-.76,2a6.94,6.94,0,0,0-.06,1.13v1.19c0,2.73-.58,4.09-2.37,5.54a2.59,2.59,0,0,0-.6-.59,5.09,5.09,0,0,0,1.58-1.61,6.22,6.22,0,0,0,.63-3.12V90.57a6.76,6.76,0,0,0-.07-1.13Zm-3,4.54a8.24,8.24,0,0,0,.06-1.2V91a7.25,7.25,0,0,0-.06-1.12H100A8,8,0,0,0,99.91,91v1.73A9.63,9.63,0,0,0,100,94Zm7.2-2.52h1.57a6.11,6.11,0,0,0,.93,0,7.27,7.27,0,0,0,0,.87v3.1c0,.61-.2.81-.82.81-.19,0-.38,0-.7,0a2.5,2.5,0,0,0-.16-.75,2.77,2.77,0,0,0,.73.12c.17,0,.23-.07.23-.26V92.08h-1.74v4.11a6.08,6.08,0,0,0,.06,1.08h-.85a6.42,6.42,0,0,0,.06-1.08V92.08h-1.68v3.08a7.81,7.81,0,0,0,0,1.12h-.83a6.25,6.25,0,0,0,.06-1.13V92.31a8.52,8.52,0,0,0,0-.9,7.05,7.05,0,0,0,1,0h1.44V90.19h-1.86a10.33,10.33,0,0,0-1,0v-.75a5.9,5.9,0,0,0,1.06.06h4.66a5.84,5.84,0,0,0,1-.06v.75a10.12,10.12,0,0,0-1,0h-2.09Zm1.9-4a5.84,5.84,0,0,0,1-.06v.74a7.24,7.24,0,0,0-1-.06h-1.46a6.66,6.66,0,0,1,.56,1l-.66.31a8.35,8.35,0,0,0-.63-1.27H105a7.49,7.49,0,0,1-.88,1.18,2.39,2.39,0,0,0-.6-.42A4.74,4.74,0,0,0,105,86.37l.75.19a7.81,7.81,0,0,1-.39.88Z"/><path class="cls-5" d="M112.6,91.71h-1a4.33,4.33,0,0,0-.87.06V91a4.34,4.34,0,0,0,.92.06h.83a4.71,4.71,0,0,0,.9-.06,10.2,10.2,0,0,0,0,1.21v2.93l.18.15a2.42,2.42,0,0,0,1.33.76,18.25,18.25,0,0,0,2.76.15,34.2,34.2,0,0,0,4.1-.19,2.7,2.7,0,0,0-.27.87c-1.2,0-2.46.07-4.18.07a10.08,10.08,0,0,1-2.9-.3,2.56,2.56,0,0,1-.74-.39c-.06,0-.06,0-.43-.39a.71.71,0,0,0-.39-.18c-.26,0-.57.2-1.07.71s-.49.5-.67.7l-.6-.55A5.61,5.61,0,0,1,112.6,95Zm-1-5a16.64,16.64,0,0,1,1.9,2.09l-.62.55a11.43,11.43,0,0,0-1.84-2.15Zm8,1.29a7.31,7.31,0,0,0,1.15-.06v.8a10,10,0,0,0-1.15-.05h-1.57v1.63h2.25a7,7,0,0,0,1-.06v.81a6.66,6.66,0,0,0-1-.06h-1.51v3c0,.28.23.37.88.37s.62,0,.74-.14l0,0a4.3,4.3,0,0,0,.19-1.57,2,2,0,0,0,.73.27c0,.28-.05.43-.06.63-.06.81-.14,1.11-.38,1.3a2.1,2.1,0,0,1-1.3.27c-1.17,0-1.53-.15-1.53-.68V91H117a4.41,4.41,0,0,1-.82,2.43,5.32,5.32,0,0,1-2,1.67l-.08-.1a2,2,0,0,0-.38-.48,4.59,4.59,0,0,0,1.82-1.37,3.83,3.83,0,0,0,.81-2.15h-1.24a9.36,9.36,0,0,0-1.1.06v-.81a8.43,8.43,0,0,0,1.08.06h2.28V88.71H115.5a5.91,5.91,0,0,1-.72,1,1.5,1.5,0,0,0-.59-.46,4.52,4.52,0,0,0,.87-1.26,4.64,4.64,0,0,0,.39-1.2l.78.17a2.89,2.89,0,0,0-.15.41,5.13,5.13,0,0,1-.28.65h1.54v-.57a5.18,5.18,0,0,0-.08-1h.87a4.86,4.86,0,0,0-.07,1V88Z"/><path class="cls-5" d="M124.92,88.08c-.65.15-.93.21-1.8.38a1.58,1.58,0,0,0-.33-.68,15.34,15.34,0,0,0,3.65-.9,2.8,2.8,0,0,0,.72-.36l.52.63-.28.11a18.47,18.47,0,0,1-1.75.61v1.84h.91a6.78,6.78,0,0,0,1-.06v.79a6.11,6.11,0,0,0-1-.06h-.91v.38a13.43,13.43,0,0,1,2,2.23l-.6.54a12.75,12.75,0,0,0-1.38-2v4.33a8.65,8.65,0,0,0,.08,1.47h-.89a10.14,10.14,0,0,0,.07-1.47V93.33c0-.45,0-1.35.06-2a9.2,9.2,0,0,1-1,2.22A8.06,8.06,0,0,1,122.92,95a3.39,3.39,0,0,0-.5-.64,9.44,9.44,0,0,0,2.36-4h-.89a7.65,7.65,0,0,0-1.14.07v-.82a7.06,7.06,0,0,0,1.14.08h1Zm4,8.82h-.81c0-.35.06-.74.06-1.39V88.84c0-.55,0-.91-.06-1.27a7.18,7.18,0,0,0,1.12.06h2.59a7.08,7.08,0,0,0,1.14-.06,10.42,10.42,0,0,0-.06,1.27v6.59A11,11,0,0,0,133,96.9h-.84v-.85h-3.22Zm0-1.56h3.22v-7h-3.22Z"/><path class="cls-5" d="M138.24,88.89a4.65,4.65,0,0,0,.82,0v.77a5.08,5.08,0,0,0-.82,0h-.84V92a15.45,15.45,0,0,0,1.63-.63v.78l-.59.22a9.83,9.83,0,0,1-1,.4v3.61c0,.67-.27.84-1.35.84h-.68a2,2,0,0,0-.18-.76,7.39,7.39,0,0,0,1,.07c.35,0,.44-.07.44-.33V93l-1.07.34a5.08,5.08,0,0,0-.81.27l-.27-.82a12.43,12.43,0,0,0,2.15-.54V89.56h-1.14a6,6,0,0,0-.89,0v-.79a4.38,4.38,0,0,0,.9.07h1.13V87.76a7.2,7.2,0,0,0-.09-1.21h.91a9.9,9.9,0,0,0-.07,1.19v1.15Zm2.57,3.19a11.9,11.9,0,0,0-1.25.06v-.81c.31,0,.72.06,1.25.06h3.38V88.16h-3.72a9.89,9.89,0,0,0-1.29.06v-.84a11.51,11.51,0,0,0,1.29.06h3.62a8.28,8.28,0,0,0,.9,0c0,.22,0,.46,0,.74v7.91a6.83,6.83,0,0,0,.06,1.1h-.83v-.76h-3.95a11.18,11.18,0,0,0-1.24.06V95.6c.32,0,.75.05,1.23.05h4V92.08Z"/><path class="cls-5" d="M148.2,87.8a7.75,7.75,0,0,0-.07-1.22H149a7.44,7.44,0,0,0-.07,1.21v1.14h.4a4.48,4.48,0,0,0,.72-.05v.75a6.7,6.7,0,0,0-.72,0H149v2.32c.32-.15.49-.23,1-.5l0,.71-1,.5v3.76c0,.67-.22.82-1.14.82l-.95,0a2.05,2.05,0,0,0-.16-.73c.4,0,.84.08,1.19.08s.31,0,.31-.24V93l-.9.36a4.51,4.51,0,0,0-.55.25l-.18-.81a8,8,0,0,0,1.63-.52V89.6h-.66a4.08,4.08,0,0,0-.84.07v-.82a3.42,3.42,0,0,0,.84.08h.66Zm7.21,1.89a3.62,3.62,0,0,0,.05.72h-.82a3.94,3.94,0,0,0,.05-.72V89h-2.07v.73a4.92,4.92,0,0,0,0,.72h-.81a4.79,4.79,0,0,0,.05-.7V89h-.64a5.85,5.85,0,0,0-1,.06v-.8a5.52,5.52,0,0,0,1.05.06h.63V87.4a5.13,5.13,0,0,0-.06-.81h.84a3.61,3.61,0,0,0-.06.81v.88h2.07v-.86a5.06,5.06,0,0,0-.05-.83h.83a4.11,4.11,0,0,0-.06.81v.88h.8a8.87,8.87,0,0,0,1.18-.07V89a9.24,9.24,0,0,0-1.16-.07h-.82Zm-4.95,2.23c0-.59,0-.77,0-1.09a7.21,7.21,0,0,0,1.06,0h4.28a8.6,8.6,0,0,0,1.13,0,7.15,7.15,0,0,0,0,1v4.18a9.81,9.81,0,0,0,.07,1.25h-.79v-.67h-4.93v.68h-.79c0-.36.06-.77.06-1.27Zm.73-.37v1.79h2.09V91.55Zm0,2.45v2h2.09V94ZM154,91.55v1.79h2.13V91.55ZM154,94v2h2.13V94Z"/><path class="cls-5" d="M163.58,88.9a4,4,0,0,0,.81-.05v.72a5.57,5.57,0,0,0-.82,0H162v.22a12.59,12.59,0,0,1,1.88,1l-.4.58a6.1,6.1,0,0,0-1.24-.88l-.24-.14v.74a2,2,0,0,0,.05.5h-.78a2,2,0,0,0,0-.49v-.67a5.05,5.05,0,0,1,.05-.7,6.64,6.64,0,0,1-2.26,2.36,2.22,2.22,0,0,0-.53-.57,7.13,7.13,0,0,0,1.78-1.37,4.87,4.87,0,0,0,.48-.62h-1.11a4.68,4.68,0,0,0-.94.06v-.75a4.83,4.83,0,0,0,1,.06h1.56V87.3a4.17,4.17,0,0,0-.06-.81h.8a4,4,0,0,0-.06.81v1.6Zm-.31,7.61a7.69,7.69,0,0,0-1.15-.75,8.27,8.27,0,0,1-3.07,1.51,2.57,2.57,0,0,0-.38-.66,7.61,7.61,0,0,0,2.78-1.19,19,19,0,0,0-2-.82,9.4,9.4,0,0,0,.86-1.3h-.73a4.62,4.62,0,0,0-.86.06v-.75a3.73,3.73,0,0,0,.86.06h1.06a6,6,0,0,0,.36-1l.73.17a7.9,7.9,0,0,1-.34.78h1.68l.88,0a7.1,7.1,0,0,1-1.35,2.61,9.28,9.28,0,0,1,1.07.61Zm-3.51-9.78a8.65,8.65,0,0,1,.9,1.58l-.65.27a6.11,6.11,0,0,0-.86-1.57Zm1.33,6.57c-.16.29-.26.46-.61,1,.69.26.91.36,1.51.63a5.21,5.21,0,0,0,1-1.62Zm3.09-6.3a8.75,8.75,0,0,1-1,1.71l-.6-.3a5.78,5.78,0,0,0,1-1.71Zm5.36,2.54a4.87,4.87,0,0,0-1-.06,9.43,9.43,0,0,1-1.35,4.77,7.49,7.49,0,0,0,2.66,2.27,3.45,3.45,0,0,0-.44.74,8.44,8.44,0,0,1-2.66-2.37,9.19,9.19,0,0,1-3.05,2.47,2.28,2.28,0,0,0-.49-.67,7.8,7.8,0,0,0,3.11-2.45,9.25,9.25,0,0,1-1.24-3.53,6.9,6.9,0,0,1-.87,1.39,2,2,0,0,0-.6-.46,8.22,8.22,0,0,0,1.47-2.59,9,9,0,0,0,.61-2.58l.82.18c-.06.17-.06.17-.22.75s-.19.75-.39,1.39h2.54a5.43,5.43,0,0,0,1.11-.07Zm-3.9-.06a.55.55,0,0,0,0,.13l-.06.13a10.62,10.62,0,0,0,.36,1.74,9,9,0,0,0,.85,2.08,7.34,7.34,0,0,0,.68-1.72,8.88,8.88,0,0,0,.36-2.36Z"/><path class="cls-5" d="M172.18,87.72a9.32,9.32,0,0,0-.07-1.22H173a6.58,6.58,0,0,0-.07,1.2v1.17h.47a3.79,3.79,0,0,0,.77-.06v.78a4.07,4.07,0,0,0-.76,0h-.48v2.3a9.67,9.67,0,0,0,1.19-.57V92c-.47.24-.47.24-1.19.56v3.79c0,.66-.29.86-1.27.86l-.75,0a2.46,2.46,0,0,0-.16-.75,6.23,6.23,0,0,0,1,.08c.35,0,.45-.07.45-.35V92.9l-.71.3a4.7,4.7,0,0,0-.57.25l-.22-.82a5.68,5.68,0,0,0,1.5-.48V89.54h-.55a7.34,7.34,0,0,0-.95.06v-.81a5.39,5.39,0,0,0,1,.08h.54Zm6.22,3.55h2a6.66,6.66,0,0,0,1.11-.08V92a5.75,5.75,0,0,0-1.14-.08H178.4v1.49h1.44c.37,0,.59,0,.89,0a8.86,8.86,0,0,0,0,1.14v1.59a9.77,9.77,0,0,0,.07,1.16h-.81V96.7h-3.62v.57h-.8a8.55,8.55,0,0,0,.06-1.1V94.48a9.84,9.84,0,0,0,0-1.1c.29,0,.51,0,.84,0h1.31V91.92h-2.43a9.5,9.5,0,0,1-1.52,5.13,1.83,1.83,0,0,0-.61-.48c1.19-1.62,1.51-3.3,1.51-8a12,12,0,0,0-.06-1.64,10,10,0,0,0,1.26.06h3.91A9.35,9.35,0,0,0,180.9,87a7.56,7.56,0,0,0,0,.88V89a7.41,7.41,0,0,0,0,.89c-.29,0-.63,0-1,0H178.4Zm-3.06-1.4c0,.77,0,1.13,0,1.4h2.39v-1.4Zm0-1.43c0,.38,0,.43,0,.8h4.81V87.66h-4.8Zm.95,7.61h3.62V94h-3.62Z"/><rect class="cls-3" x="239" y="85" width="82" height="12"/><rect class="cls-3" x="239" y="136" width="164" height="12"/><circle class="cls-2" cx="428" cy="142" r="14"/><circle class="cls-3" cx="214" cy="142" r="14"/><path class="cls-1" d="M216.88,147.74h-6.15v-1.19h2.48v-9.09l-2.34,1.16v-1.36l2.53-1.3h1.17v10.59h2.31Z"/><path class="cls-4" d="M431.58,147.74h-6.44v-1q2.44-2.73,3.18-3.66a9.39,9.39,0,0,0,1.18-2,4.86,4.86,0,0,0,.46-2,2.06,2.06,0,0,0-.59-1.55,2.36,2.36,0,0,0-1.67-.56,7.08,7.08,0,0,0-2.21.5l-.19-1.17a6.75,6.75,0,0,1,2.63-.53,3.57,3.57,0,0,1,2.52.89,3,3,0,0,1,1,2.36,4.81,4.81,0,0,1-.49,2.09,9.69,9.69,0,0,1-1.27,2q-.76,1-3,3.42h4.93Z"/><rect class="cls-2" x="453" y="136" width="164" height="12"/><circle class="cls-2" cx="642" cy="142" r="14"/><path class="cls-4" d="M643.26,141.45a3.26,3.26,0,0,1,1.72,1.09,2.75,2.75,0,0,1,.65,1.78,3.28,3.28,0,0,1-1.21,2.59,4.16,4.16,0,0,1-2.84,1.05,5,5,0,0,1-2.49-.61l.26-1.12a5.35,5.35,0,0,0,2.28.54,2.66,2.66,0,0,0,1.82-.66,2.17,2.17,0,0,0,.75-1.7,2,2,0,0,0-.81-1.66,3.28,3.28,0,0,0-2.13-.64h-.36V141h.1a3.49,3.49,0,0,0,2.11-.6,1.88,1.88,0,0,0,.83-1.62,1.55,1.55,0,0,0-.6-1.3,2.52,2.52,0,0,0-1.64-.47,5,5,0,0,0-2,.49l-.19-1.17a5.37,5.37,0,0,1,2.28-.52,4,4,0,0,1,2.58.83,2.61,2.61,0,0,1,1,2.12,2.86,2.86,0,0,1-2.11,2.65Z"/><path class="cls-5" d="M103.58,139.9a4,4,0,0,0,.81-.05v.72a5.57,5.57,0,0,0-.82,0H102v.22a12.59,12.59,0,0,1,1.88,1l-.4.58a6.1,6.1,0,0,0-1.24-.88l-.24-.14v.74a2,2,0,0,0,0,.5h-.78a2,2,0,0,0,0-.49v-.67a5.05,5.05,0,0,1,.05-.7,6.64,6.64,0,0,1-2.26,2.36,2.22,2.22,0,0,0-.53-.57,7.13,7.13,0,0,0,1.78-1.37,4.87,4.87,0,0,0,.48-.62H99.73a4.68,4.68,0,0,0-.94.06v-.75a4.83,4.83,0,0,0,1,.06h1.56v-1.61a4.12,4.12,0,0,0-.06-.8h.8a4,4,0,0,0-.06.8v1.61Zm-.31,7.61a7.69,7.69,0,0,0-1.15-.75,8.27,8.27,0,0,1-3.07,1.51,2.57,2.57,0,0,0-.38-.66,7.61,7.61,0,0,0,2.78-1.19,19,19,0,0,0-2-.82,9.4,9.4,0,0,0,.86-1.3H99.6a4.62,4.62,0,0,0-.86.06v-.75a3.73,3.73,0,0,0,.86.06h1.06a6,6,0,0,0,.36-.95l.73.17a7.9,7.9,0,0,1-.34.78h1.68l.88,0a7.1,7.1,0,0,1-1.35,2.61,9.28,9.28,0,0,1,1.07.61Zm-3.51-9.78a8.65,8.65,0,0,1,.9,1.58l-.65.27a6.11,6.11,0,0,0-.86-1.57Zm1.33,6.57c-.16.29-.26.46-.61,1,.69.26.91.36,1.51.63a5.21,5.21,0,0,0,1-1.62Zm3.09-6.3a8.75,8.75,0,0,1-1,1.71l-.6-.3a5.78,5.78,0,0,0,1-1.71Zm5.36,2.54a4.87,4.87,0,0,0-1-.06,9.43,9.43,0,0,1-1.35,4.77,7.49,7.49,0,0,0,2.66,2.27,3.45,3.45,0,0,0-.44.74,8.44,8.44,0,0,1-2.66-2.37,9.32,9.32,0,0,1-3,2.47,2.28,2.28,0,0,0-.49-.67,7.8,7.8,0,0,0,3.11-2.45,9.25,9.25,0,0,1-1.24-3.53,7.26,7.26,0,0,1-.87,1.4,1.89,1.89,0,0,0-.6-.47,8.22,8.22,0,0,0,1.47-2.59,9,9,0,0,0,.61-2.58l.82.18c-.06.17-.06.17-.22.75s-.19.75-.39,1.39h2.54a5.43,5.43,0,0,0,1.11-.07Zm-3.9-.06a.55.55,0,0,0,0,.13l-.06.13a10.62,10.62,0,0,0,.36,1.74,9,9,0,0,0,.85,2.08,7.34,7.34,0,0,0,.68-1.72,8.88,8.88,0,0,0,.36-2.36Z"/><path class="cls-5" d="M112.18,138.71a9.26,9.26,0,0,0-.07-1.21H113a6.58,6.58,0,0,0-.07,1.2v1.17h.47a3.79,3.79,0,0,0,.77-.06v.78a4.07,4.07,0,0,0-.76-.05h-.48v2.3a9.67,9.67,0,0,0,1.19-.57V143c-.47.24-.47.24-1.19.56v3.8c0,.65-.29.85-1.27.85l-.75,0a2.46,2.46,0,0,0-.16-.75,6.23,6.23,0,0,0,1,.08c.35,0,.45-.07.45-.35V143.9l-.71.3a4.7,4.7,0,0,0-.57.25l-.22-.82a5.68,5.68,0,0,0,1.5-.48v-2.61h-.55a7.34,7.34,0,0,0-.95.06v-.81a5.39,5.39,0,0,0,1,.08h.54Zm6.22,3.56h2a6.66,6.66,0,0,0,1.11-.08V143a5.75,5.75,0,0,0-1.14-.08H118.4v1.49h1.44c.37,0,.59,0,.89,0a8.86,8.86,0,0,0,0,1.14v1.59a9.77,9.77,0,0,0,.07,1.16h-.81v-.57h-3.62v.57h-.8a8.55,8.55,0,0,0,.06-1.1v-1.69a9.84,9.84,0,0,0,0-1.1c.29,0,.51,0,.84,0h1.31v-1.49h-2.43a9.5,9.5,0,0,1-1.52,5.13,1.83,1.83,0,0,0-.61-.48c1.19-1.62,1.51-3.3,1.51-8a12,12,0,0,0-.06-1.64,10,10,0,0,0,1.26.06h3.91a9.35,9.35,0,0,0,1.14,0,7.56,7.56,0,0,0,0,.88V140a7.41,7.41,0,0,0,0,.89c-.29,0-.63,0-1,0H118.4Zm-3.06-1.4c0,.77,0,1.13,0,1.4h2.39v-1.4Zm0-1.43c0,.38,0,.43,0,.8h4.81v-1.58h-4.8Zm.95,7.61h3.62v-2h-3.62Z"/><path class="cls-5" d="M128.5,139.82h2.41a9.49,9.49,0,0,0,1.41-.06c0,.41,0,.73,0,1.32v2c0,.56,0,.87,0,1.27a10,10,0,0,0-1.38-.06h-2.72a4.42,4.42,0,0,1-.82,1.82,10.46,10.46,0,0,0,5.46,1.27h.68a3.37,3.37,0,0,0-.32.85,11.42,11.42,0,0,1-6.3-1.57,7.22,7.22,0,0,1-3.87,1.8,2.25,2.25,0,0,0-.36-.73,7.73,7.73,0,0,0,2-.5,5.53,5.53,0,0,0,1.68-1,8.86,8.86,0,0,1-1.06-1L125,145l.69-.41a4.53,4.53,0,0,0,1.11,1.14,3.69,3.69,0,0,0,.63-1.43h-2.19a9.93,9.93,0,0,0-1.38.06c0-.42.05-.78.05-1.28v-2c0-.58,0-.94-.05-1.32a9.42,9.42,0,0,0,1.39.06h2.47v-1.18H124a12.1,12.1,0,0,0-1.26.07v-.82A8.87,8.87,0,0,0,124,138h8.1a9.35,9.35,0,0,0,1.26-.07v.82a12,12,0,0,0-1.26-.07H128.5Zm-.8,1.89c0-.28,0-.52,0-.7v-.55h-3.07v1.25Zm-.13,2c.05-.41.06-.6.11-1.37h-3v1.37Zm4,0v-1.37h-3.09c0,.54-.05.81-.11,1.37Zm0-2v-1.25h-3.05l0,1.25Z"/><path class="cls-5" d="M135.82,146.52a29.31,29.31,0,0,0,3.18-1.08l-.06.8c-.64.25-.95.36-1.57.56-.9.29-.9.29-2.27.77l-.34-.71a.58.58,0,0,0,.33-.62l0-3.32a11,11,0,0,0,0-1.33,10.28,10.28,0,0,0,1.22,0h1.92v-2.7h-2A9.77,9.77,0,0,0,135,139v-.82a8.92,8.92,0,0,0,1.19.07h1.56a9,9,0,0,0,1.23-.06,10.62,10.62,0,0,0-.05,1.21v1.68a11.07,11.07,0,0,0,.05,1.29c-.39,0-.71,0-1.33,0h-1.79Zm8.43-6.28a9.3,9.3,0,0,1-1.66,5,7.54,7.54,0,0,0,1.34,1.3,6.86,6.86,0,0,0,1.74,1.05,2.89,2.89,0,0,0-.51.76,10.24,10.24,0,0,1-3-2.49,9.5,9.5,0,0,1-1.34,1.24,10.47,10.47,0,0,1-2.18,1.3,1.79,1.79,0,0,0-.48-.73,8.35,8.35,0,0,0,3.55-2.41,8.18,8.18,0,0,1-1.38-3.43,9.65,9.65,0,0,1-1,1.51,2.08,2.08,0,0,0-.62-.47,9.89,9.89,0,0,0,2.07-4.33,8.79,8.79,0,0,0,.2-1.18l.84.17c0,.13-.09.28-.21.73s-.23.89-.36,1.33h3.16a6.23,6.23,0,0,0,1.13-.07v.82a6.4,6.4,0,0,0-1.11-.06Zm-3.24,0c-.07.2-.07.2-.25.62a7.8,7.8,0,0,0,.48,1.94,8.28,8.28,0,0,0,.9,1.78,7.65,7.65,0,0,0,1-2.3,9.39,9.39,0,0,0,.32-2Z"/><path class="cls-5" d="M154,145a9.32,9.32,0,0,0-1.26-.08h-4.79a9.63,9.63,0,0,0-1.28.08v-.86a9,9,0,0,0,1.28.08h4.79a9.21,9.21,0,0,0,1.26-.08Zm1.16-5.85a8.47,8.47,0,0,0,1.15,0v.83a8.25,8.25,0,0,0-1.12-.06h-5.71c-.07.88-.09,1-.18,1.82h5.68a11.69,11.69,0,0,0,1.29-.06c0,.36-.08.62-.18,2.31a19.56,19.56,0,0,1-.4,2.58c-.32,1.25-.68,1.55-1.81,1.55a20.89,20.89,0,0,1-2.14-.14,3.78,3.78,0,0,0-.26-.85,15.15,15.15,0,0,0,2.34.23c.72,0,.91-.19,1.13-1.1a18.88,18.88,0,0,0,.43-3.83h-5.93c-.12,0-.74,0-1.1,0a23.76,23.76,0,0,0,.41-3c.05-.63.08-1.32.08-1.67,0-.1,0-.17,0-.33h.88c0,.29,0,.29-.18,1.75Z"/><path class="cls-5" d="M166.15,145.84a10.07,10.07,0,0,0-1.33-.07h-4.56a8.7,8.7,0,0,0-1.32.07V145a8.44,8.44,0,0,0,1.32.07h4.56a7.34,7.34,0,0,0,1.33-.07ZM159,140.47a7.59,7.59,0,0,0,.07-1V139a6.07,6.07,0,0,0,0-.95,9.87,9.87,0,0,0,1.13,0h7.72a10.19,10.19,0,0,0,1.14,0,7.51,7.51,0,0,0,0,.95v.5a5.66,5.66,0,0,0,.08,1h-.82v-1.72h-8.4v1.72Zm3,.63c-.06.27-.1.46-.12.59-.12.58-.15.67-.28,1.16h5.43a7.75,7.75,0,0,0,1.21-.06c0,.13-.16,1.21-.4,3.26a3.48,3.48,0,0,1-.51,1.77,1.69,1.69,0,0,1-1.32.39,16.93,16.93,0,0,1-2-.14c0-.07,0-.13,0-.16a1.36,1.36,0,0,0-.1-.42.42.42,0,0,0,0-.1.77.77,0,0,0-.06-.15,13.45,13.45,0,0,0,2.25.24c.57,0,.75-.14.9-.68a23.08,23.08,0,0,0,.42-3.3h-5.65a5.9,5.9,0,0,1-.65,0l-.42,0a21.94,21.94,0,0,0,.84-3.78,5,5,0,0,0,.07-.68l.84.07a1.74,1.74,0,0,1,0,.22c0,.06,0,.15-.06.3s-.09.45-.13.66a.22.22,0,0,0,0,.08h4.06a6.91,6.91,0,0,0,1.3-.07v.79a8.85,8.85,0,0,0-1.3-.06Z"/><path class="cls-5" d="M174.39,137.65a9.29,9.29,0,0,1,1.57,1.21,5.4,5.4,0,0,1,1.3,2.33,19.24,19.24,0,0,0,1.07,2.61,9.4,9.4,0,0,0,1.58,2.29,9.87,9.87,0,0,0,1.68,1.3,2.25,2.25,0,0,0-.67.7,9.64,9.64,0,0,1-2.43-2.43,14.52,14.52,0,0,1-1.05-1.88c-.21-.47-.26-.6-.8-2.09-.14-.38-.24-.61-.37-.94l-.19.64a13.87,13.87,0,0,1-1.91,4,10.73,10.73,0,0,1-2.87,2.76,2.06,2.06,0,0,0-.6-.69,8,8,0,0,0,2.65-2.29,12.81,12.81,0,0,0,1.86-3.62l.52-1.73a5.24,5.24,0,0,0-1.87-1.53Z"/><rect class="cls-3" x="239" y="136" width="82" height="12"/><rect class="cls-3" x="239" y="187" width="164" height="12"/><circle class="cls-3" cx="428" cy="193" r="14"/><circle class="cls-3" cx="214" cy="193" r="14"/><path class="cls-1" d="M216.88,198.74h-6.15v-1.19h2.48v-9.09l-2.34,1.16v-1.36l2.53-1.3h1.17v10.59h2.31Z"/><path class="cls-1" d="M431.58,198.74h-6.44v-1q2.44-2.73,3.18-3.66a9.39,9.39,0,0,0,1.18-2,4.86,4.86,0,0,0,.46-2,2.06,2.06,0,0,0-.59-1.55,2.36,2.36,0,0,0-1.67-.56,7.08,7.08,0,0,0-2.21.5l-.19-1.17a6.75,6.75,0,0,1,2.63-.53,3.57,3.57,0,0,1,2.52.89,3,3,0,0,1,1,2.36,4.81,4.81,0,0,1-.49,2.09,9.69,9.69,0,0,1-1.27,2q-.76,1-3,3.42h4.93Z"/><rect class="cls-2" x="453" y="187" width="164" height="12"/><circle class="cls-2" cx="642" cy="193" r="14"/><path class="cls-4" d="M643.26,192.45a3.26,3.26,0,0,1,1.72,1.09,2.75,2.75,0,0,1,.65,1.78,3.28,3.28,0,0,1-1.21,2.59,4.16,4.16,0,0,1-2.84,1.05,5,5,0,0,1-2.49-.61l.26-1.12a5.35,5.35,0,0,0,2.28.54,2.66,2.66,0,0,0,1.82-.66,2.17,2.17,0,0,0,.75-1.7,2,2,0,0,0-.81-1.66,3.28,3.28,0,0,0-2.13-.64h-.36V192h.1a3.49,3.49,0,0,0,2.11-.6,1.88,1.88,0,0,0,.83-1.62,1.55,1.55,0,0,0-.6-1.3,2.52,2.52,0,0,0-1.64-.47,5,5,0,0,0-2,.49l-.19-1.17a5.37,5.37,0,0,1,2.28-.52,4,4,0,0,1,2.58.83,2.61,2.61,0,0,1,1,2.12,2.86,2.86,0,0,1-2.11,2.65Z"/><path class="cls-5" d="M121.7,190.9a3.84,3.84,0,0,0,.8-.05v.72a5.33,5.33,0,0,0-.81,0h-1.57v.22a12.59,12.59,0,0,1,1.88,1l-.41.58a6.33,6.33,0,0,0-1.23-.88l-.24-.14v.74a2,2,0,0,0,0,.5h-.78a2.63,2.63,0,0,0,0-.49v-.67c0-.23,0-.36,0-.7a6.61,6.61,0,0,1-2.25,2.36,2.22,2.22,0,0,0-.53-.57,7.06,7.06,0,0,0,1.77-1.37,4.08,4.08,0,0,0,.48-.62h-1.1a4.85,4.85,0,0,0-.95.06v-.75a5,5,0,0,0,1,.06h1.56v-1.61a4.12,4.12,0,0,0-.06-.8h.81a4,4,0,0,0-.06.8v1.61Zm-.31,7.61a8.86,8.86,0,0,0-1.15-.75,8.27,8.27,0,0,1-3.07,1.51,2.61,2.61,0,0,0-.39-.66,7.59,7.59,0,0,0,2.79-1.19,20,20,0,0,0-2-.82,9.4,9.4,0,0,0,.86-1.3h-.73a4.55,4.55,0,0,0-.86.06v-.75a3.68,3.68,0,0,0,.86.06h1a4.54,4.54,0,0,0,.36-.95l.74.17c-.2.47-.26.61-.34.78h1.68l.87,0a7.09,7.09,0,0,1-1.34,2.61,9.28,9.28,0,0,1,1.07.61Zm-3.52-9.78a8.1,8.1,0,0,1,.9,1.58l-.64.27a6.14,6.14,0,0,0-.87-1.57Zm1.34,6.57c-.16.29-.27.46-.62,1,.7.26.92.36,1.52.63a5.17,5.17,0,0,0,1-1.62Zm3.09-6.3a9.26,9.26,0,0,1-1,1.71l-.6-.3a5.75,5.75,0,0,0,1-1.71Zm5.36,2.54a5,5,0,0,0-1-.06,9.43,9.43,0,0,1-1.34,4.77,7.32,7.32,0,0,0,2.66,2.27,3.08,3.08,0,0,0-.44.74,8.48,8.48,0,0,1-2.67-2.37,9.38,9.38,0,0,1-3,2.47,2.47,2.47,0,0,0-.49-.67,7.83,7.83,0,0,0,3.1-2.45,9.24,9.24,0,0,1-1.23-3.53,6.85,6.85,0,0,1-.88,1.4,1.69,1.69,0,0,0-.6-.47,8,8,0,0,0,1.48-2.59,9.68,9.68,0,0,0,.61-2.58l.82.18c-.06.17-.06.17-.22.75s-.19.75-.4,1.39h2.55a5.43,5.43,0,0,0,1.11-.07Zm-3.91-.06a.89.89,0,0,1,0,.13.54.54,0,0,1-.06.13,13.4,13.4,0,0,0,.36,1.74,9.49,9.49,0,0,0,.85,2.08,7,7,0,0,0,.69-1.72,8.88,8.88,0,0,0,.36-2.36Z"/><path class="cls-5" d="M130.29,189.71a7.77,7.77,0,0,0-.07-1.21h.89a6.58,6.58,0,0,0-.07,1.2v1.17h.47a3.62,3.62,0,0,0,.76-.06v.78a4,4,0,0,0-.75-.05H131v2.3a11.34,11.34,0,0,0,1.19-.57V194c-.47.24-.47.24-1.19.56v3.8c0,.65-.29.85-1.27.85l-.76,0a2.44,2.44,0,0,0-.15-.75,6.23,6.23,0,0,0,1,.08c.35,0,.44-.07.44-.35V194.9l-.7.3a4.23,4.23,0,0,0-.58.25l-.21-.82a5.54,5.54,0,0,0,1.49-.48v-2.61h-.55a7.3,7.3,0,0,0-.94.06v-.81a5.35,5.35,0,0,0,.95.08h.54Zm6.23,3.56h1.95a6.8,6.8,0,0,0,1.12-.08V194a5.75,5.75,0,0,0-1.14-.08h-1.93v1.49H138c.37,0,.59,0,.89,0a8.86,8.86,0,0,0,0,1.14v1.59a8,8,0,0,0,.07,1.16h-.82v-.57h-3.62v.57h-.79a8.55,8.55,0,0,0,.06-1.1v-1.69a7.39,7.39,0,0,0,0-1.1c.29,0,.52,0,.84,0h1.31v-1.49h-2.42a9.59,9.59,0,0,1-1.52,5.13,1.86,1.86,0,0,0-.62-.48c1.19-1.62,1.52-3.3,1.52-8a14,14,0,0,0-.06-1.64A10,10,0,0,0,134,189h3.91a9.25,9.25,0,0,0,1.14,0c0,.29,0,.5,0,.88V191c0,.36,0,.65,0,.89-.28,0-.62,0-1,0h-1.47Zm-3.06-1.4c0,.77,0,1.13,0,1.4h2.39v-1.4Zm0-1.43c0,.38,0,.43,0,.8h4.81v-1.58h-4.8Zm1,7.61h3.62v-2h-3.62Z"/><path class="cls-5" d="M146,194.07a12.12,12.12,0,0,1-1.75,1.57v2.74l1.37-.4,1.39-.41-.07.79-1.6.42c-.73.19-1.1.29-1.87.52l-.26-.67c.25-.15.31-.32.31-.92v-1.57a14.7,14.7,0,0,1-2.33,1.22,2.9,2.9,0,0,0-.48-.69,11.93,11.93,0,0,0,2.68-1.25,8.38,8.38,0,0,0,1.72-1.35h-3a9.87,9.87,0,0,0-1.33.07v-.81a8.17,8.17,0,0,0,1.33.07h3.54v-1.17h-2.48a10.05,10.05,0,0,0-1.23.05v-.77a8.47,8.47,0,0,0,1.23.05h2.48v-1.12h-3.11a8.32,8.32,0,0,0-1.27.06v-.8a8.14,8.14,0,0,0,1.3.08h3.08v-.28a6.29,6.29,0,0,0-.07-1h.87a5,5,0,0,0-.07,1v.28h3.3a8.52,8.52,0,0,0,1.32-.08v.8a8.93,8.93,0,0,0-1.3-.06h-3.32v1.12h2.66a8.87,8.87,0,0,0,1.27-.05v.77a10.51,10.51,0,0,0-1.27-.05h-2.66v1.17h3.75a9.52,9.52,0,0,0,1.31-.07v.81a9.84,9.84,0,0,0-1.31-.07h-3.38a7.23,7.23,0,0,0,1.36,2.06,8.52,8.52,0,0,0,1.77-1.69l.7.47-.23.23a19,19,0,0,1-1.74,1.48,9.5,9.5,0,0,0,3.08,1.76,3.1,3.1,0,0,0-.51.71,10,10,0,0,1-3.58-2.45,9.46,9.46,0,0,1-1.62-2.57Z"/><path class="cls-5" d="M154.19,198.36a9.72,9.72,0,0,0-1.32.06,5.76,5.76,0,0,1,.34-1.58,5.33,5.33,0,0,1,1.56-2.06,15.65,15.65,0,0,1,1.84-1.32c1.19-.81,1.58-1.33,1.58-2.07,0-.91-.77-1.49-2-1.49a2,2,0,0,0-1.74.77,2.52,2.52,0,0,0-.42,1.22l-1-.17a3.24,3.24,0,0,1,.75-1.73,3.08,3.08,0,0,1,2.41-.92c1.81,0,3,.91,3,2.32a2.5,2.5,0,0,1-.71,1.71,9.35,9.35,0,0,1-2,1.54,6.74,6.74,0,0,0-1.73,1.48,3.35,3.35,0,0,0-.68,1.39h3.82a10.66,10.66,0,0,0,1.47-.08v1c-.48,0-.88-.07-1.48-.07Z"/><path class="cls-5" d="M165.8,191v-1.27a8.66,8.66,0,0,0-.08-1.27h1a8,8,0,0,0-.09,1.27V191h3a11,11,0,0,0,1.37-.07v.85a11.25,11.25,0,0,0-1.35-.07h-3v2.58H169a7.85,7.85,0,0,0,1.28-.08v.84A10.51,10.51,0,0,0,169,195H166.6v3.14H170a9.39,9.39,0,0,0,1.42-.08v.88a9.73,9.73,0,0,0-1.41-.09h-7.71a9.78,9.78,0,0,0-1.42.09v-.88a9.41,9.41,0,0,0,1.41.08h3.56V195h-2.19a10.38,10.38,0,0,0-1.28.07v-.84a8,8,0,0,0,1.28.08h2.19v-2.58H163a11.91,11.91,0,0,1-1.64,2.57,2.29,2.29,0,0,0-.69-.51,9.73,9.73,0,0,0,2.15-3.68,3.53,3.53,0,0,0,.26-1.13l.9.24a6.54,6.54,0,0,0-.24.64c-.06.19-.06.19-.43,1.16Z"/><path class="cls-5" d="M179.43,191.08c0,.58.11,1.43.22,2.13a10.65,10.65,0,0,0,.57,2.19,9.17,9.17,0,0,0,1.48-3.3l.81.33s-.18.4-.46,1a10.52,10.52,0,0,1-1.49,2.68,4.52,4.52,0,0,0,1,1.44c.32.28.55.43.7.43s.39-.61.54-1.73a3.42,3.42,0,0,0,.64.53,4.87,4.87,0,0,1-.43,1.46c-.19.38-.43.58-.74.58a2.21,2.21,0,0,1-1.26-.75,6,6,0,0,1-1-1.34,10.18,10.18,0,0,1-3.32,2.39,2.05,2.05,0,0,0-.59-.62,8.62,8.62,0,0,0,3.57-2.48,14.64,14.64,0,0,1-1-5h-4.23c0,.95,0,1,0,2h2.29a5.39,5.39,0,0,0,.9,0,9.38,9.38,0,0,0-.08,1.34,9.55,9.55,0,0,1-.36,2.58c-.18.37-.45.48-1.13.48a6.61,6.61,0,0,1-1.25-.11,2.9,2.9,0,0,0-.14-.78,5.79,5.79,0,0,0,1.38.2c.42,0,.51-.09.6-.54a17,17,0,0,0,.16-2.45h-2.39A15.41,15.41,0,0,1,174,197a5.62,5.62,0,0,1-.91,2.1,2.11,2.11,0,0,0-.63-.54,4.81,4.81,0,0,0,.83-1.8,23,23,0,0,0,.4-5.13,7.49,7.49,0,0,0-.07-1.31,12.22,12.22,0,0,0,1.46.06h3.54c0-.11,0-.29,0-.52a8.84,8.84,0,0,0-.1-1.42h.92a5.68,5.68,0,0,0-.06,1c0,.18,0,.73,0,1H182a6.66,6.66,0,0,0,1.29-.07v.81a9.71,9.71,0,0,0-1.35-.06Zm2.42-.87a7.16,7.16,0,0,0-1.72-1.27l.51-.42a9.43,9.43,0,0,1,1.72,1.18Z"/><rect class="cls-3" x="239" y="187" width="82" height="12"/></g></g></svg>