<?xml version="1.0" encoding="UTF-8"?>
<svg width="1427px" height="590px" viewBox="0 0 1427 590" version="1.1" xmlns="http://www.w3.org/2000/svg" xmlns:xlink="http://www.w3.org/1999/xlink">
    <!-- Generator: Sketch 54.1 (76490) - https://sketchapp.com -->
    <title>Tasks</title>
    <desc>Created with Sketch.</desc>
    <g id="页面1" stroke="none" stroke-width="1" fill="none" fill-rule="evenodd">
        <g id="画板" transform="translate(-181.000000, -165.000000)">
            <g id="Tasks" transform="translate(181.000000, 165.000000)">
                <rect id="矩形" fill="#63C9FE" x="80" y="186" width="244" height="68" rx="34"></rect>
                <rect id="矩形复制-3" stroke="#63C9FE" stroke-width="3" x="61.5" y="1.5" width="283" height="73"></rect>
                <rect id="矩形复制-4" stroke="#63C9FE" stroke-width="3" x="694.5" y="60.5" width="251" height="73"></rect>
                <rect id="矩形复制-5" stroke="#63C9FE" stroke-width="3" x="419.5" y="60.5" width="251" height="73"></rect>
                <rect id="矩形复制" fill="#58DDDF" x="80" y="349" width="244" height="68" rx="34"></rect>
                <rect id="矩形复制-2" fill="#FFCC7C" x="80" y="513" width="244" height="68" rx="34"></rect>
                <text id="信息登记数据" font-family="PingFangSC-Regular, PingFang SC" font-size="28" font-weight="normal" fill="#FFFFFF">
                    <tspan x="120" y="230">信息登记数据</tspan>
                </text>
                <text id="入园信息登记网站" font-family="PingFangSC-Regular, PingFang SC" font-size="28" font-weight="normal" fill="#000000" fill-opacity="0.85">
                    <tspan x="87" y="47">入园信息登记网站</tspan>
                </text>
                <text id="录取情况监测" font-family="PingFangSC-Regular, PingFang SC" font-size="28" font-weight="normal" fill="#000000" fill-opacity="0.85">
                    <tspan x="728" y="106">录取情况监测</tspan>
                </text>
                <text id="核验与管理" font-family="PingFangSC-Regular, PingFang SC" font-size="28" font-weight="normal" fill="#000000" fill-opacity="0.85">
                    <tspan x="471" y="106">核验与管理</tspan>
                </text>
                <text id="公安人口数据" font-family="PingFangSC-Regular, PingFang SC" font-size="28" font-weight="normal" fill="#FFFFFF">
                    <tspan x="120" y="393">公安人口数据</tspan>
                </text>
                <text id="机构既有数据" font-family="PingFangSC-Regular, PingFang SC" font-size="28" font-weight="normal" fill="#FFFFFF">
                    <tspan x="120" y="557">机构既有数据</tspan>
                </text>
                <path d="M32.3331782,187 C19.832426,187 9.66635644,197.09125 9.66635644,209.5 L9.66635644,212.8075 L4.19987459,223.66 C3.90520591,224.24125 3.93920614,224.93125 4.28298627,225.4825 C4.6267664,226.03375 5.23499279,226.375 5.88855281,226.375 L9.66635644,226.375 L9.66635644,235.405 C9.66635644,236.5075 10.1499153,237.54625 10.9961433,238.25875 C11.8423713,238.97125 12.9530456,239.27875 14.0561643,239.1025 L20.9997673,237.9625 L20.9997673,245.125 C20.9997673,245.67625 21.2415468,246.1975 21.6684386,246.5575 C22.0122187,246.84625 22.4428883,247 22.8886691,247 C22.9906698,247 23.0964483,246.9925 23.198449,246.97375 L45.8652708,243.22375 C46.7757215,243.07375 47.4443927,242.29 47.4443927,241.375 L47.4443927,229.82125 C47.4443927,227.21875 48.7364016,225.11875 49.8206312,223.81375 C53.1602096,219.80875 55,214.7275 55,209.5 C55,197.09125 44.8339304,187 32.3331782,187 Z M46.717809,221.583178 C44.6086141,224.117757 43.4939684,227.014953 43.4939684,229.949533 L43.4939684,239.882243 L24.7288893,243 L24.7288893,235.859813 C24.7288893,235.314019 24.4886963,234.790654 24.0646055,234.435514 C23.723081,234.143925 23.2952372,233.990654 22.8523814,233.990654 C22.75105,233.990654 22.6497185,233.998131 22.5446341,234.016822 L13.4698418,235.515888 L13.4698418,224.64486 C13.4698418,223.613084 12.6291663,222.775701 11.5933339,222.775701 L9,222.775701 L13.270932,214.26729 C13.4022876,214.005607 13.4698418,213.717757 13.4698418,213.429907 L13.4698418,209.691589 C13.4698418,199.385047 21.8878563,191 32.2349209,191 C42.5819855,191 51,199.385047 51,209.691589 C51,214.031776 49.4800286,218.256075 46.717809,221.583178 Z" id="idea" fill="#96DBFF" fill-rule="nonzero"></path>
                <path d="M59.2516954,374.998906 C60.2177256,374.998906 61.0017501,374.214882 61.0017501,373.248852 L61.0017501,369.748742 C61.0017501,369.101222 60.6447389,368.509703 60.0742211,368.205194 L33.8234007,354.204756 C33.3088847,353.931748 32.6928654,353.931748 32.1748492,354.204756 L5.92402888,368.205194 C5.35701116,368.509703 5,369.101222 5,369.748742 L5,373.248852 C5,374.214882 5.7840245,374.998906 6.75005469,374.998906 L8.50010938,374.998906 L8.50010938,399.499672 C6.57154911,399.499672 5,401.067721 5,402.999781 L5,408.249945 C5,409.215975 5.7840245,410 6.75005469,410 L59.2516954,410 C60.2177256,410 61.0017501,409.215975 61.0017501,408.249945 L61.0017501,402.999781 C61.0017501,401.067721 59.4302009,399.499672 57.5016407,399.499672 L57.5016407,374.998906 L59.2516954,374.998906 Z M57.5016407,406.499891 L8.50010938,406.499891 L8.50010938,402.999781 L57.5016407,402.999781 L57.5016407,406.499891 Z M12.0002188,399.499672 L12.0002188,374.998906 L15.5003281,374.998906 L15.5003281,399.499672 L12.0002188,399.499672 Z M19.0004375,399.499672 L19.0004375,374.998906 L33.000875,374.998906 L47.0013125,374.998906 L47.0013125,399.499672 L33.000875,399.499672 L19.0004375,399.499672 Z M50.5014219,399.499672 L50.5014219,374.998906 L54.0015313,374.998906 L54.0015313,399.499672 L50.5014219,399.499672 Z M8.50010938,371.498797 L8.50010938,370.798775 L33.000875,357.732867 L57.5016407,370.798775 L57.5016407,371.498797 L8.50010938,371.498797 L8.50010938,371.498797 Z" id="bank" fill="#96DCDD" fill-rule="nonzero"></path>
                <path d="M52.7085,537.0935 C50.762,527.22925 42.10475,520 31.875,520 C22.7205,520 14.78575,525.67375 11.8065,534.23325 C4.7005,537.1445 0,544.106 0,551.875 C0,562.41925 8.58075,571 19.125,571 L51,571 C60.3755,571 68,563.3755 68,554 C68,545.2365 61.336,538.003 52.7085,537.0935 Z M51.1428571,567 L19,567 C10.7285714,567 4,560.249 4,551.95 C4,545.5559 8.03714286,539.8541 14.0414286,537.7729 C14.7014286,537.545 15.2028571,537.0118 15.4,536.3453 C17.5642857,528.9622 24.1771429,524 31.8571429,524 C40.6,524 47.92,530.5704 48.8842857,539.2908 C49.0042857,540.3787 50.05,541.2 51.1428571,541.2 C58.2314286,541.2 64,546.9878 64,554.1 C64,561.2122 58.2314286,567 51.1428571,567 Z" id="bitcoin-1" fill="#FFCC7C" fill-rule="nonzero"></path>
                <path d="M202,247 L202,513" id="直线" stroke="#D5D2D2" stroke-width="2" stroke-linecap="square" stroke-dasharray="1,4"></path>
                <path d="M464.496352,382 L351,382" id="直线复制" stroke="#D5D2D2" stroke-width="2" stroke-linecap="square" stroke-dasharray="1,4"></path>
                <path d="M728.496352,382 L615,382" id="直线复制-2" stroke="#D5D2D2" stroke-width="2" stroke-linecap="square" stroke-dasharray="1,4"></path>
                <circle id="椭圆形" fill="#BAABFF" cx="817" cy="373" r="60"></circle>
                <circle id="椭圆形复制" fill="#FFCC7C" cx="540" cy="380" r="60"></circle>
                <text id="入园监测" font-family="PingFangSC-Regular, PingFang SC" font-size="28" font-weight="normal" fill="#6D7278">
                    <tspan x="755" y="287">入园监测</tspan>
                </text>
                <text id="学生录取" font-family="PingFangSC-Regular, PingFang SC" font-size="28" font-weight="normal" fill="#6D7278">
                    <tspan x="478" y="294">学生录取</tspan>
                </text>
                <path d="M840.625,359 C842.488,359 844,360.5266 844,362.4 L844,389.6 C844,391.4734 842.488,393 840.625,393 L793.375,393 C791.512,393 790,391.4734 790,389.6 L790,362.4 C790,360.5266 791.512,359 793.375,359 L800.125,359 C801.0565,359 801.8125,359.7616 801.8125,360.7 C801.8125,361.6384 801.0565,362.4 800.125,362.4 L793.375,362.4 L793.375,389.6 L840.625,389.6 L840.625,362.4 L827.125,362.4 C826.1935,362.4 825.4375,361.6384 825.4375,360.7 C825.4375,359.7616 826.1935,359 827.125,359 L840.625,359 Z M832.25,369 C833.216,369 834,369.672 834,370.5 C834,371.328 833.216,372 832.25,372 L821.75,372 C820.784,372 820,371.331 820,370.5 C820,369.669 820.784,369 821.75,369 L832.25,369 Z M832.333333,380 C833.253333,380 834,380.672 834,381.5 C834,382.328 833.253333,383 832.333333,383 L805.666667,383 C804.746667,383 804,382.331 804,381.5 C804,380.669 804.746667,380 805.666667,380 L832.333333,380 Z M831.506638,347.264307 C832.164454,347.92224 832.164454,348.991802 831.506638,349.649735 L826.740006,354.417218 L826.736633,354.420592 C826.733259,354.423966 826.733259,354.423966 826.733259,354.423966 L810.03824,371.121965 C809.852702,371.307536 809.626683,371.445871 809.377051,371.526847 L802.222042,373.912276 C802.046625,373.973008 801.867834,374 801.689043,374 C801.247126,374 800.818703,373.827925 800.494855,373.507394 C800.042818,373.055276 799.884267,372.387221 800.086672,371.779898 L802.471675,364.623613 C802.55601,364.373936 802.697694,364.147877 802.883231,363.962306 L824.35163,342.49345 C825.009445,341.835517 826.078817,341.835517 826.736633,342.49345 L831.506638,347.264307 Z M807.616613,368.793326 L823,353.409939 L820.590061,351 L805.206674,366.383387 L804,370 L807.616613,368.793326 Z M825.5,351 L828,348.5 L825.5,346 L823,348.5 L825.5,351 Z" id="check" fill="#FFFFFF" fill-rule="nonzero"></path>
                <path d="M1278.49635,382 L1165,382" id="直线复制-2" stroke="#D5D2D2" stroke-width="2" stroke-linecap="square" stroke-dasharray="1,4"></path>
                <circle id="椭圆形" fill="#BAABFF" cx="1367" cy="373" r="60"></circle>
                <text id="次年预测" font-family="PingFangSC-Regular, PingFang SC" font-size="28" font-weight="normal" fill="#6D7278">
                    <tspan x="1305" y="287">次年预测</tspan>
                </text>
                <path d="M533,350 C519.215385,350 508,359.662417 508,371.541667 C508,376.594167 510.007692,381.396 513.688462,385.183417 L511.880769,394.669583 C511.75,395.36675 511.996154,396.0835 512.530769,396.54175 C512.884615,396.839417 513.323077,397 513.769231,397 C514,397 514.230769,396.956917 514.453846,396.87075 L526.257692,392.3 C528.476923,392.820917 530.742308,393.083333 533,393.083333 C546.784615,393.083333 558,383.420917 558,371.541667 C558,359.662417 546.784615,350 533,350 Z M533,388.206918 C530.877091,388.206918 528.746545,387.936998 526.665636,387.404982 C526.524364,387.365864 526.341091,387.346304 526.192182,387.346304 C526.188364,387.346304 526.188364,387.346304 526.184545,387.346304 C526.180727,387.346304 526.180727,387.346304 526.180727,387.346304 C526.176909,387.346304 526.176909,387.346304 526.176909,387.346304 L526.173091,387.346304 C526.173091,387.346304 526.173091,387.346304 526.169273,387.346304 L526.165455,387.346304 C526.161636,387.346304 526.161636,387.346304 526.157818,387.346304 C526.154,387.346304 526.154,387.346304 526.154,387.346304 L526.150182,387.346304 C525.959273,387.346304 525.779818,387.377599 525.608,387.428454 C525.569818,387.444101 525.527818,387.459749 525.485818,387.475396 L516.436727,391 L517.769273,383.96644 C517.792182,383.849084 517.803636,383.692609 517.803636,383.567428 C517.803636,383.563517 517.803636,383.563517 517.803636,383.563517 L517.803636,383.559605 C517.803636,382.765493 517.353091,381.990941 516.692545,381.63496 C513.660909,378.560222 512,374.671814 512,370.603459 C512,360.898085 521.423273,353 533,353 C544.576727,353 554,360.898085 554,370.603459 C554,380.308833 544.576727,388.206918 533,388.206918 Z M564.752545,375.531374 C568.136085,378.662342 570,382.67958 570,386.843885 C570,391.635157 567.550396,396.194219 563.252707,399.464514 L562.077372,410.270033 C561.99031,411.044068 561.440238,411.694256 560.680425,411.918726 C560.490472,411.972909 560.296562,412 560.106608,412 C559.528834,412 558.96689,411.752309 558.583026,411.299499 L552.33436,403.942303 C551.044262,404.155162 549.671059,404.259657 548.234539,404.259657 C542.931681,404.259657 537.810861,402.715458 533.821846,399.909584 C532.939355,399.286487 532.733573,398.075123 533.370707,397.208204 C534.007842,396.337416 535.242537,396.140037 536.132942,396.767005 C539.453164,399.100718 543.750854,400.389485 548.234539,400.389485 C549.833311,400.389485 551.321277,400.234679 552.658863,399.940546 C553.38306,399.781868 554.146829,400.025689 554.62567,400.590734 L558.634472,405.308473 L559.406156,398.214449 C559.465517,397.661014 559.766276,397.161762 560.229287,396.840538 C563.925458,394.274614 566.042643,390.632783 566.042643,386.843885 C566.042643,383.709046 564.653611,380.767716 562.033841,378.341118 C561.238412,377.605786 561.206754,376.382811 561.954694,375.604907 C562.706592,374.827002 563.957116,374.796041 564.752545,375.531374 Z" id="chat" fill="#FFFFFF" fill-rule="nonzero"></path>
                <path d="M1002.49635,382 L889,382" id="直线复制-2" stroke="#D5D2D2" stroke-width="2" stroke-linecap="square" stroke-dasharray="1,4"></path>
                <circle id="椭圆形复制" fill="#FFCC7C" cx="1081" cy="380" r="60"></circle>
                <text id="数据分析" font-family="PingFangSC-Regular, PingFang SC" font-size="28" font-weight="normal" fill="#6D7278">
                    <tspan x="1031" y="294">数据分析</tspan>
                </text>
                <path d="M1104.31965,364.625256 C1104.98236,365.302112 1105.18303,366.319761 1104.82368,367.20488 C1104.46433,368.089999 1103.61028,368.667456 1102.66757,368.667456 L1091.00029,368.667456 L1091.00029,394.700355 C1091.00029,406.443559 1081.57779,416 1069.99918,416 C1069.10313,416 1068.28642,415.479342 1067.8944,414.660489 C1067.50238,413.836903 1067.61439,412.866586 1068.17441,412.156597 L1073.41536,405.511108 C1075.73015,402.581224 1076.99955,398.908218 1076.99955,395.159481 L1076.99955,368.667456 L1065.33227,368.667456 C1064.38955,368.667456 1063.5355,368.085265 1063.17615,367.20488 C1062.8168,366.324495 1063.01748,365.302112 1063.68484,364.625256 L1082.3525,345.692238 C1083.26254,344.769254 1084.74196,344.769254 1085.652,345.692238 L1104.31965,364.625256 Z M1088.97547,363.325266 L1097,363.325266 L1084.5,350 L1072,363.325266 L1080.02453,363.325266 C1081.25976,363.325266 1082.26226,364.393971 1082.26226,365.710768 L1082.26226,394.799581 C1082.26226,399.651692 1080.69137,404.417925 1077.84945,408.210873 L1076.5068,410 C1082.47261,407.643124 1086.73774,401.512383 1086.73774,394.336793 L1086.73774,365.710768 C1086.73774,364.393971 1087.74024,363.325266 1088.97547,363.325266 Z" id="value-2" fill="#FFFFFF" fill-rule="nonzero"></path>
                <path d="M1386.08333,347.875 L1378.25,347.875 L1378.25,345.90625 C1378.25,344.8195 1377.37267,343.9375 1376.29167,343.9375 L1372.03817,343.9375 C1371.23133,341.645875 1369.05367,340 1366.5,340 C1363.94633,340 1361.76867,341.645875 1360.96183,343.9375 L1356.70833,343.9375 C1355.62733,343.9375 1354.75,344.8195 1354.75,345.90625 L1354.75,347.875 L1346.91667,347.875 C1344.71942,347.875 1343,349.603563 1343,351.8125 L1343,399.0625 C1343,401.271437 1344.71942,403 1346.91667,403 L1386.08333,403 C1388.28058,403 1390,401.271437 1390,399.0625 L1390,351.8125 C1390,349.603563 1388.28058,347.875 1386.08333,347.875 Z M1359,348 L1363,348 C1364.104,348 1365,347.104 1365,346 C1365,344.896 1365.9,344 1367,344 C1368.1,344 1369,344.896 1369,346 C1369,347.104 1369.896,348 1371,348 L1375,348 L1375,352 L1359,352 L1359,348 Z M1386,399 L1347,399 L1347,352 L1354.8,352 L1354.8,353.958333 C1354.8,355.039333 1355.6736,355.916667 1356.75,355.916667 L1376.25,355.916667 C1377.3264,355.916667 1378.2,355.039333 1378.2,353.958333 L1378.2,352 L1386,352 L1386,399 Z M1380.0625,364 L1352.9375,364 C1351.868,364 1351,364.896 1351,366 C1351,367.104 1351.868,368 1352.9375,368 L1380.0625,368 C1381.132,368 1382,367.104 1382,366 C1382,364.896 1381.132,364 1380.0625,364 Z M1365,371 L1353,371 C1351.896,371 1351,371.896 1351,373 C1351,374.104 1351.896,375 1353,375 L1365,375 C1366.104,375 1367,374.104 1367,373 C1367,371.896 1366.104,371 1365,371 Z M1365,379 L1353,379 C1351.896,379 1351,379.896 1351,381 C1351,382.104 1351.896,383 1353,383 L1365,383 C1366.104,383 1367,382.104 1367,381 C1367,379.896 1366.104,379 1365,379 Z M1365,387 L1353,387 C1351.896,387 1351,387.896 1351,389 C1351,390.104 1351.896,391 1353,391 L1365,391 C1366.104,391 1367,390.104 1367,389 C1367,387.896 1366.104,387 1365,387 Z" id="money-11" fill="#FFFFFF" fill-rule="nonzero"></path>
                <path id="直线-2" d="M204,90 L204,188 L202,188 L202,90 L196,90 L203,76 L210,90 L204,90 Z" fill="#979797" fill-rule="nonzero"></path>
                <path id="直线-2复制" d="M813,149 L813,247 L811,247 L811,149 L805,149 L812,135 L819,149 L813,149 Z" fill="#979797" fill-rule="nonzero"></path>
                <path id="直线-2复制-2" d="M538,149 L538,247 L536,247 L536,149 L530,149 L537,135 L544,149 L538,149 Z" fill="#979797" fill-rule="nonzero"></path>
                <text id="任务流程与产品功能" font-family="PingFangSC-Regular, PingFang SC" font-size="36" font-weight="normal" fill="#000000" fill-opacity="0.85">
                    <tspan x="1093" y="586">任务流程与产品功能</tspan>
                </text>
            </g>
        </g>
    </g>
</svg>