<svg xmlns="http://www.w3.org/2000/svg" viewBox="0 0 795 115"><defs><style>.cls-1{fill:#fff;}.cls-2{font-size:12px;font-family:HiraginoSansGB-W3-GBpc-EUC-H, Hiragino Sans GB;}.cls-3{fill:#e6e6e6;}</style></defs><title>process</title><g id="图层_2" data-name="图层 2"><g id="图层_1-2" data-name="图层 1"><rect class="cls-1" width="795" height="115"/><text class="cls-2" transform="translate(85.28 54.68)">主流程分析</text><text class="cls-2" transform="translate(188.28 54.68)">以主流程点为对象<tspan x="6" y="14.4">细化子流程分析</tspan></text><text class="cls-2" transform="translate(333.28 54.68)">统一各个子流程的<tspan x="12" y="14.4">共有交互方式</tspan></text><text class="cls-2" transform="translate(507.28 54.68)">总体串联<tspan x="-12" y="14.4">特殊状态走查</tspan></text><text class="cls-2" transform="translate(637.28 54.68)">实施开发</text><polygon class="cls-3" points="178.33 50.67 174 46.34 174 49 153 49 153 52 174 52 174 55 178.33 50.67"/><polygon class="cls-3" points="323.33 50.67 319 46.34 319 49 298 49 298 52 319 52 319 55 323.33 50.67"/><polygon class="cls-3" points="473.33 50.67 469 46.34 469 49 448 49 448 52 469 52 469 55 473.33 50.67"/><polygon class="cls-3" points="613.33 50.67 609 46.34 609 49 588 49 588 52 609 52 609 55 613.33 50.67"/></g></g></svg>