<svg xmlns="http://www.w3.org/2000/svg" viewBox="0 0 557.43 181"><defs><style>.cls-1{fill:#e6e6e6;}.cls-2{fill:gray;}.cls-3{fill:#fff;}.cls-4{fill:#999;}</style></defs><title>stepby</title><g id="图层_2" data-name="图层 2"><g id="图层_1-2" data-name="图层 1"><rect class="cls-1" x="140.43" y="8" width="164" height="12"/><circle class="cls-1" cx="329.43" cy="14" r="14"/><circle class="cls-2" cx="115.43" cy="14" r="14"/><path class="cls-3" d="M118.31,19.74h-6.16V18.55h2.49V9.45l-2.34,1.17V9.26L114.83,8H116V18.55h2.31Z"/><path class="cls-4" d="M333,19.74h-6.45v-1Q329,16,329.74,15.09a9,9,0,0,0,1.19-1.95,4.86,4.86,0,0,0,.46-2,2,2,0,0,0-.6-1.55A2.33,2.33,0,0,0,329.13,9a7.08,7.08,0,0,0-2.21.5l-.19-1.17a6.74,6.74,0,0,1,2.62-.53,3.58,3.58,0,0,1,2.53.89,3,3,0,0,1,1,2.36,4.81,4.81,0,0,1-.49,2.09,9.69,9.69,0,0,1-1.27,2c-.51.64-1.52,1.78-3,3.42H333Z"/><rect class="cls-1" x="354.43" y="8" width="164" height="12"/><circle class="cls-1" cx="543.43" cy="14" r="14"/><path class="cls-4" d="M544.69,13.45a3.3,3.3,0,0,1,1.72,1.09,2.75,2.75,0,0,1,.65,1.78,3.28,3.28,0,0,1-1.21,2.59A4.18,4.18,0,0,1,543,20a5.06,5.06,0,0,1-2.5-.61l.27-1.12a5.35,5.35,0,0,0,2.28.54,2.66,2.66,0,0,0,1.82-.66,2.17,2.17,0,0,0,.75-1.7,2,2,0,0,0-.81-1.66,3.28,3.28,0,0,0-2.13-.64h-.36V13h.1a3.51,3.51,0,0,0,2.11-.6,1.91,1.91,0,0,0,.83-1.62,1.55,1.55,0,0,0-.6-1.3A2.52,2.52,0,0,0,543.13,9a5.11,5.11,0,0,0-2,.49l-.18-1.17a5.34,5.34,0,0,1,2.28-.52,4,4,0,0,1,2.58.83,2.61,2.61,0,0,1,1,2.12,2.86,2.86,0,0,1-2.11,2.65Z"/><path d="M18,11.9a4,4,0,0,0,.81-.05v.72a5.57,5.57,0,0,0-.82,0H16.43v.22a12.59,12.59,0,0,1,1.88,1l-.4.58a6.1,6.1,0,0,0-1.24-.88l-.24-.14v.74a2,2,0,0,0,.05.5H15.7a2.63,2.63,0,0,0,.05-.49v-.67a6.83,6.83,0,0,1,0-.7,6.61,6.61,0,0,1-2.25,2.36,2.22,2.22,0,0,0-.53-.57,7.13,7.13,0,0,0,1.78-1.37,6.06,6.06,0,0,0,.48-.62H14.16a4.68,4.68,0,0,0-.94.06v-.75a4.83,4.83,0,0,0,1,.06h1.56V10.3a5.13,5.13,0,0,0-.06-.81h.8a4,4,0,0,0-.06.81v1.6Zm-.31,7.61a7.69,7.69,0,0,0-1.15-.75,8.27,8.27,0,0,1-3.07,1.51,2.57,2.57,0,0,0-.38-.66,7.61,7.61,0,0,0,2.78-1.19,19,19,0,0,0-2-.82,9.4,9.4,0,0,0,.86-1.3H14a4.62,4.62,0,0,0-.86.06v-.75a3.68,3.68,0,0,0,.86.06h1.06a6,6,0,0,0,.36-.95l.73.17a7.9,7.9,0,0,1-.34.78h1.68l.88,0a7.1,7.1,0,0,1-1.35,2.61,9.28,9.28,0,0,1,1.07.61ZM14.19,9.73a8.65,8.65,0,0,1,.9,1.58l-.65.27A6.11,6.11,0,0,0,13.58,10Zm1.33,6.57c-.16.29-.27.46-.61,1,.69.26.91.36,1.51.63a5.21,5.21,0,0,0,1-1.62ZM18.61,10a8.75,8.75,0,0,1-1,1.71l-.6-.3A5.78,5.78,0,0,0,18,9.7ZM24,12.54a4.92,4.92,0,0,0-1-.06,9.43,9.43,0,0,1-1.34,4.77,7.32,7.32,0,0,0,2.66,2.27,3.45,3.45,0,0,0-.44.74,8.44,8.44,0,0,1-2.66-2.37,9.4,9.4,0,0,1-3.05,2.47,2.28,2.28,0,0,0-.49-.67,7.94,7.94,0,0,0,3.11-2.45,9.25,9.25,0,0,1-1.24-3.53,6.52,6.52,0,0,1-.88,1.39,1.79,1.79,0,0,0-.6-.46,8,8,0,0,0,1.48-2.59,9.31,9.31,0,0,0,.61-2.58l.82.18c-.06.17-.06.17-.22.75s-.19.75-.39,1.39h2.54A5.43,5.43,0,0,0,24,11.72Zm-3.91-.06,0,.13-.06.13a10.62,10.62,0,0,0,.36,1.74,9,9,0,0,0,.85,2.08,7.34,7.34,0,0,0,.68-1.72,8.88,8.88,0,0,0,.36-2.36Z"/><path d="M26.61,10.72a9.32,9.32,0,0,0-.07-1.22h.88a6.58,6.58,0,0,0-.07,1.2v1.17h.47a3.79,3.79,0,0,0,.77-.06v.78a4.13,4.13,0,0,0-.76-.05h-.48v2.3a10.44,10.44,0,0,0,1.19-.57V15c-.47.24-.47.24-1.19.56v3.79c0,.66-.29.86-1.27.86l-.76,0a2.18,2.18,0,0,0-.15-.75,6.23,6.23,0,0,0,1,.08c.35,0,.45-.07.45-.35V15.9l-.71.3a5.64,5.64,0,0,0-.58.25l-.21-.82a5.68,5.68,0,0,0,1.5-.48V12.54h-.55a7.34,7.34,0,0,0-.95.06v-.81a5.39,5.39,0,0,0,1,.08h.54Zm6.22,3.55h2a6.66,6.66,0,0,0,1.11-.08V15a5.75,5.75,0,0,0-1.14-.08H32.83v1.49h1.44c.37,0,.59,0,.89,0a8.86,8.86,0,0,0,0,1.14v1.59a8,8,0,0,0,.07,1.16h-.81V19.7H30.74v.57H30a8.55,8.55,0,0,0,.06-1.1V17.48a9.84,9.84,0,0,0,0-1.1c.29,0,.51,0,.84,0h1.3V14.92H29.7a9.5,9.5,0,0,1-1.52,5.13,1.94,1.94,0,0,0-.61-.48c1.18-1.62,1.51-3.3,1.51-8A12,12,0,0,0,29,10a10,10,0,0,0,1.26.06h3.91a9.35,9.35,0,0,0,1.14,0,7.56,7.56,0,0,0,0,.88V12a7.41,7.41,0,0,0,0,.89c-.29,0-.63,0-1,0H32.83Zm-3.06-1.4c0,.77,0,1.13,0,1.4h2.38v-1.4Zm0-1.43c0,.38,0,.43,0,.8h4.8V10.66H29.8Zm.94,7.61h3.63V17H30.74Z"/><path d="M42.31,15.07a11.62,11.62,0,0,1-1.75,1.57v2.73L41.93,19l1.39-.41-.07.79-1.6.42c-.73.19-1.1.29-1.87.52l-.26-.67c.25-.15.31-.32.31-.92V17.14a13.93,13.93,0,0,1-2.33,1.21,2.53,2.53,0,0,0-.48-.68,11.93,11.93,0,0,0,2.68-1.25,8.71,8.71,0,0,0,1.73-1.35h-3a9.87,9.87,0,0,0-1.33.07v-.81a7.15,7.15,0,0,0,1.33.07H42V13.23H39.52a10.05,10.05,0,0,0-1.23,0v-.77a8.56,8.56,0,0,0,1.23.05H42V11.44H38.9a8.54,8.54,0,0,0-1.28.06v-.8a8.23,8.23,0,0,0,1.3.08H42V10.5a5.34,5.34,0,0,0-.07-1h.87a5,5,0,0,0-.07,1v.28H46a8.43,8.43,0,0,0,1.32-.08v.8a8.93,8.93,0,0,0-1.3-.06H42.73v1.12H45.4a9.05,9.05,0,0,0,1.27-.05v.77a10.64,10.64,0,0,0-1.27,0H42.73V14.4h3.76a9.46,9.46,0,0,0,1.3-.07v.81a9.78,9.78,0,0,0-1.3-.07H43.1a7.45,7.45,0,0,0,1.36,2.06,8.28,8.28,0,0,0,1.77-1.69l.7.47-.23.23A17.7,17.7,0,0,1,45,17.62a9.36,9.36,0,0,0,3.09,1.75,3.12,3.12,0,0,0-.52.72A10.11,10.11,0,0,1,44,17.64a9.23,9.23,0,0,1-1.62-2.57Z"/><path d="M50.4,10.19a5.62,5.62,0,0,0,1,.06h.75a6.63,6.63,0,0,0,1-.06c-.07.73-.11,1.34-.11,2V18a7.75,7.75,0,0,0,.1,1.35H52A7.75,7.75,0,0,0,52.09,18v-7h-.64a7,7,0,0,0-1.05.08Z"/><path d="M62.11,12V10.74A8.66,8.66,0,0,0,62,9.47h1a8.06,8.06,0,0,0-.08,1.27V12h3a10.77,10.77,0,0,0,1.36-.07v.85a11.14,11.14,0,0,0-1.35-.07h-3V15.3h2.42a9.55,9.55,0,0,0,1.28-.07v.83A10.51,10.51,0,0,0,65.34,16H62.92v3.14h3.34a9.39,9.39,0,0,0,1.42-.08v.88a9.73,9.73,0,0,0-1.41-.09H58.56a9.63,9.63,0,0,0-1.41.09v-.88a9.27,9.27,0,0,0,1.4.08h3.56V16H59.92a10.2,10.2,0,0,0-1.27.07v-.83a9.49,9.49,0,0,0,1.27.07h2.19V12.72H59.28a11.24,11.24,0,0,1-1.64,2.56,2.39,2.39,0,0,0-.68-.5A9.72,9.72,0,0,0,59.1,11.1,3.9,3.9,0,0,0,59.37,10l.9.24a3.65,3.65,0,0,0-.24.64C60,11,60,11,59.59,12Z"/><path d="M75.74,12.08c0,.58.11,1.43.22,2.13a10.06,10.06,0,0,0,.58,2.19A9.31,9.31,0,0,0,78,13.1l.82.33s-.18.4-.47,1.05a10.52,10.52,0,0,1-1.49,2.68,4.52,4.52,0,0,0,1,1.44c.33.28.55.43.7.43s.39-.61.54-1.73a3.16,3.16,0,0,0,.65.53,5.11,5.11,0,0,1-.44,1.46c-.19.38-.43.58-.74.58a2.21,2.21,0,0,1-1.26-.75,5.9,5.9,0,0,1-1-1.34A10.33,10.33,0,0,1,73,20.17a2.15,2.15,0,0,0-.58-.62A8.65,8.65,0,0,0,76,17.07a14.88,14.88,0,0,1-1-5H70.77c0,.95,0,1.05,0,2H73a5.32,5.32,0,0,0,.9,0c0,.25,0,.25-.08,1.34a8.77,8.77,0,0,1-.36,2.58c-.18.37-.44.48-1.13.48a6.68,6.68,0,0,1-1.25-.11A2.56,2.56,0,0,0,71,17.5a5.85,5.85,0,0,0,1.38.2c.42,0,.52-.09.6-.54a15.42,15.42,0,0,0,.17-2.45h-2.4A15.41,15.41,0,0,1,70.33,18a5.47,5.47,0,0,1-.91,2.1,2.11,2.11,0,0,0-.63-.54,5,5,0,0,0,.84-1.8A23.75,23.75,0,0,0,70,12.65,7.49,7.49,0,0,0,70,11.34a12.22,12.22,0,0,0,1.46.06H75c0-.11,0-.29,0-.52a8.84,8.84,0,0,0-.1-1.42h.93a4.78,4.78,0,0,0-.06,1c0,.18,0,.73,0,1h2.61a6.6,6.6,0,0,0,1.29-.07v.81a9.62,9.62,0,0,0-1.35-.06Zm2.43-.87a7.22,7.22,0,0,0-1.73-1.27L77,9.52a9.37,9.37,0,0,1,1.71,1.18Z"/><circle class="cls-1" cx="329.43" cy="65" r="14"/><circle class="cls-2" cx="115.43" cy="65" r="14"/><path class="cls-3" d="M118.31,70.74h-6.16V69.55h2.49v-9.1l-2.34,1.17V60.26l2.53-1.3H116V69.55h2.31Z"/><path class="cls-4" d="M333,70.74h-6.45v-1Q329,67,329.74,66.09a9,9,0,0,0,1.19-2,4.86,4.86,0,0,0,.46-2,2,2,0,0,0-.6-1.55,2.33,2.33,0,0,0-1.66-.56,7.08,7.08,0,0,0-2.21.5l-.19-1.17a6.74,6.74,0,0,1,2.62-.53,3.58,3.58,0,0,1,2.53.89,3,3,0,0,1,1,2.36,4.81,4.81,0,0,1-.49,2.09,9.69,9.69,0,0,1-1.27,2c-.51.64-1.52,1.78-3,3.42H333Z"/><rect class="cls-1" x="354.43" y="59" width="164" height="12"/><circle class="cls-1" cx="543.43" cy="65" r="14"/><path class="cls-4" d="M544.69,64.45a3.3,3.3,0,0,1,1.72,1.09,2.75,2.75,0,0,1,.65,1.78,3.28,3.28,0,0,1-1.21,2.59A4.18,4.18,0,0,1,543,71a5.06,5.06,0,0,1-2.5-.61l.27-1.12a5.35,5.35,0,0,0,2.28.54,2.66,2.66,0,0,0,1.82-.66,2.17,2.17,0,0,0,.75-1.7,2,2,0,0,0-.81-1.66,3.28,3.28,0,0,0-2.13-.64h-.36V64h.1a3.51,3.51,0,0,0,2.11-.6,1.91,1.91,0,0,0,.83-1.62,1.55,1.55,0,0,0-.6-1.3,2.52,2.52,0,0,0-1.64-.47,5.11,5.11,0,0,0-2,.49l-.18-1.17a5.34,5.34,0,0,1,2.28-.52,4,4,0,0,1,2.58.83,2.61,2.61,0,0,1,1,2.12,2.86,2.86,0,0,1-2.11,2.65Z"/><path d="M4.35,61.44a5.41,5.41,0,0,0,1-.06v.72a6.16,6.16,0,0,0-1,0H3.57A5.89,5.89,0,0,1,4,63l-.66.27a6.85,6.85,0,0,0-.54-1.21h-1a7.12,7.12,0,0,1-1.2,1.43A2.33,2.33,0,0,0,0,63a5.61,5.61,0,0,0,1.44-1.67,4.25,4.25,0,0,0,.44-1l.79.22c-.26.48-.34.65-.46.84Zm-.76,2a6.94,6.94,0,0,0-.06,1.13v1.19c0,2.73-.58,4.09-2.37,5.54a2.59,2.59,0,0,0-.6-.59A5,5,0,0,0,2.13,69.1,6.21,6.21,0,0,0,2.77,66V64.57a6.76,6.76,0,0,0-.07-1.13ZM.56,68a8.24,8.24,0,0,0,.06-1.2V65a7.25,7.25,0,0,0-.06-1.12H1.4A6.74,6.74,0,0,0,1.34,65v1.73A8.05,8.05,0,0,0,1.4,68Zm7.2-2.52H9.33a5.89,5.89,0,0,0,.92,0q0,.36,0,.87v3.1c0,.61-.21.81-.82.81-.19,0-.38,0-.7,0a2.5,2.5,0,0,0-.16-.75,2.77,2.77,0,0,0,.73.12c.17,0,.23-.07.23-.26V66.08H7.76v4.11a6.08,6.08,0,0,0,.06,1.08H7A6.42,6.42,0,0,0,7,70.19V66.08H5.35v3.08a7.81,7.81,0,0,0,.05,1.12H4.57a6.25,6.25,0,0,0,.06-1.13V66.31a8.52,8.52,0,0,0,0-.9,7.05,7.05,0,0,0,1,0H7V64.19H5.17c-.46,0-.73,0-1.06,0v-.75a6.09,6.09,0,0,0,1.07.06H9.83a5.9,5.9,0,0,0,1.06-.06v.75a10.12,10.12,0,0,0-1,0H7.76Zm1.89-4a5.9,5.9,0,0,0,1.06-.06v.74a7.29,7.29,0,0,0-1.06-.06H8.2a5.79,5.79,0,0,1,.55,1l-.65.31a8.35,8.35,0,0,0-.63-1.27h-1a8.17,8.17,0,0,1-.88,1.18,2.39,2.39,0,0,0-.6-.42A4.65,4.65,0,0,0,6.4,60.37l.76.19a5.85,5.85,0,0,1-.4.88Z"/><path d="M14,65.71H13a4.27,4.27,0,0,0-.87.06V65a4.34,4.34,0,0,0,.92.06h.83a4.78,4.78,0,0,0,.9-.06,10.2,10.2,0,0,0-.05,1.21v2.93c.06.06.11.09.18.15a2.42,2.42,0,0,0,1.33.76,18.25,18.25,0,0,0,2.76.15,34.31,34.31,0,0,0,4.1-.19,2.7,2.7,0,0,0-.27.87c-1.2,0-2.46.07-4.18.07a10.08,10.08,0,0,1-2.9-.3,2.43,2.43,0,0,1-.74-.39c-.06,0-.06,0-.44-.39a.66.66,0,0,0-.38-.18c-.26,0-.58.2-1.07.71s-.49.5-.67.7l-.6-.55A5.61,5.61,0,0,1,14,69Zm-1-5a16.64,16.64,0,0,1,1.9,2.09l-.63.55a11,11,0,0,0-1.83-2.15Zm8,1.29A7.37,7.37,0,0,0,22.21,62v.8a10.23,10.23,0,0,0-1.16,0H19.48v1.63h2.26a7,7,0,0,0,1-.06v.81a6.74,6.74,0,0,0-1-.06H20.24v3c0,.28.23.37.87.37s.63,0,.75-.14l.05,0a4.83,4.83,0,0,0,.19-1.57,2,2,0,0,0,.73.27,5.94,5.94,0,0,0-.06.63c-.06.81-.14,1.11-.38,1.3a2.1,2.1,0,0,1-1.3.27c-1.17,0-1.53-.15-1.53-.68V65H18.45a4.34,4.34,0,0,1-.83,2.43,5.17,5.17,0,0,1-2.05,1.67.37.37,0,0,0-.07-.1,2.23,2.23,0,0,0-.38-.48,4.59,4.59,0,0,0,1.82-1.37,3.76,3.76,0,0,0,.8-2.15H16.51a9.23,9.23,0,0,0-1.1.06v-.81a8.43,8.43,0,0,0,1.08.06h2.27V62.71H16.93a5.91,5.91,0,0,1-.72,1,1.5,1.5,0,0,0-.59-.46A4.52,4.52,0,0,0,16.49,62a4.64,4.64,0,0,0,.39-1.2l.78.17c-.06.13-.08.19-.16.41a4.13,4.13,0,0,1-.27.65h1.53v-.57a5.28,5.28,0,0,0-.07-1h.87a4.82,4.82,0,0,0-.08,1V62Z"/><path d="M26.35,62.08c-.65.15-.93.21-1.8.38a1.58,1.58,0,0,0-.33-.68,15.46,15.46,0,0,0,3.65-.9,2.8,2.8,0,0,0,.72-.36l.52.63-.28.11a18.47,18.47,0,0,1-1.75.61v1.84H28A6.78,6.78,0,0,0,29,63.65v.79A6.11,6.11,0,0,0,28,64.38h-.91v.38a13.43,13.43,0,0,1,2,2.23l-.6.54a13.44,13.44,0,0,0-1.38-2v4.33a8.93,8.93,0,0,0,.07,1.47h-.88a11.87,11.87,0,0,0,.07-1.47V67.33c0-.45,0-1.35.06-2a9.61,9.61,0,0,1-1,2.22A8.06,8.06,0,0,1,24.35,69a3.05,3.05,0,0,0-.51-.64,9.36,9.36,0,0,0,2.37-4h-.89a7.65,7.65,0,0,0-1.14.07v-.82a7.06,7.06,0,0,0,1.14.08h1Zm4,8.82H29.5a11.89,11.89,0,0,0,.06-1.39V62.84a10.89,10.89,0,0,0-.06-1.27,7.31,7.31,0,0,0,1.13.06h2.59a7.08,7.08,0,0,0,1.14-.06,8.71,8.71,0,0,0-.06,1.27v6.59a13.43,13.43,0,0,0,.07,1.47h-.84v-.85H30.32Zm0-1.56h3.21v-7H30.32Z"/><path d="M39.67,62.89a4.65,4.65,0,0,0,.82,0v.77a5.08,5.08,0,0,0-.82,0h-.84V66a15.45,15.45,0,0,0,1.63-.63v.78l-.59.22a9.83,9.83,0,0,1-1,.4v3.61c0,.67-.28.84-1.35.84H36.8a2,2,0,0,0-.18-.76,7.39,7.39,0,0,0,1,.07c.35,0,.43-.07.43-.33V67c-.49.16-.81.27-1.06.34a5.08,5.08,0,0,0-.81.27l-.27-.82a12.58,12.58,0,0,0,2.14-.54V63.56H36.94a6,6,0,0,0-.89,0v-.79a4.38,4.38,0,0,0,.9.07h1.12V61.76A7.28,7.28,0,0,0,38,60.55h.91a8.19,8.19,0,0,0-.07,1.19v1.15Zm2.57,3.19a11.9,11.9,0,0,0-1.25.06v-.81c.31,0,.72.06,1.25.06h3.38V62.16H41.9a9.8,9.8,0,0,0-1.29.06v-.84a11.51,11.51,0,0,0,1.29.06h3.62a8.28,8.28,0,0,0,.9,0c0,.22,0,.46,0,.74v7.91a6.83,6.83,0,0,0,.06,1.1h-.83v-.76H41.67a11.18,11.18,0,0,0-1.24.06V69.6c.32,0,.75.05,1.23.05h4V66.08Z"/><path d="M49.63,61.8a7.75,7.75,0,0,0-.07-1.22h.89a7.23,7.23,0,0,0-.08,1.21v1.14h.41a4.48,4.48,0,0,0,.72,0v.75a6.7,6.7,0,0,0-.72,0h-.41v2.32c.33-.15.5-.23,1-.5l0,.71-1,.5v3.76c0,.67-.21.82-1.13.82l-1,0a2.05,2.05,0,0,0-.16-.73c.4,0,.84.08,1.19.08s.31,0,.31-.24V67l-.9.36a4.51,4.51,0,0,0-.55.25L48,66.76a8,8,0,0,0,1.63-.52V63.6H49a4,4,0,0,0-.84.07v-.82a3.42,3.42,0,0,0,.84.08h.66Zm7.21,1.89a3.62,3.62,0,0,0,0,.72h-.82a3.94,3.94,0,0,0,0-.72V63H54v.73a4.77,4.77,0,0,0,.05.72h-.81a4.79,4.79,0,0,0,0-.7V63h-.64a5.85,5.85,0,0,0-1,.06v-.8a5.45,5.45,0,0,0,1.05.06h.63V61.4a5.13,5.13,0,0,0-.06-.81h.83a4.32,4.32,0,0,0-.06.81v.88h2.08v-.86a5.06,5.06,0,0,0,0-.83h.83a4.11,4.11,0,0,0-.06.81v.88h.8a8.87,8.87,0,0,0,1.18-.07V63A9.42,9.42,0,0,0,57.65,63h-.81Zm-5,2.23c0-.59,0-.77,0-1.09a7.13,7.13,0,0,0,1.06,0h4.28a8.43,8.43,0,0,0,1.12,0,9.4,9.4,0,0,0,0,1v4.18a9.81,9.81,0,0,0,.07,1.25h-.79v-.67H52.62v.68h-.79c0-.36.06-.77.06-1.27Zm.73-.37v1.79H54.7V65.55Zm0,2.45v2H54.7V68Zm2.79-2.45v1.79h2.12V65.55Zm0,2.45v2h2.12V68Z"/><path d="M65,62.9a4,4,0,0,0,.81,0v.72a5.57,5.57,0,0,0-.82,0H63.43v.22a12.59,12.59,0,0,1,1.88,1l-.4.58a6.1,6.1,0,0,0-1.24-.88l-.24-.14v.74a2,2,0,0,0,0,.5H62.7a2.63,2.63,0,0,0,0-.49v-.67a6.83,6.83,0,0,1,0-.7,6.61,6.61,0,0,1-2.25,2.36,2.22,2.22,0,0,0-.53-.57,7.13,7.13,0,0,0,1.78-1.37,6.06,6.06,0,0,0,.48-.62H61.16a4.68,4.68,0,0,0-.94.06v-.75a4.83,4.83,0,0,0,1,.06h1.56V61.3a5.13,5.13,0,0,0-.06-.81h.8a4,4,0,0,0-.06.81v1.6Zm-.31,7.61a7.69,7.69,0,0,0-1.15-.75,8.27,8.27,0,0,1-3.07,1.51,2.57,2.57,0,0,0-.38-.66,7.61,7.61,0,0,0,2.78-1.19,19,19,0,0,0-2-.82,9.4,9.4,0,0,0,.86-1.3H61a4.62,4.62,0,0,0-.86.06v-.75a3.68,3.68,0,0,0,.86.06h1.06a6,6,0,0,0,.36-1l.73.17a7.9,7.9,0,0,1-.34.78h1.68l.88,0a7.1,7.1,0,0,1-1.35,2.61,9.28,9.28,0,0,1,1.07.61Zm-3.51-9.78a8.65,8.65,0,0,1,.9,1.58l-.65.27A6.11,6.11,0,0,0,60.58,61Zm1.33,6.57c-.16.29-.27.46-.61,1,.69.26.91.36,1.51.63a5.21,5.21,0,0,0,1-1.62ZM65.61,61a8.75,8.75,0,0,1-1,1.71l-.6-.3a5.78,5.78,0,0,0,1-1.71ZM71,63.54a4.92,4.92,0,0,0-1-.06,9.43,9.43,0,0,1-1.34,4.77,7.32,7.32,0,0,0,2.66,2.27,3.45,3.45,0,0,0-.44.74,8.44,8.44,0,0,1-2.66-2.37,9.4,9.4,0,0,1-3,2.47,2.28,2.28,0,0,0-.49-.67,7.94,7.94,0,0,0,3.11-2.45,9.25,9.25,0,0,1-1.24-3.53,6.52,6.52,0,0,1-.88,1.39,1.79,1.79,0,0,0-.6-.46,8,8,0,0,0,1.48-2.59,9.31,9.31,0,0,0,.61-2.58l.82.18c-.06.17-.06.17-.22.75s-.19.75-.39,1.39h2.54A5.43,5.43,0,0,0,71,62.72Zm-3.91-.06,0,.13-.06.13a10.62,10.62,0,0,0,.36,1.74,9,9,0,0,0,.85,2.08,7.34,7.34,0,0,0,.68-1.72,8.88,8.88,0,0,0,.36-2.36Z"/><path d="M73.61,61.72a9.32,9.32,0,0,0-.07-1.22h.88a6.58,6.58,0,0,0-.07,1.2v1.17h.47a3.79,3.79,0,0,0,.77-.06v.78a4.13,4.13,0,0,0-.76-.05h-.48v2.3a10.44,10.44,0,0,0,1.19-.57V66c-.47.24-.47.24-1.19.56v3.79c0,.66-.29.86-1.27.86l-.76,0a2.18,2.18,0,0,0-.15-.75,6.23,6.23,0,0,0,1,.08c.35,0,.45-.07.45-.35V66.9l-.71.3a5.64,5.64,0,0,0-.58.25l-.21-.82a5.68,5.68,0,0,0,1.5-.48V63.54h-.55a7.34,7.34,0,0,0-1,.06v-.81a5.39,5.39,0,0,0,1,.08h.54Zm6.22,3.55h2a6.66,6.66,0,0,0,1.11-.08V66a5.75,5.75,0,0,0-1.14-.08H79.83v1.49h1.44c.37,0,.59,0,.89,0a8.86,8.86,0,0,0,0,1.14v1.59a8,8,0,0,0,.07,1.16h-.81V70.7H77.74v.57H77a8.55,8.55,0,0,0,.06-1.1V68.48a9.84,9.84,0,0,0,0-1.1c.29,0,.51,0,.84,0h1.3V65.92H76.7a9.5,9.5,0,0,1-1.52,5.13,1.94,1.94,0,0,0-.61-.48c1.18-1.62,1.51-3.3,1.51-8A12,12,0,0,0,76,61a10,10,0,0,0,1.26.06h3.91a9.35,9.35,0,0,0,1.14,0,7.56,7.56,0,0,0,0,.88V63a7.41,7.41,0,0,0,0,.89c-.29,0-.63,0-1,0H79.83Zm-3.06-1.4c0,.77,0,1.13,0,1.4h2.38v-1.4Zm0-1.43c0,.38,0,.43,0,.8h4.8V61.66H76.8Zm.94,7.61h3.63V68H77.74Z"/><rect class="cls-2" x="140.43" y="59" width="82" height="12"/><rect class="cls-2" x="140.43" y="110" width="164" height="12"/><circle class="cls-1" cx="329.43" cy="116" r="14"/><circle class="cls-2" cx="115.43" cy="116" r="14"/><path class="cls-3" d="M118.31,121.74h-6.16v-1.19h2.49v-9.09l-2.34,1.16v-1.36l2.53-1.3H116v10.59h2.31Z"/><path class="cls-4" d="M333,121.74h-6.45v-1q2.46-2.73,3.18-3.66a9,9,0,0,0,1.19-2,4.86,4.86,0,0,0,.46-2,2,2,0,0,0-.6-1.55,2.33,2.33,0,0,0-1.66-.56,7.08,7.08,0,0,0-2.21.5l-.19-1.17a6.74,6.74,0,0,1,2.62-.53,3.58,3.58,0,0,1,2.53.89,3,3,0,0,1,1,2.36,4.81,4.81,0,0,1-.49,2.09,9.69,9.69,0,0,1-1.27,2c-.51.64-1.52,1.78-3,3.42H333Z"/><rect class="cls-1" x="354.43" y="110" width="164" height="12"/><circle class="cls-1" cx="543.43" cy="116" r="14"/><path class="cls-4" d="M544.69,115.45a3.3,3.3,0,0,1,1.72,1.09,2.75,2.75,0,0,1,.65,1.78,3.28,3.28,0,0,1-1.21,2.59,4.18,4.18,0,0,1-2.84,1,5.06,5.06,0,0,1-2.5-.61l.27-1.12a5.35,5.35,0,0,0,2.28.54,2.66,2.66,0,0,0,1.82-.66,2.17,2.17,0,0,0,.75-1.7,2,2,0,0,0-.81-1.66,3.28,3.28,0,0,0-2.13-.64h-.36V115h.1a3.51,3.51,0,0,0,2.11-.6,1.91,1.91,0,0,0,.83-1.62,1.55,1.55,0,0,0-.6-1.3,2.52,2.52,0,0,0-1.64-.47,5.11,5.11,0,0,0-2,.49l-.18-1.17a5.34,5.34,0,0,1,2.28-.52,4,4,0,0,1,2.58.83,2.61,2.61,0,0,1,1,2.12,2.86,2.86,0,0,1-2.11,2.65Z"/><path d="M5,113.9a4,4,0,0,0,.81-.05v.72a5.57,5.57,0,0,0-.82,0H3.43v.22a12.59,12.59,0,0,1,1.88,1l-.4.58a6.1,6.1,0,0,0-1.24-.88l-.24-.14v.74a2,2,0,0,0,0,.5H2.7a2.63,2.63,0,0,0,0-.49v-.67a6.83,6.83,0,0,1,0-.7,6.61,6.61,0,0,1-2.25,2.36,2.22,2.22,0,0,0-.53-.57,7.13,7.13,0,0,0,1.78-1.37,6.06,6.06,0,0,0,.48-.62H1.16a4.68,4.68,0,0,0-.94.06v-.75a4.83,4.83,0,0,0,1,.06H2.75v-1.61a5.1,5.1,0,0,0-.06-.8h.8a4,4,0,0,0-.06.8v1.61Zm-.31,7.61a7.69,7.69,0,0,0-1.15-.75,8.27,8.27,0,0,1-3.07,1.51,2.57,2.57,0,0,0-.38-.66,7.61,7.61,0,0,0,2.78-1.19,19,19,0,0,0-2-.82,9.4,9.4,0,0,0,.86-1.3H1a4.62,4.62,0,0,0-.86.06v-.75a3.68,3.68,0,0,0,.86.06H2.09a6,6,0,0,0,.36-1l.73.17a7.9,7.9,0,0,1-.34.78H4.52l.88,0a7.1,7.1,0,0,1-1.35,2.61,9.28,9.28,0,0,1,1.07.61Zm-3.51-9.78a8.65,8.65,0,0,1,.9,1.58l-.65.27A6.11,6.11,0,0,0,.58,112Zm1.33,6.57c-.16.29-.27.46-.61,1,.69.26.91.36,1.51.63a5.21,5.21,0,0,0,1-1.62ZM5.61,112a8.75,8.75,0,0,1-1,1.71l-.6-.3a5.78,5.78,0,0,0,1-1.71ZM11,114.54a4.92,4.92,0,0,0-1-.06,9.43,9.43,0,0,1-1.34,4.77,7.32,7.32,0,0,0,2.66,2.27,3.45,3.45,0,0,0-.44.74,8.44,8.44,0,0,1-2.66-2.37,9.53,9.53,0,0,1-3,2.47,2.28,2.28,0,0,0-.49-.67,7.94,7.94,0,0,0,3.11-2.45,9.25,9.25,0,0,1-1.24-3.53,6.85,6.85,0,0,1-.88,1.4,1.69,1.69,0,0,0-.6-.47,8,8,0,0,0,1.48-2.59,9.31,9.31,0,0,0,.61-2.58l.82.18c-.06.17-.06.17-.22.75s-.19.75-.39,1.39H9.86a5.43,5.43,0,0,0,1.11-.07Zm-3.91-.06,0,.13-.06.13a10.62,10.62,0,0,0,.36,1.74,9,9,0,0,0,.85,2.08,7.34,7.34,0,0,0,.68-1.72,8.88,8.88,0,0,0,.36-2.36Z"/><path d="M13.61,112.71a9.26,9.26,0,0,0-.07-1.21h.88a6.58,6.58,0,0,0-.07,1.2v1.17h.47a3.79,3.79,0,0,0,.77-.06v.78a4.13,4.13,0,0,0-.76,0h-.48v2.3a10.44,10.44,0,0,0,1.19-.57V117c-.47.24-.47.24-1.19.56v3.8c0,.65-.29.85-1.27.85l-.76,0a2.18,2.18,0,0,0-.15-.75,6.23,6.23,0,0,0,1,.08c.35,0,.45-.07.45-.35V117.9l-.71.3a5.64,5.64,0,0,0-.58.25l-.21-.82a5.68,5.68,0,0,0,1.5-.48v-2.61h-.55a7.34,7.34,0,0,0-1,.06v-.81a5.39,5.39,0,0,0,1,.08h.54Zm6.22,3.56h2a6.66,6.66,0,0,0,1.11-.08V117a5.75,5.75,0,0,0-1.14-.08H19.83v1.49h1.44c.37,0,.59,0,.89,0a8.86,8.86,0,0,0-.05,1.14v1.59a8,8,0,0,0,.07,1.16h-.81v-.57H17.74v.57H17a8.55,8.55,0,0,0,.06-1.1v-1.69a9.84,9.84,0,0,0,0-1.1c.29,0,.51,0,.84,0h1.3v-1.49H16.7a9.5,9.5,0,0,1-1.52,5.13,1.94,1.94,0,0,0-.61-.48c1.18-1.62,1.51-3.3,1.51-8A12,12,0,0,0,16,112a10,10,0,0,0,1.26.06h3.91a9.35,9.35,0,0,0,1.14-.05,7.56,7.56,0,0,0,0,.88V114a7.41,7.41,0,0,0,0,.89c-.29,0-.63,0-1,0H19.83Zm-3.06-1.4c0,.77,0,1.13,0,1.4h2.38v-1.4Zm0-1.43c0,.38,0,.43,0,.8h4.8v-1.58H16.8Zm.94,7.61h3.63v-2H17.74Z"/><path d="M29.92,113.82h2.42a9.49,9.49,0,0,0,1.41-.06,12.31,12.31,0,0,0,0,1.32v2a11.55,11.55,0,0,0,0,1.27,10,10,0,0,0-1.38-.06H29.65a4.42,4.42,0,0,1-.82,1.82,10.46,10.46,0,0,0,5.46,1.27H35a3.37,3.37,0,0,0-.32.85,11.4,11.4,0,0,1-6.3-1.57,7.25,7.25,0,0,1-3.87,1.8,2.25,2.25,0,0,0-.36-.73,7.73,7.73,0,0,0,2-.5,5.65,5.65,0,0,0,1.68-1,7.56,7.56,0,0,1-1.06-1l-.26-.26.69-.41a4.53,4.53,0,0,0,1.11,1.14,3.69,3.69,0,0,0,.63-1.43H26.69a9.93,9.93,0,0,0-1.38.06c0-.42,0-.78,0-1.28v-2c0-.58,0-.94,0-1.32a9.34,9.34,0,0,0,1.39.06h2.47v-1.18H25.44a12.1,12.1,0,0,0-1.26.07v-.82a8.87,8.87,0,0,0,1.26.07h8.09a9.15,9.15,0,0,0,1.26-.07v.82a11.64,11.64,0,0,0-1.26-.07H29.92Zm-.79,1.89c0-.28,0-.52,0-.7v-.55H26.09v1.25Zm-.13,2c.05-.41.06-.6.11-1.37h-3v1.37Zm4,0v-1.37h-3.1c0,.54,0,.81-.1,1.37Zm0-2v-1.25H29.91l0,1.25Z"/><path d="M37.25,120.52a30.22,30.22,0,0,0,3.18-1.08l-.06.8c-.64.25-.95.36-1.58.56-.89.29-.89.29-2.26.77l-.34-.71a.58.58,0,0,0,.33-.62l0-3.32a8.9,8.9,0,0,0-.06-1.33,10.57,10.57,0,0,0,1.23,0h1.92v-2.7h-2a10.07,10.07,0,0,0-1.2.06v-.82a9.21,9.21,0,0,0,1.2.07h1.56a9,9,0,0,0,1.23-.06,10.62,10.62,0,0,0,0,1.21v1.68a11.07,11.07,0,0,0,0,1.29c-.39,0-.71,0-1.34,0H37.25Zm8.43-6.28a9.3,9.3,0,0,1-1.66,5,7.82,7.82,0,0,0,1.33,1.3,7.23,7.23,0,0,0,1.74,1,2.85,2.85,0,0,0-.5.76,10.41,10.41,0,0,1-3.05-2.49,8.88,8.88,0,0,1-1.33,1.24,10.74,10.74,0,0,1-2.18,1.3,1.79,1.79,0,0,0-.48-.73,8.35,8.35,0,0,0,3.55-2.41,8.18,8.18,0,0,1-1.38-3.43,9.65,9.65,0,0,1-1,1.51,2.08,2.08,0,0,0-.62-.47,10,10,0,0,0,2.07-4.33,7.26,7.26,0,0,0,.19-1.18l.84.17c0,.13-.08.28-.2.73s-.23.89-.36,1.33h3.15a6.36,6.36,0,0,0,1.14-.07v.82a6.4,6.4,0,0,0-1.11-.06Zm-3.24,0c-.07.2-.07.2-.25.62a7.38,7.38,0,0,0,.48,1.94,7.84,7.84,0,0,0,.9,1.78,7.65,7.65,0,0,0,1-2.3,9.39,9.39,0,0,0,.32-2Z"/><path d="M55.39,119a9.32,9.32,0,0,0-1.26-.08H49.34a9.52,9.52,0,0,0-1.28.08v-.86a9,9,0,0,0,1.28.08h4.79a9.21,9.21,0,0,0,1.26-.08Zm1.16-5.85a8.56,8.56,0,0,0,1.15,0v.83a8.25,8.25,0,0,0-1.12-.06H50.87c-.08.88-.09,1-.18,1.82h5.68a11.47,11.47,0,0,0,1.28-.06c0,.36-.07.62-.18,2.31a19.68,19.68,0,0,1-.39,2.58c-.33,1.25-.68,1.55-1.81,1.55a20.73,20.73,0,0,1-2.14-.14,4.38,4.38,0,0,0-.26-.85,15.15,15.15,0,0,0,2.34.23c.72,0,.91-.19,1.13-1.1a18.88,18.88,0,0,0,.43-3.83H50.84c-.12,0-.74,0-1.1,0a23.76,23.76,0,0,0,.41-3c0-.63.08-1.32.08-1.67,0-.1,0-.17,0-.33h.87c0,.29,0,.29-.18,1.75Z"/><path d="M67.58,119.84a10.17,10.17,0,0,0-1.33-.07H61.69a8.7,8.7,0,0,0-1.32.07V119a8.44,8.44,0,0,0,1.32.07h4.56a7.41,7.41,0,0,0,1.33-.07Zm-7.12-5.37a7.59,7.59,0,0,0,.07-1V113a6.07,6.07,0,0,0-.05-1,9.87,9.87,0,0,0,1.13,0h7.72a10.3,10.3,0,0,0,1.14,0,6,6,0,0,0,0,1v.5a7,7,0,0,0,.07,1h-.81v-1.72h-8.4v1.72Zm3,.63c-.06.27-.09.46-.12.59-.12.58-.14.67-.27,1.16h5.43a7.75,7.75,0,0,0,1.21-.06c0,.13-.17,1.21-.41,3.26a3.41,3.41,0,0,1-.5,1.77,1.69,1.69,0,0,1-1.32.39,16.93,16.93,0,0,1-2-.14c0-.07,0-.13,0-.16a1.14,1.14,0,0,0-.09-.42.42.42,0,0,0,0-.1.77.77,0,0,0-.06-.15,13.45,13.45,0,0,0,2.25.24c.57,0,.75-.14.9-.68a22.33,22.33,0,0,0,.41-3.3H63.17a5.9,5.9,0,0,1-.65,0l-.42,0a22.93,22.93,0,0,0,.84-3.78,5,5,0,0,0,.07-.68l.84.07a1.74,1.74,0,0,1-.05.22l-.06.3c-.05.24-.09.45-.13.66a.22.22,0,0,0,0,.08h4.06a6.91,6.91,0,0,0,1.3-.07v.79a8.85,8.85,0,0,0-1.3-.06Z"/><path d="M75.81,111.65a8.55,8.55,0,0,1,1.57,1.21,5.3,5.3,0,0,1,1.31,2.33,18,18,0,0,0,1.07,2.61,9.4,9.4,0,0,0,1.58,2.29,9.87,9.87,0,0,0,1.68,1.3,2.25,2.25,0,0,0-.67.7,9.64,9.64,0,0,1-2.43-2.43,14.52,14.52,0,0,1-1-1.88c-.21-.47-.26-.6-.8-2.09l-.37-.94c-.06.21-.06.21-.2.64a13.59,13.59,0,0,1-1.9,4,10.73,10.73,0,0,1-2.87,2.76,2.06,2.06,0,0,0-.6-.69,8,8,0,0,0,2.65-2.29,13.07,13.07,0,0,0,1.86-3.62l.52-1.73a5.24,5.24,0,0,0-1.87-1.53Z"/><rect class="cls-2" x="140.43" y="110" width="82" height="12"/><rect class="cls-2" x="140.43" y="161" width="164" height="12"/><circle class="cls-2" cx="329.43" cy="167" r="14"/><circle class="cls-2" cx="115.43" cy="167" r="14"/><path class="cls-3" d="M118.31,172.74h-6.16v-1.19h2.49v-9.09l-2.34,1.16v-1.36l2.53-1.3H116v10.59h2.31Z"/><path class="cls-3" d="M333,172.74h-6.45v-1q2.46-2.73,3.18-3.66a9,9,0,0,0,1.19-2,4.86,4.86,0,0,0,.46-2,2,2,0,0,0-.6-1.55,2.33,2.33,0,0,0-1.66-.56,7.08,7.08,0,0,0-2.21.5l-.19-1.17a6.74,6.74,0,0,1,2.62-.53,3.58,3.58,0,0,1,2.53.89,3,3,0,0,1,1,2.36,4.81,4.81,0,0,1-.49,2.09,9.69,9.69,0,0,1-1.27,2c-.51.64-1.52,1.78-3,3.42H333Z"/><rect class="cls-1" x="354.43" y="161" width="164" height="12"/><circle class="cls-1" cx="543.43" cy="167" r="14"/><path class="cls-4" d="M544.69,166.45a3.3,3.3,0,0,1,1.72,1.09,2.75,2.75,0,0,1,.65,1.78,3.28,3.28,0,0,1-1.21,2.59A4.18,4.18,0,0,1,543,173a5.06,5.06,0,0,1-2.5-.61l.27-1.12a5.35,5.35,0,0,0,2.28.54,2.66,2.66,0,0,0,1.82-.66,2.17,2.17,0,0,0,.75-1.7,2,2,0,0,0-.81-1.66,3.28,3.28,0,0,0-2.13-.64h-.36V166h.1a3.51,3.51,0,0,0,2.11-.6,1.91,1.91,0,0,0,.83-1.62,1.55,1.55,0,0,0-.6-1.3,2.52,2.52,0,0,0-1.64-.47,5.11,5.11,0,0,0-2,.49l-.18-1.17a5.34,5.34,0,0,1,2.28-.52,4,4,0,0,1,2.58.83,2.61,2.61,0,0,1,1,2.12,2.86,2.86,0,0,1-2.11,2.65Z"/><path d="M23.13,164.9a3.84,3.84,0,0,0,.8-.05v.72a5.41,5.41,0,0,0-.81,0H21.55v.22a12.59,12.59,0,0,1,1.88,1l-.41.58a6.33,6.33,0,0,0-1.23-.88l-.24-.14v.74a2.67,2.67,0,0,0,0,.5h-.78a2,2,0,0,0,.05-.49v-.67a5.05,5.05,0,0,1,.05-.7,6.61,6.61,0,0,1-2.25,2.36,2.22,2.22,0,0,0-.53-.57,7.06,7.06,0,0,0,1.77-1.37,4.08,4.08,0,0,0,.48-.62h-1.1a4.79,4.79,0,0,0-1,.06v-.75a4.89,4.89,0,0,0,1,.06h1.56v-1.61a4.12,4.12,0,0,0-.06-.8h.81a4,4,0,0,0-.06.8v1.61Zm-.31,7.61a8.86,8.86,0,0,0-1.15-.75,8.27,8.27,0,0,1-3.07,1.51,2.61,2.61,0,0,0-.39-.66A7.54,7.54,0,0,0,21,171.42a18.68,18.68,0,0,0-2-.82,9.4,9.4,0,0,0,.86-1.3h-.73a4.75,4.75,0,0,0-.87.06v-.75a3.83,3.83,0,0,0,.87.06H20.2a5.19,5.19,0,0,0,.36-.95l.73.17c-.19.47-.25.61-.33.78h1.68l.87,0a7.09,7.09,0,0,1-1.34,2.61,10.2,10.2,0,0,1,1.07.61Zm-3.52-9.78a8.1,8.1,0,0,1,.9,1.58l-.64.27a6.14,6.14,0,0,0-.87-1.57Zm1.33,6.57a9.76,9.76,0,0,1-.61,1c.7.26.91.36,1.51.63a5,5,0,0,0,1-1.62Zm3.1-6.3a9.26,9.26,0,0,1-1,1.71l-.6-.3a5.75,5.75,0,0,0,1-1.71Zm5.36,2.54a5,5,0,0,0-1-.06,9.53,9.53,0,0,1-1.34,4.77,7.32,7.32,0,0,0,2.66,2.27,3.08,3.08,0,0,0-.44.74,8.37,8.37,0,0,1-2.67-2.37,9.38,9.38,0,0,1-3,2.47,2.47,2.47,0,0,0-.49-.67,7.83,7.83,0,0,0,3.1-2.45,9.24,9.24,0,0,1-1.23-3.53,6.85,6.85,0,0,1-.88,1.4,1.79,1.79,0,0,0-.6-.47,8,8,0,0,0,1.48-2.59,9.68,9.68,0,0,0,.61-2.58l.81.18a7.09,7.09,0,0,0-.21.75c-.16.63-.19.75-.4,1.39H28a5.48,5.48,0,0,0,1.12-.07Zm-3.91-.06c0,.06,0,.09-.05.13s-.05.1-.06.13a10.62,10.62,0,0,0,.36,1.74,9,9,0,0,0,.85,2.08,7,7,0,0,0,.69-1.72,8.88,8.88,0,0,0,.36-2.36Z"/><path d="M31.72,163.71a7.77,7.77,0,0,0-.07-1.21h.89a6.58,6.58,0,0,0-.07,1.2v1.17h.46a3.66,3.66,0,0,0,.77-.06v.78a4,4,0,0,0-.75-.05h-.48v2.3a10.19,10.19,0,0,0,1.18-.57V168c-.46.24-.46.24-1.18.56v3.8c0,.65-.29.85-1.27.85l-.76,0a2.19,2.19,0,0,0-.16-.75,6.44,6.44,0,0,0,1,.08c.35,0,.44-.07.44-.35V168.9l-.7.3a4.23,4.23,0,0,0-.58.25l-.22-.82a5.46,5.46,0,0,0,1.5-.48v-2.61h-.55a7.46,7.46,0,0,0-1,.06v-.81a5.56,5.56,0,0,0,1,.08h.54ZM38,167.27H39.9a6.89,6.89,0,0,0,1.12-.08V168a5.81,5.81,0,0,0-1.14-.08H38v1.49h1.44c.37,0,.58,0,.88,0,0,.32,0,.63,0,1.14v1.59a8,8,0,0,0,.07,1.16h-.82v-.57H35.86v.57h-.79a8.55,8.55,0,0,0,.06-1.1v-1.69a7.39,7.39,0,0,0,0-1.1c.29,0,.52,0,.84,0h1.31v-1.49H34.82a9.59,9.59,0,0,1-1.53,5.13,1.74,1.74,0,0,0-.61-.48c1.19-1.62,1.51-3.3,1.51-8a12,12,0,0,0-.06-1.64,10.23,10.23,0,0,0,1.26.06H39.3a9.25,9.25,0,0,0,1.14,0c0,.29,0,.5,0,.88V165c0,.36,0,.65,0,.89-.29,0-.62,0-1,0H38Zm-3.06-1.4c0,.77,0,1.13,0,1.4h2.39v-1.4Zm0-1.43c0,.38,0,.43,0,.8h4.81v-1.58h-4.8Zm1,7.61h3.62v-2H35.86Z"/><path d="M47.43,168.07a12.12,12.12,0,0,1-1.75,1.57v2.74l1.37-.4,1.39-.41-.08.79-1.59.42c-.73.19-1.1.29-1.87.52l-.27-.67c.26-.15.32-.32.32-.92v-1.57a15.15,15.15,0,0,1-2.33,1.22,2.9,2.9,0,0,0-.48-.69,11.66,11.66,0,0,0,2.67-1.25,8.17,8.17,0,0,0,1.73-1.35h-3a9.87,9.87,0,0,0-1.33.07v-.81a8.17,8.17,0,0,0,1.33.07h3.54v-1.17H44.63a10,10,0,0,0-1.22.05v-.77a8.39,8.39,0,0,0,1.22.05h2.49v-1.12H44a8.32,8.32,0,0,0-1.27.06v-.8a8.14,8.14,0,0,0,1.3.08h3.08v-.28a6.29,6.29,0,0,0-.07-1h.87a5,5,0,0,0-.07,1v.28h3.3a8.52,8.52,0,0,0,1.32-.08v.8a8.93,8.93,0,0,0-1.3-.06H47.85v1.12h2.66a8.87,8.87,0,0,0,1.27-.05v.77a10.51,10.51,0,0,0-1.27-.05H47.85v1.17H51.6a9.52,9.52,0,0,0,1.31-.07v.81a9.84,9.84,0,0,0-1.31-.07H48.22a7,7,0,0,0,1.36,2.06,8.52,8.52,0,0,0,1.77-1.69l.7.47-.23.23a19,19,0,0,1-1.74,1.48,9.5,9.5,0,0,0,3.08,1.76,2.83,2.83,0,0,0-.51.71,10,10,0,0,1-3.58-2.45,9.46,9.46,0,0,1-1.62-2.57Z"/><path d="M55.62,172.36a9.72,9.72,0,0,0-1.32.06,5.4,5.4,0,0,1,.34-1.58,5.23,5.23,0,0,1,1.56-2.06A15.65,15.65,0,0,1,58,167.46c1.19-.81,1.58-1.33,1.58-2.07,0-.91-.77-1.49-2-1.49a2,2,0,0,0-1.74.77,2.52,2.52,0,0,0-.42,1.22l-1-.17a3.24,3.24,0,0,1,.76-1.73,3.06,3.06,0,0,1,2.41-.92c1.81,0,3,.91,3,2.32a2.54,2.54,0,0,1-.7,1.71,9.35,9.35,0,0,1-2,1.54,6.74,6.74,0,0,0-1.73,1.48,3.35,3.35,0,0,0-.68,1.39h3.82a10.66,10.66,0,0,0,1.47-.08v1c-.48,0-.88-.07-1.48-.07Z"/><path d="M67.23,165v-1.27a8.66,8.66,0,0,0-.08-1.27h1a8,8,0,0,0-.09,1.27V165h3a11,11,0,0,0,1.37-.07v.85a11.25,11.25,0,0,0-1.35-.07H68v2.58h2.43a7.94,7.94,0,0,0,1.28-.08v.84a10.51,10.51,0,0,0-1.28-.07H68v3.14h3.35a9.16,9.16,0,0,0,1.41-.08v.88a9.49,9.49,0,0,0-1.4-.09H63.68a9.78,9.78,0,0,0-1.42.09v-.88a9.41,9.41,0,0,0,1.41.08h3.56V169H65a10.33,10.33,0,0,0-1.27.07v-.84a7.89,7.89,0,0,0,1.27.08h2.2v-2.58H64.4a11.91,11.91,0,0,1-1.64,2.57,2.29,2.29,0,0,0-.69-.51,9.86,9.86,0,0,0,2.15-3.68,3.53,3.53,0,0,0,.26-1.13l.9.24a6.54,6.54,0,0,0-.24.64c-.06.19-.06.19-.43,1.16Z"/><path d="M80.86,165.08a19.77,19.77,0,0,0,.22,2.13,10,10,0,0,0,.57,2.19,9.17,9.17,0,0,0,1.48-3.3l.81.33-.47,1A10.23,10.23,0,0,1,82,170.16a4.52,4.52,0,0,0,1,1.44c.32.28.55.43.69.43s.4-.61.54-1.73a3.79,3.79,0,0,0,.65.53,4.87,4.87,0,0,1-.43,1.46c-.19.38-.43.58-.74.58a2.18,2.18,0,0,1-1.26-.75,6,6,0,0,1-1-1.34,10.18,10.18,0,0,1-3.32,2.39,2.05,2.05,0,0,0-.59-.62,8.52,8.52,0,0,0,3.56-2.48,14.88,14.88,0,0,1-1-5H75.88c0,.95,0,1,0,2h2.29a5.39,5.39,0,0,0,.9,0,9.38,9.38,0,0,0-.08,1.34,9.55,9.55,0,0,1-.36,2.58c-.18.37-.45.48-1.13.48a6.61,6.61,0,0,1-1.25-.11,2.9,2.9,0,0,0-.14-.78,5.79,5.79,0,0,0,1.38.2c.42,0,.51-.09.6-.54a17,17,0,0,0,.16-2.45h-2.4a14.92,14.92,0,0,1-.38,3.31,5.62,5.62,0,0,1-.91,2.1,2.15,2.15,0,0,0-.64-.54,4.68,4.68,0,0,0,.84-1.8,23,23,0,0,0,.4-5.13,7.49,7.49,0,0,0-.07-1.31,12.22,12.22,0,0,0,1.46.06h3.54c0-.11,0-.29,0-.52a8.24,8.24,0,0,0-.09-1.42h.92a4.78,4.78,0,0,0-.06,1c0,.18,0,.73,0,1h2.61a6.54,6.54,0,0,0,1.28-.07v.81a9.46,9.46,0,0,0-1.34-.06Zm2.42-.87a7.16,7.16,0,0,0-1.72-1.27l.51-.42a9.43,9.43,0,0,1,1.72,1.18Z"/><rect class="cls-2" x="140.43" y="161" width="82" height="12"/></g></g></svg>