<svg xmlns="http://www.w3.org/2000/svg" viewBox="0 0 795 220"><defs><style>.cls-1{fill:#fff;}.cls-2,.cls-3{font-size:12px;font-family:HiraginoSansGB-W3-GBpc-EUC-H, Hiragino Sans GB;}.cls-3{fill:#606060;}.cls-4{fill:#e6e6e6;}.cls-5,.cls-6,.cls-7{fill:none;stroke:#ccc;stroke-miterlimit:10;}.cls-6{stroke-dasharray:1.01 4.05;}.cls-7{stroke-dasharray:1.02 4.09;}</style></defs><title>process2</title><g id="图层_2" data-name="图层 2"><g id="图层_1-2" data-name="图层 1"><rect class="cls-1" width="795" height="220"/><text class="cls-2" transform="translate(85.28 54.68)">主流程分析</text><text class="cls-2" transform="translate(188.28 54.68)">以主流程点为对象<tspan x="6" y="14.4">细化子流程分析</tspan></text><text class="cls-3" transform="translate(206.28 131.68)">子流程分析</text><text class="cls-3" transform="translate(170.28 159.68)">确定页面功能和结构设计</text><text class="cls-3" transform="translate(194.28 189.68)">子流程交互设计</text><text class="cls-2" transform="translate(333.28 54.68)">统一各个子流程的<tspan x="12" y="14.4">共有交互方式</tspan></text><text class="cls-2" transform="translate(507.28 54.68)">总体串联<tspan x="-12" y="14.4">特殊状态走查</tspan></text><text class="cls-2" transform="translate(637.28 54.68)">实施开发</text><polygon class="cls-4" points="178.33 50.67 174 46.34 174 49 153 49 153 52 174 52 174 55 178.33 50.67"/><polygon class="cls-4" points="323.33 50.67 319 46.34 319 49 298 49 298 52 319 52 319 55 323.33 50.67"/><polygon class="cls-4" points="238.33 103.33 242.66 99 240 99 240 78 237 78 237 99 234 99 238.33 103.33"/><polygon class="cls-4" points="473.33 50.67 469 46.34 469 49 448 49 448 52 469 52 469 55 473.33 50.67"/><polygon class="cls-4" points="613.33 50.67 609 46.34 609 49 588 49 588 52 609 52 609 55 613.33 50.67"/><polyline class="cls-5" points="316 201.5 316 202 315.5 202"/><line class="cls-6" x1="311.45" y1="202" x2="161.53" y2="202"/><polyline class="cls-5" points="159.5 202 159 202 159 201.5"/><line class="cls-7" x1="159" y1="197.41" x2="159" y2="112.54"/><polyline class="cls-5" points="159 110.5 159 110 159.5 110"/><line class="cls-6" x1="163.55" y1="110" x2="313.47" y2="110"/><polyline class="cls-5" points="315.5 110 316 110 316 110.5"/><line class="cls-7" x1="316" y1="114.59" x2="316" y2="199.46"/></g></g></svg>