<?xml version="1.0" encoding="UTF-8"?>
<svg width="442px" height="126px" viewBox="0 0 442 126" version="1.1" xmlns="http://www.w3.org/2000/svg" xmlns:xlink="http://www.w3.org/1999/xlink">
    <!-- Generator: Sketch 54.1 (76490) - https://sketchapp.com -->
    <title>after</title>
    <desc>Created with Sketch.</desc>
    <g id="页面1" stroke="none" stroke-width="1" fill="none" fill-rule="evenodd">
        <g id="15.8" transform="translate(-69.000000, -590.000000)">
            <g id="after" transform="translate(68.000000, 588.000000)">
                <text id="姓名" font-family="PingFangSC-Regular, PingFang SC" font-size="10" font-weight="normal" fill="#000000" fill-opacity="0.5">
                    <tspan x="2" y="67">姓名</tspan>
                </text>
                <text id="姓名复制" font-family="PingFangSC-Regular, PingFang SC" font-size="10" font-weight="normal" fill="#000000" fill-opacity="0.5">
                    <tspan x="160" y="67">姓名</tspan>
                </text>
                <text id="家长注册" font-family="PingFangSC-Regular, PingFang SC" font-size="16" font-weight="normal" fill="#63C9FE">
                    <tspan x="0" y="42">家长注册</tspan>
                </text>
                <text id="添加幼儿" font-family="PingFangSC-Regular, PingFang SC" font-size="16" font-weight="normal" fill="#63C9FE">
                    <tspan x="160" y="42">添加幼儿</tspan>
                </text>
                <text id="进入不同录取通道" font-family="PingFangSC-Regular, PingFang SC" font-size="16" font-weight="normal" fill="#63C9FE">
                    <tspan x="315" y="42">进入不同录取通道</tspan>
                </text>
                <text id="电话" font-family="PingFangSC-Regular, PingFang SC" font-size="10" font-weight="normal" fill="#000000" fill-opacity="0.5">
                    <tspan x="32" y="67">电话</tspan>
                </text>
                <text id="证件号" font-family="PingFangSC-Regular, PingFang SC" font-size="10" font-weight="normal" fill="#000000" fill-opacity="0.5">
                    <tspan x="62" y="67">证件号</tspan>
                </text>
                <text id="证件号复制" font-family="PingFangSC-Regular, PingFang SC" font-size="10" font-weight="normal" fill="#000000" fill-opacity="0.5">
                    <tspan x="196" y="67">证件号</tspan>
                </text>
                <text id="填写幼儿补充信息" font-family="PingFangSC-Regular, PingFang SC" font-size="10" font-weight="normal" fill="#000000" fill-opacity="0.5">
                    <tspan x="315" y="66">填写幼儿补充信息</tspan>
                </text>
                <path d="M2,80.465625 L440.083826,80.465625" id="直线-5" stroke-opacity="0.6" stroke="#979797" stroke-linecap="square" stroke-dasharray="1,4"></path>
                <text id="自动获取-家长户籍属性" font-family="PingFangSC-Regular, PingFang SC" font-size="12" font-weight="normal" fill="#58DDDF">
                    <tspan x="2" y="109">自动获取</tspan>
                    <tspan x="2" y="126">家长户籍属性</tspan>
                </text>
                <g id="下" transform="translate(114.000000, 113.000000) rotate(-90.000000) translate(-114.000000, -113.000000) translate(106.000000, 105.000000)" fill-rule="nonzero">
                    <rect id="矩形" fill="#000000" opacity="0" x="0" y="0" width="16" height="16"></rect>
                    <path d="M1,7.540625 L5.3390625,7.540625 L5.3390625,1.459375 L10.6609375,1.459375 L10.6609375,7.5421875 L15,7.5421875 L8,14.5421875 L1,7.540625 Z M6.1,2.21875 L6.1,8.3015625 L2.8359375,8.3015625 L8,13.465625 L13.1640625,8.3015625 L9.9,8.3015625 L9.9,2.21875 L6.1,2.21875 Z" id="形状" fill="#5DDEE0"></path>
                </g>
                <g id="下复制" transform="translate(273.000000, 113.000000) rotate(-90.000000) translate(-273.000000, -113.000000) translate(265.000000, 105.000000)" fill-rule="nonzero">
                    <rect id="矩形" fill="#000000" opacity="0" x="0" y="0" width="16" height="16"></rect>
                    <path d="M1,7.540625 L5.3390625,7.540625 L5.3390625,1.459375 L10.6609375,1.459375 L10.6609375,7.5421875 L15,7.5421875 L8,14.5421875 L1,7.540625 Z M6.1,2.21875 L6.1,8.3015625 L2.8359375,8.3015625 L8,13.465625 L13.1640625,8.3015625 L9.9,8.3015625 L9.9,2.21875 L6.1,2.21875 Z" id="形状" fill="#5DDEE0"></path>
                </g>
                <g id="下复制-2" transform="translate(347.000000, 80.000000) rotate(180.000000) translate(-347.000000, -80.000000) translate(339.000000, 72.000000)" fill-rule="nonzero">
                    <rect id="矩形" fill="#000000" opacity="0" x="0" y="0" width="16" height="16"></rect>
                    <path d="M1,7.540625 L5.3390625,7.540625 L5.3390625,1.459375 L10.6609375,1.459375 L10.6609375,7.5421875 L15,7.5421875 L8,14.5421875 L1,7.540625 Z M6.1,2.21875 L6.1,8.3015625 L2.8359375,8.3015625 L8,13.465625 L13.1640625,8.3015625 L9.9,8.3015625 L9.9,2.21875 L6.1,2.21875 Z" id="形状" fill="#5DDEE0"></path>
                </g>
                <text id="自动获取-幼儿户籍属性" font-family="PingFangSC-Regular, PingFang SC" font-size="12" font-weight="normal" fill="#58DDDF">
                    <tspan x="161" y="109">自动获取</tspan>
                    <tspan x="161" y="126">幼儿户籍属性</tspan>
                </text>
                <text id="根据政策规定-分配相关信息表单" font-family="PingFangSC-Regular, PingFang SC" font-size="12" font-weight="normal" fill="#58DDDF">
                    <tspan x="315" y="109">根据政策规定</tspan>
                    <tspan x="315" y="126">分配相关信息表单</tspan>
                </text>
                <text id="政府系统" font-family="PingFangSC-Regular, PingFang SC" font-size="10" font-weight="normal" fill="#000000" fill-opacity="0.25">
                    <tspan x="420" y="107">政府</tspan>
                    <tspan x="420" y="121">系统</tspan>
                </text>
                <text id="「政策解读」环节的转移---建设后" font-family="PingFangSC-Medium, PingFang SC" font-size="10" font-weight="400" fill="#000000" fill-opacity="0.5">
                    <tspan x="148" y="11">「政策解读」环节的转移 - 建设后</tspan>
                </text>
            </g>
        </g>
    </g>
</svg>