<?xml version="1.0" encoding="UTF-8"?>
<svg width="1555px" height="2382px" viewBox="0 0 1555 2382" version="1.1" xmlns="http://www.w3.org/2000/svg" xmlns:xlink="http://www.w3.org/1999/xlink">
    <!-- Generator: Sketch 54.1 (76490) - https://sketchapp.com -->
    <title>画板</title>
    <desc>Created with Sketch.</desc>
    <defs>
        <rect id="path-1" x="537" y="245" width="450" height="400" rx="10"></rect>
        <filter x="-4.2%" y="-4.2%" width="108.4%" height="109.5%" filterUnits="objectBoundingBox" id="filter-2">
            <feOffset dx="0" dy="2" in="SourceAlpha" result="shadowOffsetOuter1"></feOffset>
            <feGaussianBlur stdDeviation="6" in="shadowOffsetOuter1" result="shadowBlurOuter1"></feGaussianBlur>
            <feColorMatrix values="0 0 0 0 0   0 0 0 0 0   0 0 0 0 0  0 0 0 0.15 0" type="matrix" in="shadowBlurOuter1"></feColorMatrix>
        </filter>
        <rect id="path-3" x="39" y="242" width="450" height="400" rx="10"></rect>
        <filter x="-4.2%" y="-4.2%" width="108.4%" height="109.5%" filterUnits="objectBoundingBox" id="filter-4">
            <feOffset dx="0" dy="2" in="SourceAlpha" result="shadowOffsetOuter1"></feOffset>
            <feGaussianBlur stdDeviation="6" in="shadowOffsetOuter1" result="shadowBlurOuter1"></feGaussianBlur>
            <feColorMatrix values="0 0 0 0 0   0 0 0 0 0   0 0 0 0 0  0 0 0 0.15 0" type="matrix" in="shadowBlurOuter1"></feColorMatrix>
        </filter>
    </defs>
    <g id="画板" stroke="none" stroke-width="1" fill="none" fill-rule="evenodd">
        <text id="模块与功能" font-family="PingFangSC-Regular, PingFang SC" font-size="26" font-weight="normal" fill="#D5D5D5">
            <tspan x="39" y="70">模块与功能</tspan>
        </text>
        <text id="登录" font-family="PingFangSC-Regular, PingFang SC" font-size="26" font-weight="normal" fill="#797979">
            <tspan x="39" y="175">登录</tspan>
        </text>
        <text id="登录账号/忘记密码/跳转注册" font-family="PingFangSC-Regular, PingFang SC" font-size="12" font-weight="normal" fill="#797979">
            <tspan x="40" y="217">登录账号/忘记密码/跳转注册</tspan>
        </text>
        <g id="Rectangle">
            <use fill="black" fill-opacity="1" filter="url(#filter-2)" xlink:href="#path-1"></use>
            <use fill="#FFFFFF" fill-rule="evenodd" xlink:href="#path-1"></use>
        </g>
        <rect id="Rectangle" stroke-opacity="0.1" stroke="#000000" fill-opacity="0.06" fill="#000000" x="608.5" y="337.5" width="299" height="35" rx="6"></rect>
        <text id="登录名" font-family="PingFangSC-Medium, PingFang SC" font-size="18" font-weight="400" fill="#797979">
            <tspan x="608" y="327">登录名</tspan>
        </text>
        <rect id="Rectangle" stroke-opacity="0.6" stroke="#FB0A0A" fill-opacity="0.06" fill="#000000" x="608.5" y="434.5" width="299" height="35" rx="6"></rect>
        <text id="密码" font-family="PingFangSC-Medium, PingFang SC" font-size="18" font-weight="400" fill="#797979">
            <tspan x="608" y="422">密码</tspan>
        </text>
        <path d="M615.691656,500 L708.308344,500 C710.982901,500 711.952759,500.278477 712.930537,500.801398 C713.908315,501.324319 714.675681,502.091685 715.198602,503.069463 C715.721523,504.047241 716,505.017099 716,507.691656 L716,532.308344 C716,534.982901 715.721523,535.952759 715.198602,536.930537 C714.675681,537.908315 713.908315,538.675681 712.930537,539.198602 C711.952759,539.721523 710.982901,540 708.308344,540 L615.691656,540 C613.017099,540 612.047241,539.721523 611.069463,539.198602 C610.091685,538.675681 609.324319,537.908315 608.801398,536.930537 C608.278477,535.952759 608,534.982901 608,532.308344 L608,507.691656 C608,505.017099 608.278477,504.047241 608.801398,503.069463 C609.324319,502.091685 610.091685,501.324319 611.069463,500.801398 C612.047241,500.278477 613.017099,500 615.691656,500 Z" id="Rectangle-10" fill="#2DA8AE"></path>
        <text id="登录" font-family="PingFangSC-Regular, PingFang SC" font-size="16" font-weight="normal" letter-spacing="10" fill="#FFFFFF">
            <tspan x="639" y="526">登</tspan>
            <tspan x="665" y="526">录</tspan>
        </text>
        <text id="忘记密码" font-family="PingFangSC-Regular, PingFang SC" font-size="14" font-weight="normal" fill="#2DA8AE">
            <tspan x="744" y="526">忘记密码</tspan>
        </text>
        <text id="还没有账号？注册账号" font-family="PingFangSC-Regular, PingFang SC" font-size="14" font-weight="normal">
            <tspan x="608" y="595" fill="#000000" fill-opacity="0.6">还没有账号？</tspan>
            <tspan x="692" y="595" fill="#2DA8AE">注册账号</tspan>
        </text>
        <g id="Rectangle">
            <use fill="black" fill-opacity="1" filter="url(#filter-4)" xlink:href="#path-3"></use>
            <use fill="#FFFFFF" fill-rule="evenodd" xlink:href="#path-3"></use>
        </g>
        <rect id="Rectangle" stroke-opacity="0.1" stroke="#000000" fill-opacity="0.06" fill="#000000" x="110.5" y="334.5" width="299" height="35" rx="6"></rect>
        <text id="登录名" font-family="PingFangSC-Medium, PingFang SC" font-size="18" font-weight="400" fill="#797979">
            <tspan x="110" y="324">登录名</tspan>
        </text>
        <rect id="Rectangle" stroke-opacity="0.1" stroke="#000000" fill-opacity="0.06" fill="#000000" x="110.5" y="431.5" width="299" height="35" rx="6"></rect>
        <text id="密码" font-family="PingFangSC-Medium, PingFang SC" font-size="18" font-weight="400" fill="#797979">
            <tspan x="110" y="419">密码</tspan>
        </text>
        <g id="查看" transform="translate(380.000000, 442.000000)" fill-rule="nonzero">
            <rect id="Rectangle" fill="#1890FF" opacity="0" x="0" y="0" width="16" height="16"></rect>
            <path d="M8,3.7143 C3.7143,3.7143 2,8 2,8 C2,8 3.7143,12.2858 8,12.2858 C12.2857,12.2858 14,8 14,8 C14,8 12.2857,3.7143 8,3.7143 L8,3.7143 Z M8,10.5715 C6.5804,10.5715 5.4286,9.4205 5.4286,8 C5.4286,6.5796 6.5804,5.4286 8,5.4286 C9.4196,5.4286 10.5714,6.5795 10.5714,8 C10.5714,9.4205 9.4196,10.5715 8,10.5715 L8,10.5715 Z M9.2856,8 C9.2856,8.7098 8.7098,9.2858 8,9.2858 C7.2902,9.2858 6.7144,8.7098 6.7144,8 C6.7144,7.2902 7.2902,6.7144 8,6.7144 C8.7099,6.7142 9.2856,7.2901 9.2856,8 L9.2856,8 Z" id="Shape" fill="#2DA8AE"></path>
        </g>
        <path d="M117.691656,497 L210.308344,497 C212.982901,497 213.952759,497.278477 214.930537,497.801398 C215.908315,498.324319 216.675681,499.091685 217.198602,500.069463 C217.721523,501.047241 218,502.017099 218,504.691656 L218,529.308344 C218,531.982901 217.721523,532.952759 217.198602,533.930537 C216.675681,534.908315 215.908315,535.675681 214.930537,536.198602 C213.952759,536.721523 212.982901,537 210.308344,537 L117.691656,537 C115.017099,537 114.047241,536.721523 113.069463,536.198602 C112.091685,535.675681 111.324319,534.908315 110.801398,533.930537 C110.278477,532.952759 110,531.982901 110,529.308344 L110,504.691656 C110,502.017099 110.278477,501.047241 110.801398,500.069463 C111.324319,499.091685 112.091685,498.324319 113.069463,497.801398 C114.047241,497.278477 115.017099,497 117.691656,497 Z" id="Rectangle-10" fill="#2DA8AE"></path>
        <text id="登录" font-family="PingFangSC-Regular, PingFang SC" font-size="16" font-weight="normal" letter-spacing="10" fill="#FFFFFF">
            <tspan x="141" y="523">登</tspan>
            <tspan x="167" y="523">录</tspan>
        </text>
        <text id="忘记密码" font-family="PingFangSC-Regular, PingFang SC" font-size="14" font-weight="normal" fill="#2DA8AE">
            <tspan x="246" y="523">忘记密码</tspan>
        </text>
        <text id="还没有账号？注册账号" font-family="PingFangSC-Regular, PingFang SC" font-size="14" font-weight="normal">
            <tspan x="110" y="592" fill="#000000" fill-opacity="0.6">还没有账号？</tspan>
            <tspan x="194" y="592" fill="#2DA8AE">注册账号</tspan>
        </text>
        <text id="表单" font-family="PingFangSC-Regular, PingFang SC" font-size="26" font-weight="normal" fill="#797979">
            <tspan x="33" y="738">表单</tspan>
        </text>
        <text id="展示表格（表头、内容、选择框、按钮）" font-family="PingFangSC-Regular, PingFang SC" font-size="12" font-weight="normal" fill="#797979">
            <tspan x="34" y="780">展示表格（表头、内容、选择框、按钮）</tspan>
        </text>
        <rect id="Rectangle" fill-opacity="0.02" fill="#000000" x="33" y="851" width="875" height="53"></rect>
        <path d="M34,853.5 L904,853.5" id="Line" stroke-opacity="0.06" stroke="#000000" stroke-width="2" stroke-linecap="square"></path>
        <path d="M34,902.5 L904,902.5" id="Line-Copy" stroke-opacity="0.06" stroke="#000000" stroke-width="2" stroke-linecap="square"></path>
        <rect id="Rectangle" stroke="#979797" fill="#FFFFFF" x="53.5" y="874.5" width="11" height="11" rx="4"></rect>
        <text id="字段内容" font-family="PingFangSC-Medium, PingFang SC" font-size="14" font-weight="400" fill="#000000" fill-opacity="0.4">
            <tspan x="98" y="884">字段内容</tspan>
        </text>
        <text id="字段属性" font-family="PingFangSC-Medium, PingFang SC" font-size="14" font-weight="400" fill="#000000" fill-opacity="0.4">
            <tspan x="328" y="884">字段属性</tspan>
        </text>
        <text id="数据量" font-family="PingFangSC-Medium, PingFang SC" font-size="14" font-weight="400" fill="#000000" fill-opacity="0.4">
            <tspan x="533" y="884">数据量</tspan>
        </text>
        <text id="相关操作" font-family="PingFangSC-Medium, PingFang SC" font-size="14" font-weight="400" fill="#000000" fill-opacity="0.4">
            <tspan x="782" y="884">相关操作</tspan>
        </text>
        <g id="row1" transform="translate(33.000000, 903.000000)">
            <rect id="Rectangle" fill="#FFFFFF" x="0" y="0" width="871" height="60"></rect>
            <path d="M1,60 L874.546405,60" id="Line-2" stroke-opacity="0.06" stroke="#000000" stroke-linecap="square"></path>
            <rect id="Rectangle" stroke="#979797" fill="#FFFFFF" x="20.5" y="24.5" width="11" height="11" rx="4"></rect>
            <text id="江苏省2019年的农村教育-总投入" font-family="PingFangSC-Regular, PingFang SC" font-size="14" font-weight="normal" line-spacing="22" fill="#000000" fill-opacity="0.4">
                <tspan x="62" y="23">江苏省2019年的农村教育</tspan>
                <tspan x="62" y="45">总投入</tspan>
            </text>
            <text id="教育财政" font-family="PingFangSC-Regular, PingFang SC" font-size="14" font-weight="normal" fill="#000000" fill-opacity="0.4">
                <tspan x="295" y="34">教育财政</tspan>
            </text>
            <text id="2,000" font-family="PingFangSC-Regular, PingFang SC" font-size="14" font-weight="normal" fill="#000000" fill-opacity="0.4">
                <tspan x="504.704" y="34">2,000</tspan>
            </text>
            <text id="查看" font-family="PingFangSC-Regular, PingFang SC" font-size="14" font-weight="normal" fill="#2DA8AE">
                <tspan x="749" y="34">查看</tspan>
            </text>
            <text id="删除" font-family="PingFangSC-Regular, PingFang SC" font-size="14" font-weight="normal" fill="#F5222C">
                <tspan x="812" y="34">删除</tspan>
            </text>
        </g>
        <g id="row1" transform="translate(33.000000, 964.000000)">
            <rect id="Rectangle" fill="#FFFFFF" x="0" y="0" width="871" height="60"></rect>
            <path d="M1,60 L874.546405,60" id="Line-2" stroke-opacity="0.06" stroke="#000000" stroke-linecap="square"></path>
            <rect id="Rectangle" stroke="#979797" fill="#FFFFFF" x="20.5" y="24.5" width="11" height="11" rx="4"></rect>
            <text id="国家关于农村土地政策" font-family="PingFangSC-Regular, PingFang SC" font-size="14" font-weight="normal" line-spacing="22" fill="#000000" fill-opacity="0.4">
                <tspan x="62" y="33">国家关于农村土地政策</tspan>
            </text>
            <text id="土地政策" font-family="PingFangSC-Regular, PingFang SC" font-size="14" font-weight="normal" fill="#000000" fill-opacity="0.4">
                <tspan x="295" y="34">土地政策</tspan>
            </text>
            <text id="12,000" font-family="PingFangSC-Regular, PingFang SC" font-size="14" font-weight="normal" fill="#000000" fill-opacity="0.4">
                <tspan x="499.09" y="34">12,000</tspan>
            </text>
            <text id="查看" font-family="PingFangSC-Regular, PingFang SC" font-size="14" font-weight="normal" fill="#2DA8AE">
                <tspan x="749" y="34">查看</tspan>
            </text>
            <text id="删除" font-family="PingFangSC-Regular, PingFang SC" font-size="14" font-weight="normal" fill="#F5222C">
                <tspan x="812" y="34">删除</tspan>
            </text>
        </g>
        <g id="row1" transform="translate(33.000000, 1025.000000)">
            <rect id="Rectangle" fill="#FFFFFF" x="0" y="0" width="871" height="60"></rect>
            <path d="M1,60 L874.546405,60" id="Line-2" stroke-opacity="0.06" stroke="#000000" stroke-linecap="square"></path>
            <rect id="Rectangle" stroke="#979797" fill="#FFFFFF" x="20.5" y="24.5" width="11" height="11" rx="4"></rect>
            <text id="国家关于农村土地政策" font-family="PingFangSC-Regular, PingFang SC" font-size="14" font-weight="normal" line-spacing="22" fill="#000000" fill-opacity="0.4">
                <tspan x="62" y="33">国家关于农村土地政策</tspan>
            </text>
            <text id="土地政策" font-family="PingFangSC-Regular, PingFang SC" font-size="14" font-weight="normal" fill="#000000" fill-opacity="0.4">
                <tspan x="295" y="34">土地政策</tspan>
            </text>
            <text id="12,000" font-family="PingFangSC-Regular, PingFang SC" font-size="14" font-weight="normal" fill="#000000" fill-opacity="0.4">
                <tspan x="499.09" y="34">12,000</tspan>
            </text>
            <text id="查看" font-family="PingFangSC-Regular, PingFang SC" font-size="14" font-weight="normal" fill="#2DA8AE">
                <tspan x="749" y="34">查看</tspan>
            </text>
            <text id="删除" font-family="PingFangSC-Regular, PingFang SC" font-size="14" font-weight="normal" fill="#F5222C">
                <tspan x="812" y="34">删除</tspan>
            </text>
        </g>
        <path d="M832.409713,812 L895.590287,812 C897.819084,812 898.627299,812.232064 899.442114,812.667832 C900.256929,813.103599 900.896401,813.743071 901.332168,814.557886 C901.767936,815.372701 902,816.180916 902,818.409713 L902,833.590287 C902,835.819084 901.767936,836.627299 901.332168,837.442114 C900.896401,838.256929 900.256929,838.896401 899.442114,839.332168 C898.627299,839.767936 897.819084,840 895.590287,840 L832.409713,840 C830.180916,840 829.372701,839.767936 828.557886,839.332168 C827.743071,838.896401 827.103599,838.256929 826.667832,837.442114 C826.232064,836.627299 826,835.819084 826,833.590287 L826,818.409713 C826,816.180916 826.232064,815.372701 826.667832,814.557886 C827.103599,813.743071 827.743071,813.103599 828.557886,812.667832 C829.372701,812.232064 830.180916,812 832.409713,812 Z" id="Rectangle-10" fill="#2DA8AE"></path>
        <text id="全部通过" font-family="PingFangSC-Regular, PingFang SC" font-size="12" font-weight="normal" fill="#FFFFFF">
            <tspan x="841" y="830">全部通过</tspan>
        </text>
        <text id="筛选表格" font-family="PingFangSC-Regular, PingFang SC" font-size="12" font-weight="normal" fill="#797979">
            <tspan x="43" y="1169">筛选表格</tspan>
        </text>
        <path d="M44,1432.5 L914,1432.5" id="Line" stroke-opacity="0.06" stroke="#000000" stroke-width="2" stroke-linecap="square"></path>
        <path d="M44,1481.5 L914,1481.5" id="Line-Copy" stroke-opacity="0.06" stroke="#000000" stroke-width="2" stroke-linecap="square"></path>
        <path d="M44,1182.5 L914,1182.5" id="Line-Copy-2" stroke-opacity="0.06" stroke="#000000" stroke-width="2" stroke-linecap="square"></path>
        <path d="M44,1365.5 L914,1365.5" id="Line-Copy-3" stroke-opacity="0.06" stroke="#000000" stroke-width="2" stroke-linecap="square"></path>
        <rect id="Rectangle" fill-opacity="0.02" fill="#000000" x="39" y="1431" width="875" height="53"></rect>
        <rect id="Rectangle" stroke="#979797" fill="#FFFFFF" x="63.5" y="1453.5" width="11" height="11" rx="4"></rect>
        <text id="字段内容" font-family="PingFangSC-Medium, PingFang SC" font-size="14" font-weight="400" fill="#000000" fill-opacity="0.4">
            <tspan x="108" y="1463">字段内容</tspan>
        </text>
        <text id="字段属性" font-family="PingFangSC-Medium, PingFang SC" font-size="14" font-weight="400" fill="#000000" fill-opacity="0.4">
            <tspan x="338" y="1463">字段属性</tspan>
        </text>
        <text id="数据量" font-family="PingFangSC-Medium, PingFang SC" font-size="14" font-weight="400" fill="#000000" fill-opacity="0.4">
            <tspan x="543" y="1463">数据量</tspan>
        </text>
        <text id="相关操作" font-family="PingFangSC-Medium, PingFang SC" font-size="14" font-weight="400" fill="#000000" fill-opacity="0.4">
            <tspan x="792" y="1463">相关操作</tspan>
        </text>
        <g id="row1" transform="translate(43.000000, 1482.000000)">
            <rect id="Rectangle" fill="#FFFFFF" x="0" y="0" width="871" height="60"></rect>
            <path d="M1,60 L874.546405,60" id="Line-2" stroke-opacity="0.06" stroke="#000000" stroke-linecap="square"></path>
            <rect id="Rectangle" stroke="#979797" fill="#FFFFFF" x="20.5" y="24.5" width="11" height="11" rx="4"></rect>
            <text id="江苏省2019年的农村教育-总投入" font-family="PingFangSC-Regular, PingFang SC" font-size="14" font-weight="normal" line-spacing="22" fill="#000000" fill-opacity="0.4">
                <tspan x="62" y="23">江苏省2019年的农村教育</tspan>
                <tspan x="62" y="45">总投入</tspan>
            </text>
            <text id="教育财政" font-family="PingFangSC-Regular, PingFang SC" font-size="14" font-weight="normal" fill="#000000" fill-opacity="0.4">
                <tspan x="295" y="34">教育财政</tspan>
            </text>
            <text id="2,000" font-family="PingFangSC-Regular, PingFang SC" font-size="14" font-weight="normal" fill="#000000" fill-opacity="0.4">
                <tspan x="504.704" y="34">2,000</tspan>
            </text>
            <text id="查看" font-family="PingFangSC-Regular, PingFang SC" font-size="14" font-weight="normal" fill="#2DA8AE">
                <tspan x="749" y="34">查看</tspan>
            </text>
            <text id="删除" font-family="PingFangSC-Regular, PingFang SC" font-size="14" font-weight="normal" fill="#F5222C">
                <tspan x="812" y="34">删除</tspan>
            </text>
        </g>
        <g id="row1" transform="translate(43.000000, 1543.000000)">
            <rect id="Rectangle" fill="#FFFFFF" x="0" y="0" width="871" height="60"></rect>
            <path d="M1,60 L874.546405,60" id="Line-2" stroke-opacity="0.06" stroke="#000000" stroke-linecap="square"></path>
            <rect id="Rectangle" stroke="#979797" fill="#FFFFFF" x="20.5" y="24.5" width="11" height="11" rx="4"></rect>
            <text id="国家关于农村土地政策" font-family="PingFangSC-Regular, PingFang SC" font-size="14" font-weight="normal" line-spacing="22" fill="#000000" fill-opacity="0.4">
                <tspan x="62" y="33">国家关于农村土地政策</tspan>
            </text>
            <text id="土地政策" font-family="PingFangSC-Regular, PingFang SC" font-size="14" font-weight="normal" fill="#000000" fill-opacity="0.4">
                <tspan x="295" y="34">土地政策</tspan>
            </text>
            <text id="12,000" font-family="PingFangSC-Regular, PingFang SC" font-size="14" font-weight="normal" fill="#000000" fill-opacity="0.4">
                <tspan x="499.09" y="34">12,000</tspan>
            </text>
            <text id="查看" font-family="PingFangSC-Regular, PingFang SC" font-size="14" font-weight="normal" fill="#2DA8AE">
                <tspan x="749" y="34">查看</tspan>
            </text>
            <text id="删除" font-family="PingFangSC-Regular, PingFang SC" font-size="14" font-weight="normal" fill="#F5222C">
                <tspan x="812" y="34">删除</tspan>
            </text>
        </g>
        <g id="row1" transform="translate(43.000000, 1604.000000)">
            <rect id="Rectangle" fill="#FFFFFF" x="0" y="0" width="871" height="60"></rect>
            <path d="M1,60 L874.546405,60" id="Line-2" stroke-opacity="0.06" stroke="#000000" stroke-linecap="square"></path>
            <rect id="Rectangle" stroke="#979797" fill="#FFFFFF" x="20.5" y="24.5" width="11" height="11" rx="4"></rect>
            <text id="国家关于农村土地政策" font-family="PingFangSC-Regular, PingFang SC" font-size="14" font-weight="normal" line-spacing="22" fill="#000000" fill-opacity="0.4">
                <tspan x="62" y="33">国家关于农村土地政策</tspan>
            </text>
            <text id="土地政策" font-family="PingFangSC-Regular, PingFang SC" font-size="14" font-weight="normal" fill="#000000" fill-opacity="0.4">
                <tspan x="295" y="34">土地政策</tspan>
            </text>
            <text id="12,000" font-family="PingFangSC-Regular, PingFang SC" font-size="14" font-weight="normal" fill="#000000" fill-opacity="0.4">
                <tspan x="499.09" y="34">12,000</tspan>
            </text>
            <text id="查看" font-family="PingFangSC-Regular, PingFang SC" font-size="14" font-weight="normal" fill="#2DA8AE">
                <tspan x="749" y="34">查看</tspan>
            </text>
            <text id="删除" font-family="PingFangSC-Regular, PingFang SC" font-size="14" font-weight="normal" fill="#F5222C">
                <tspan x="812" y="34">删除</tspan>
            </text>
        </g>
        <path d="M756.409713,1324.5 C754.453154,1324.5 753.637357,1324.65754 752.793685,1325.10874 C752.066005,1325.49791 751.497906,1326.066 751.108738,1326.79369 C750.657538,1327.63736 750.5,1328.45315 750.5,1330.40971 L750.5,1345.59029 C750.5,1347.54685 750.657538,1348.36264 751.108738,1349.20631 C751.497906,1349.934 752.066005,1350.50209 752.793685,1350.89126 C753.637357,1351.34246 754.453154,1351.5 756.409713,1351.5 L819.590287,1351.5 C821.546846,1351.5 822.362643,1351.34246 823.206315,1350.89126 C823.933995,1350.50209 824.502094,1349.934 824.891262,1349.20631 C825.342462,1348.36264 825.5,1347.54685 825.5,1345.59029 L825.5,1330.40971 C825.5,1328.45315 825.342462,1327.63736 824.891262,1326.79369 C824.502094,1326.066 823.933995,1325.49791 823.206315,1325.10874 C822.362643,1324.65754 821.546846,1324.5 819.590287,1324.5 L756.409713,1324.5 Z" id="Rectangle-10" stroke="#2DA8AE"></path>
        <text id="重置" font-family="PingFangSC-Regular, PingFang SC" font-size="12" font-weight="normal" letter-spacing="5" fill="#2DA8AE">
            <tspan x="773" y="1342">重置</tspan>
        </text>
        <path d="M844.409713,1324.5 C842.453154,1324.5 841.637357,1324.65754 840.793685,1325.10874 C840.066005,1325.49791 839.497906,1326.066 839.108738,1326.79369 C838.657538,1327.63736 838.5,1328.45315 838.5,1330.40971 L838.5,1345.59029 C838.5,1347.54685 838.657538,1348.36264 839.108738,1349.20631 C839.497906,1349.934 840.066005,1350.50209 840.793685,1350.89126 C841.637357,1351.34246 842.453154,1351.5 844.409713,1351.5 L907.590287,1351.5 C909.546846,1351.5 910.362643,1351.34246 911.206315,1350.89126 C911.933995,1350.50209 912.502094,1349.934 912.891262,1349.20631 C913.342462,1348.36264 913.5,1347.54685 913.5,1345.59029 L913.5,1330.40971 C913.5,1328.45315 913.342462,1327.63736 912.891262,1326.79369 C912.502094,1326.066 911.933995,1325.49791 911.206315,1325.10874 C910.362643,1324.65754 909.546846,1324.5 907.590287,1324.5 L844.409713,1324.5 Z" id="Rectangle-10" stroke="#2DA8AE" fill="#2DA8AE"></path>
        <text id="确定" font-family="PingFangSC-Regular, PingFang SC" font-size="12" font-weight="normal" letter-spacing="5" fill="#FFFFFF">
            <tspan x="861" y="1342">确定</tspan>
        </text>
        <text id="字段属性" font-family="PingFangSC-Medium, PingFang SC" font-size="14" font-weight="400" fill="#000000" fill-opacity="0.4">
            <tspan x="44" y="1297">字段属性</tspan>
        </text>
        <rect id="Rectangle" fill="#2DA8AE" x="114" y="1280" width="72" height="26" rx="4"></rect>
        <text id="教育财政" font-family="PingFangSC-Regular, PingFang SC" font-size="14" font-weight="normal" fill="#FFFFFF">
            <tspan x="122" y="1297">教育财政</tspan>
        </text>
        <rect id="Rectangle" fill="#2DA8AE" x="202" y="1280" width="72" height="26" rx="4"></rect>
        <text id="土地政策" font-family="PingFangSC-Regular, PingFang SC" font-size="14" font-weight="normal" fill="#FFFFFF">
            <tspan x="210" y="1297">土地政策</tspan>
        </text>
        <text id="人口政策" font-family="PingFangSC-Regular, PingFang SC" font-size="14" font-weight="normal" fill="#000000" fill-opacity="0.6">
            <tspan x="298" y="1297">人口政策</tspan>
        </text>
        <text id="医疗投入" font-family="PingFangSC-Regular, PingFang SC" font-size="14" font-weight="normal" fill="#000000" fill-opacity="0.6">
            <tspan x="386" y="1297">医疗投入</tspan>
        </text>
        <text id="字段状态" font-family="PingFangSC-Medium, PingFang SC" font-size="14" font-weight="400" fill="#000000" fill-opacity="0.4">
            <tspan x="44" y="1259">字段状态</tspan>
        </text>
        <rect id="Rectangle" fill="#2DA8AE" x="114" y="1242" width="72" height="26" rx="4"></rect>
        <text id="教育财政" font-family="PingFangSC-Regular, PingFang SC" font-size="14" font-weight="normal" fill="#FFFFFF">
            <tspan x="122" y="1259">教育财政</tspan>
        </text>
        <rect id="Rectangle" fill="#2DA8AE" x="202" y="1242" width="72" height="26" rx="4"></rect>
        <text id="土地政策" font-family="PingFangSC-Regular, PingFang SC" font-size="14" font-weight="normal" fill="#FFFFFF">
            <tspan x="210" y="1259">土地政策</tspan>
        </text>
        <text id="人口政策" font-family="PingFangSC-Regular, PingFang SC" font-size="14" font-weight="normal" fill="#000000" fill-opacity="0.6">
            <tspan x="298" y="1259">人口政策</tspan>
        </text>
        <text id="医疗投入" font-family="PingFangSC-Regular, PingFang SC" font-size="14" font-weight="normal" fill="#000000" fill-opacity="0.6">
            <tspan x="386" y="1259">医疗投入</tspan>
        </text>
        <text id="内容筛选" font-family="PingFangSC-Regular, PingFang SC" font-size="16" font-weight="normal" fill="#000000" fill-opacity="0.6">
            <tspan x="45" y="1214">内容筛选</tspan>
        </text>
        <rect id="Rectangle" stroke-opacity="0.2" stroke="#000000" x="44.5" y="1381.5" width="215" height="35" rx="6"></rect>
        <text id="删除" font-family="PingFangSC-Regular, PingFang SC" font-size="14" font-weight="normal" fill="#000000" fill-opacity="0.6">
            <tspan x="66" y="1404">删除</tspan>
        </text>
        <text id="重置" font-family="PingFangSC-Regular, PingFang SC" font-size="14" font-weight="normal" fill="#000000" fill-opacity="0.6">
            <tspan x="139" y="1404">重置</tspan>
        </text>
        <text id="标记" font-family="PingFangSC-Regular, PingFang SC" font-size="14" font-weight="normal" fill="#000000" fill-opacity="0.6">
            <tspan x="210" y="1404">标记</tspan>
        </text>
        <path d="M117.5,1382 L117.5,1416" id="Line-3" stroke-opacity="0.2" stroke="#000000" stroke-linecap="square"></path>
        <path d="M189.5,1382 L189.5,1416" id="Line-3-Copy" stroke-opacity="0.2" stroke="#000000" stroke-linecap="square"></path>
        <text id="筛选表格" font-family="PingFangSC-Regular, PingFang SC" font-size="12" font-weight="normal" fill="#797979">
            <tspan x="49" y="1748">筛选表格</tspan>
        </text>
        <path d="M50,2021.5 L920,2021.5" id="Line" stroke-opacity="0.06" stroke="#000000" stroke-width="2" stroke-linecap="square"></path>
        <path d="M50,2070.5 L920,2070.5" id="Line-Copy" stroke-opacity="0.06" stroke="#000000" stroke-width="2" stroke-linecap="square"></path>
        <path d="M50,1761.5 L920,1761.5" id="Line-Copy-2" stroke-opacity="0.06" stroke="#000000" stroke-width="2" stroke-linecap="square"></path>
        <path d="M50,1954.5 L920,1954.5" id="Line-Copy-3" stroke-opacity="0.06" stroke="#000000" stroke-width="2" stroke-linecap="square"></path>
        <rect id="Rectangle" fill-opacity="0.02" fill="#000000" x="45" y="2021" width="875" height="50"></rect>
        <rect id="Rectangle" stroke="#979797" fill="#FFFFFF" x="69.5" y="2042.5" width="11" height="11" rx="4"></rect>
        <text id="字段内容" font-family="PingFangSC-Medium, PingFang SC" font-size="14" font-weight="400" fill="#000000" fill-opacity="0.4">
            <tspan x="114" y="2052">字段内容</tspan>
        </text>
        <text id="字段属性" font-family="PingFangSC-Medium, PingFang SC" font-size="14" font-weight="400" fill="#000000" fill-opacity="0.4">
            <tspan x="344" y="2052">字段属性</tspan>
        </text>
        <text id="数据量" font-family="PingFangSC-Medium, PingFang SC" font-size="14" font-weight="400" fill="#000000" fill-opacity="0.4">
            <tspan x="549" y="2052">数据量</tspan>
        </text>
        <text id="相关操作" font-family="PingFangSC-Medium, PingFang SC" font-size="14" font-weight="400" fill="#000000" fill-opacity="0.4">
            <tspan x="798" y="2052">相关操作</tspan>
        </text>
        <g id="row1" transform="translate(49.000000, 2071.000000)">
            <rect id="Rectangle" fill="#FFFFFF" x="0" y="0" width="871" height="60"></rect>
            <path d="M1,60 L874.546405,60" id="Line-2" stroke-opacity="0.06" stroke="#000000" stroke-linecap="square"></path>
            <rect id="Rectangle" stroke="#979797" fill="#FFFFFF" x="20.5" y="24.5" width="11" height="11" rx="4"></rect>
            <text id="江苏省2019年的农村教育-总投入" font-family="PingFangSC-Regular, PingFang SC" font-size="14" font-weight="normal" line-spacing="22" fill="#000000" fill-opacity="0.4">
                <tspan x="62" y="23">江苏省2019年的农村教育</tspan>
                <tspan x="62" y="45">总投入</tspan>
            </text>
            <text id="教育财政" font-family="PingFangSC-Regular, PingFang SC" font-size="14" font-weight="normal" fill="#000000" fill-opacity="0.4">
                <tspan x="295" y="34">教育财政</tspan>
            </text>
            <text id="2,000" font-family="PingFangSC-Regular, PingFang SC" font-size="14" font-weight="normal" fill="#000000" fill-opacity="0.4">
                <tspan x="504.704" y="34">2,000</tspan>
            </text>
            <text id="查看" font-family="PingFangSC-Regular, PingFang SC" font-size="14" font-weight="normal" fill="#2DA8AE">
                <tspan x="749" y="34">查看</tspan>
            </text>
            <text id="删除" font-family="PingFangSC-Regular, PingFang SC" font-size="14" font-weight="normal" fill="#F5222C">
                <tspan x="812" y="34">删除</tspan>
            </text>
        </g>
        <g id="row1" transform="translate(49.000000, 2132.000000)">
            <rect id="Rectangle" fill="#FFFFFF" x="0" y="0" width="871" height="60"></rect>
            <path d="M1,60 L874.546405,60" id="Line-2" stroke-opacity="0.06" stroke="#000000" stroke-linecap="square"></path>
            <rect id="Rectangle" stroke="#979797" fill="#FFFFFF" x="20.5" y="24.5" width="11" height="11" rx="4"></rect>
            <text id="国家关于农村土地政策" font-family="PingFangSC-Regular, PingFang SC" font-size="14" font-weight="normal" line-spacing="22" fill="#000000" fill-opacity="0.4">
                <tspan x="62" y="33">国家关于农村土地政策</tspan>
            </text>
            <text id="土地政策" font-family="PingFangSC-Regular, PingFang SC" font-size="14" font-weight="normal" fill="#000000" fill-opacity="0.4">
                <tspan x="295" y="34">土地政策</tspan>
            </text>
            <text id="12,000" font-family="PingFangSC-Regular, PingFang SC" font-size="14" font-weight="normal" fill="#000000" fill-opacity="0.4">
                <tspan x="499.09" y="34">12,000</tspan>
            </text>
            <text id="查看" font-family="PingFangSC-Regular, PingFang SC" font-size="14" font-weight="normal" fill="#2DA8AE">
                <tspan x="749" y="34">查看</tspan>
            </text>
            <text id="删除" font-family="PingFangSC-Regular, PingFang SC" font-size="14" font-weight="normal" fill="#F5222C">
                <tspan x="812" y="34">删除</tspan>
            </text>
        </g>
        <g id="row1" transform="translate(49.000000, 2193.000000)">
            <rect id="Rectangle" fill="#FFFFFF" x="0" y="0" width="871" height="60"></rect>
            <path d="M1,60 L874.546405,60" id="Line-2" stroke-opacity="0.06" stroke="#000000" stroke-linecap="square"></path>
            <rect id="Rectangle" stroke="#979797" fill="#FFFFFF" x="20.5" y="24.5" width="11" height="11" rx="4"></rect>
            <text id="国家关于农村土地政策" font-family="PingFangSC-Regular, PingFang SC" font-size="14" font-weight="normal" line-spacing="22" fill="#000000" fill-opacity="0.4">
                <tspan x="62" y="33">国家关于农村土地政策</tspan>
            </text>
            <text id="土地政策" font-family="PingFangSC-Regular, PingFang SC" font-size="14" font-weight="normal" fill="#000000" fill-opacity="0.4">
                <tspan x="295" y="34">土地政策</tspan>
            </text>
            <text id="12,000" font-family="PingFangSC-Regular, PingFang SC" font-size="14" font-weight="normal" fill="#000000" fill-opacity="0.4">
                <tspan x="499.09" y="34">12,000</tspan>
            </text>
            <text id="查看" font-family="PingFangSC-Regular, PingFang SC" font-size="14" font-weight="normal" fill="#2DA8AE">
                <tspan x="749" y="34">查看</tspan>
            </text>
            <text id="删除" font-family="PingFangSC-Regular, PingFang SC" font-size="14" font-weight="normal" fill="#F5222C">
                <tspan x="812" y="34">删除</tspan>
            </text>
        </g>
        <path d="M762.409713,1913.5 C760.453154,1913.5 759.637357,1913.65754 758.793685,1914.10874 C758.066005,1914.49791 757.497906,1915.066 757.108738,1915.79369 C756.657538,1916.63736 756.5,1917.45315 756.5,1919.40971 L756.5,1934.59029 C756.5,1936.54685 756.657538,1937.36264 757.108738,1938.20631 C757.497906,1938.934 758.066005,1939.50209 758.793685,1939.89126 C759.637357,1940.34246 760.453154,1940.5 762.409713,1940.5 L825.590287,1940.5 C827.546846,1940.5 828.362643,1940.34246 829.206315,1939.89126 C829.933995,1939.50209 830.502094,1938.934 830.891262,1938.20631 C831.342462,1937.36264 831.5,1936.54685 831.5,1934.59029 L831.5,1919.40971 C831.5,1917.45315 831.342462,1916.63736 830.891262,1915.79369 C830.502094,1915.066 829.933995,1914.49791 829.206315,1914.10874 C828.362643,1913.65754 827.546846,1913.5 825.590287,1913.5 L762.409713,1913.5 Z" id="Rectangle-10" stroke="#2DA8AE"></path>
        <text id="重置" font-family="PingFangSC-Regular, PingFang SC" font-size="12" font-weight="normal" letter-spacing="5" fill="#2DA8AE">
            <tspan x="779" y="1931">重置</tspan>
        </text>
        <path d="M850.409713,1913.5 C848.453154,1913.5 847.637357,1913.65754 846.793685,1914.10874 C846.066005,1914.49791 845.497906,1915.066 845.108738,1915.79369 C844.657538,1916.63736 844.5,1917.45315 844.5,1919.40971 L844.5,1934.59029 C844.5,1936.54685 844.657538,1937.36264 845.108738,1938.20631 C845.497906,1938.934 846.066005,1939.50209 846.793685,1939.89126 C847.637357,1940.34246 848.453154,1940.5 850.409713,1940.5 L913.590287,1940.5 C915.546846,1940.5 916.362643,1940.34246 917.206315,1939.89126 C917.933995,1939.50209 918.502094,1938.934 918.891262,1938.20631 C919.342462,1937.36264 919.5,1936.54685 919.5,1934.59029 L919.5,1919.40971 C919.5,1917.45315 919.342462,1916.63736 918.891262,1915.79369 C918.502094,1915.066 917.933995,1914.49791 917.206315,1914.10874 C916.362643,1913.65754 915.546846,1913.5 913.590287,1913.5 L850.409713,1913.5 Z" id="Rectangle-10" stroke="#2DA8AE" fill="#2DA8AE"></path>
        <text id="确定" font-family="PingFangSC-Regular, PingFang SC" font-size="12" font-weight="normal" letter-spacing="5" fill="#FFFFFF">
            <tspan x="867" y="1931">确定</tspan>
        </text>
        <text id="字段内容" font-family="PingFangSC-Medium, PingFang SC" font-size="14" font-weight="400" fill="#000000" fill-opacity="0.4">
            <tspan x="50" y="1834">字段内容</tspan>
        </text>
        <text id="内容筛选" font-family="PingFangSC-Regular, PingFang SC" font-size="16" font-weight="normal" fill="#000000" fill-opacity="0.6">
            <tspan x="50" y="1791">内容筛选</tspan>
        </text>
        <rect id="Rectangle" stroke-opacity="0.2" stroke="#000000" x="50.5" y="1970.5" width="215" height="35" rx="6"></rect>
        <text id="删除" font-family="PingFangSC-Regular, PingFang SC" font-size="14" font-weight="normal" fill="#000000" fill-opacity="0.6">
            <tspan x="73" y="1993">删除</tspan>
        </text>
        <text id="重置" font-family="PingFangSC-Regular, PingFang SC" font-size="14" font-weight="normal" fill="#000000" fill-opacity="0.6">
            <tspan x="145" y="1993">重置</tspan>
        </text>
        <text id="标记" font-family="PingFangSC-Regular, PingFang SC" font-size="14" font-weight="normal" fill="#000000" fill-opacity="0.6">
            <tspan x="216" y="1993">标记</tspan>
        </text>
        <path d="M123,1971 L123,2005" id="Line-3" stroke-opacity="0.2" stroke="#000000" stroke-linecap="square"></path>
        <path d="M195,1971 L195,2005" id="Line-3-Copy" stroke-opacity="0.2" stroke="#000000" stroke-linecap="square"></path>
        <rect id="Rectangle" stroke="#9B9B9B" fill="#FFFFFF" x="120.5" y="1811.5" width="166" height="35" rx="6"></rect>
        <g id="Group" transform="translate(51.000000, 1859.000000)">
            <rect id="Rectangle" stroke="#9B9B9B" fill="#FFFFFF" x="69.5" y="0.5" width="166" height="35" rx="6"></rect>
            <text id="字段属性" font-family="PingFangSC-Medium, PingFang SC" font-size="14" font-weight="400" fill="#000000" fill-opacity="0.4">
                <tspan x="0" y="23">字段属性</tspan>
            </text>
            <polyline id="Path-3" stroke="#979797" points="216 16 221 21 226 16"></polyline>
        </g>
        <g id="Group-Copy-3" transform="translate(369.000000, 1859.000000)">
            <rect id="Rectangle" stroke="#9B9B9B" fill="#FFFFFF" x="69.5" y="0.5" width="166" height="35" rx="6"></rect>
            <text id="字段属性" font-family="PingFangSC-Medium, PingFang SC" font-size="14" font-weight="400" fill="#000000" fill-opacity="0.4">
                <tspan x="0" y="23">字段属性</tspan>
            </text>
            <polyline id="Path-3" stroke="#979797" points="216 16 221 21 226 16"></polyline>
        </g>
        <g id="Group-Copy-4" transform="translate(684.000000, 1859.000000)">
            <rect id="Rectangle" stroke="#9B9B9B" fill="#FFFFFF" x="69.5" y="0.5" width="166" height="35" rx="6"></rect>
            <text id="字段属性" font-family="PingFangSC-Medium, PingFang SC" font-size="14" font-weight="400" fill="#000000" fill-opacity="0.4">
                <tspan x="0" y="23">字段属性</tspan>
            </text>
            <polyline id="Path-3" stroke="#979797" points="216 16 221 21 226 16"></polyline>
        </g>
        <g id="Group-Copy" transform="translate(368.000000, 1811.000000)">
            <rect id="Rectangle" stroke="#9B9B9B" fill="#FFFFFF" x="69.5" y="0.5" width="166" height="35" rx="6"></rect>
            <text id="数量等级" font-family="PingFangSC-Medium, PingFang SC" font-size="14" font-weight="400" fill="#000000" fill-opacity="0.4">
                <tspan x="0" y="23">数量等级</tspan>
            </text>
            <polyline id="Path-3" stroke="#979797" points="216 16 221 21 226 16"></polyline>
        </g>
        <g id="Group-Copy-2" transform="translate(684.000000, 1811.000000)">
            <rect id="Rectangle" stroke="#9B9B9B" fill="#FFFFFF" x="69.5" y="0.5" width="166" height="35" rx="6"></rect>
            <text id="字段属性" font-family="PingFangSC-Medium, PingFang SC" font-size="14" font-weight="400" fill="#000000" fill-opacity="0.4">
                <tspan x="0" y="23">字段属性</tspan>
            </text>
            <polyline id="Path-3" stroke="#979797" points="216 16 221 21 226 16"></polyline>
        </g>
    </g>
</svg>