<?xml version="1.0" encoding="UTF-8"?>
<svg width="2264px" height="337px" viewBox="0 0 2264 337" version="1.1" xmlns="http://www.w3.org/2000/svg" xmlns:xlink="http://www.w3.org/1999/xlink">
    <!-- Generator: Sketch 54.1 (76490) - https://sketchapp.com -->
    <title>画板</title>
    <desc>Created with Sketch.</desc>
    <g id="画板" stroke="none" stroke-width="1" fill="none" fill-rule="evenodd">
        <text id="321088199408150029" font-family="DINAlternate-Bold, DIN Alternate" font-size="56" font-weight="bold">
            <tspan x="169.179688" y="133" fill="#000000" fill-opacity="0.4">321088</tspan>
            <tspan x="330.453125" y="133" fill="#58DDDF">19940815</tspan>
            <tspan x="545.484375" y="133" fill="#000000" fill-opacity="0.4">0029</tspan>
        </text>
        <path d="M334,146 L435,146" id="直线-3" stroke="#58DDDF" stroke-width="4" stroke-linecap="square"></path>
        <path d="M446,146 L490,146" id="直线-3复制" stroke="#58DDDF" stroke-width="4" stroke-linecap="square"></path>
        <path d="M498,146 L542,146" id="直线-3复制-2" stroke="#58DDDF" stroke-width="4" stroke-linecap="square"></path>
        <text id="重合的内容" font-family="PingFangSC-Regular, PingFang SC" font-size="30" font-weight="normal" fill="#6D7278">
            <tspan x="318" y="266">重合的内容</tspan>
        </text>
        <text id="联级选项" font-family="PingFangSC-Regular, PingFang SC" font-size="30" font-weight="normal" fill="#6D7278">
            <tspan x="1089" y="268">联级选项</tspan>
        </text>
        <text id="默认内容" font-family="PingFangSC-Regular, PingFang SC" font-size="30" font-weight="normal" fill="#6D7278">
            <tspan x="1762" y="268">默认内容</tspan>
        </text>
        <rect id="矩形" stroke="#58DDDF" stroke-width="3" x="883.5" y="83.5" width="230" height="88" rx="12"></rect>
        <rect id="矩形复制" stroke="#58DDDF" stroke-width="3" x="1150.5" y="83.5" width="230" height="88" rx="12"></rect>
        <text id="上海市" font-family="PingFangSC-Regular, PingFang SC" font-size="34" font-weight="normal" fill="#6D7278">
            <tspan x="922" y="140">上海市</tspan>
        </text>
        <text id="静安区" font-family="PingFangSC-Regular, PingFang SC" font-size="34" font-weight="normal" fill="#6D7278">
            <tspan x="1189" y="140">静安区</tspan>
        </text>
        <g id="下" transform="translate(1061.000000, 117.000000)" fill="#58DDDF" fill-rule="nonzero">
            <rect id="矩形" opacity="0" x="0" y="0" width="28" height="28"></rect>
            <path d="M25,8.90566038 C25,8.67389623 24.9163214,8.44210377 24.7489642,8.26524528 C24.414223,7.91158491 23.8714907,7.91158491 23.5367495,8.26524528 L14.4999967,17.8135377 L5.46324377,8.26524528 C5.12850259,7.91158491 4.58579706,7.91158491 4.25105588,8.26524528 C3.91631471,8.61896226 3.91631471,9.19235849 4.25105588,9.54607547 L13.8939161,19.7347547 C14.2286573,20.0884151 14.7713628,20.0884151 15.106104,19.7347547 L24.7489642,9.54607547 C24.9163214,9.36921698 25,9.13742453 25,8.90566038 Z" id="路径"></path>
        </g>
        <g id="下复制" transform="translate(1330.000000, 117.000000)" fill="#58DDDF" fill-rule="nonzero">
            <rect id="矩形" opacity="0" x="0" y="0" width="28" height="28"></rect>
            <path d="M25,8.90566038 C25,8.67389623 24.9163214,8.44210377 24.7489642,8.26524528 C24.414223,7.91158491 23.8714907,7.91158491 23.5367495,8.26524528 L14.4999967,17.8135377 L5.46324377,8.26524528 C5.12850259,7.91158491 4.58579706,7.91158491 4.25105588,8.26524528 C3.91631471,8.61896226 3.91631471,9.19235849 4.25105588,9.54607547 L13.8939161,19.7347547 C14.2286573,20.0884151 14.7713628,20.0884151 15.106104,19.7347547 L24.7489642,9.54607547 C24.9163214,9.36921698 25,9.13742453 25,8.90566038 Z" id="路径"></path>
        </g>
        <text id="户籍地址" font-family="PingFangSC-Regular, PingFang SC" font-size="46" font-weight="normal" fill="#58DDDF">
            <tspan x="1560" y="133">户籍地址</tspan>
        </text>
        <text id="现居地址" font-family="PingFangSC-Regular, PingFang SC" font-size="46" font-weight="normal" fill="#58DDDF">
            <tspan x="1882" y="131">现居地址</tspan>
        </text>
        <g id="链接" transform="translate(1791.000000, 95.000000)" fill="#58DDDF" fill-rule="nonzero">
            <rect id="矩形" opacity="0" x="0" y="0" width="45" height="45"></rect>
            <path d="M40,30.73375 C40,32.44875 39.391799,33.90125 38.1797725,35.086875 L35.0250031,38.215 C33.8392299,39.405 32.3865483,40 30.6713339,40 C28.9386173,40 27.4815602,39.391875 26.295787,38.18 L21.8808601,33.739375 C20.6950869,32.55375 20.1000125,31.10125 20.1000125,29.38625 C20.1000125,27.6275 20.7257157,26.135625 21.9858732,24.901875 L20.1000125,23.01625 C18.8704838,24.27625 17.3827978,24.901875 15.6369546,24.901875 C13.9217402,24.901875 12.4603075,24.3025 11.2614077,23.10375 L6.79834979,18.636875 C5.59944993,17.438125 5,15.976875 5,14.261875 C5,12.546875 5.60820103,11.094375 6.82022753,9.90875 L9.97499687,6.780625 C11.1607701,5.595 12.6134517,5 14.3286661,5 C16.0570071,5 17.5184398,5.608125 18.704213,6.82 L23.1191399,11.25625 C24.3049131,12.441875 24.8999875,13.894375 24.8999875,15.609375 C24.8999875,17.368125 24.2699087,18.86 23.0141268,20.09375 L24.8999875,21.979375 C26.1295162,20.719375 27.6172022,20.09375 29.3630454,20.09375 C31.0782598,20.09375 32.5396925,20.693125 33.7385923,21.891875 L38.2016502,26.354375 C39.4005501,27.561875 40,29.023125 40,30.73375 Z M20.8001,15.618125 C20.8001,15.045 20.6032004,14.559375 20.2006501,14.16125 L15.7857232,9.720625 C15.3831729,9.318125 14.8974872,9.12125 14.3286661,9.12125 C13.7685961,9.12125 13.2872859,9.31375 12.871609,9.69875 L9.7168396,12.83125 C9.31428929,13.23375 9.11738967,13.710625 9.11738967,14.270625 C9.11738967,14.84375 9.31428929,15.329375 9.7168396,15.7275 L14.1798975,20.19 C14.5693212,20.579375 15.0506313,20.7675 15.6369546,20.7675 C16.2364046,20.7675 16.7527191,20.544375 17.1815227,20.1025 C17.1377672,20.05875 17.0021253,19.9275 16.7745968,19.704375 C16.5426928,19.48125 16.3895487,19.328125 16.3151644,19.245 C16.2407801,19.161875 16.1313914,19.021875 15.9957495,18.838125 C15.8601075,18.654375 15.7638455,18.46625 15.7157145,18.29125 C15.6675834,18.111875 15.6369546,17.915 15.6369546,17.700625 C15.6369546,17.1275 15.8338542,16.641875 16.2364046,16.24375 C16.6389549,15.84125 17.1246406,15.644375 17.6934617,15.644375 C17.9078635,15.644375 18.1047631,15.670625 18.2841605,15.723125 C18.4635579,15.775625 18.6429554,15.8675 18.8311039,16.003125 C19.0148769,16.13875 19.1505188,16.248125 19.2380298,16.3225 C19.3255407,16.40125 19.4786848,16.55875 19.6974622,16.781875 C19.9206151,17.01375 20.0475059,17.149375 20.095637,17.18875 C20.568196,16.7425 20.8001,16.2175 20.8001,15.618125 Z M35.8826103,30.73375 C35.8826103,30.160625 35.6857107,29.675 35.2831604,29.276875 L30.8201025,24.814375 C30.4175522,24.411875 29.9318665,24.215 29.3630454,24.215 C28.7635954,24.215 28.2472809,24.446875 27.8184773,24.901875 C27.8622328,24.945625 27.9978747,25.076875 28.2254032,25.3 C28.4573072,25.523125 28.6104513,25.67625 28.6848356,25.759375 C28.7635954,25.846875 28.8686086,25.9825 29.0042505,26.16625 C29.1398925,26.35 29.2361545,26.538125 29.2842855,26.713125 C29.3324166,26.8925 29.3630454,27.089375 29.3630454,27.30375 C29.3630454,27.876875 29.1661458,28.3625 28.7635954,28.760625 C28.3610451,29.163125 27.8753594,29.36 27.3065383,29.36 C27.0921365,29.36 26.8952369,29.338125 26.7158395,29.28125 C26.5364421,29.233125 26.3570446,29.136875 26.1688961,29.00125 C25.9851231,28.865625 25.8494812,28.75625 25.7619702,28.681875 C25.6744593,28.6075 25.5213152,28.45 25.3025378,28.2225 C25.0837605,27.995 24.9524941,27.855 24.904363,27.815625 C24.431804,28.2575 24.1955244,28.7825 24.1955244,29.381875 C24.1955244,29.955 24.3924241,30.440625 24.7949744,30.83875 L29.2099012,35.275 C29.5993249,35.664375 30.0806351,35.8525 30.6669584,35.8525 C31.240155,35.8525 31.7258407,35.66875 32.1240155,35.2925 L35.2787848,32.164375 C35.6813352,31.775 35.8826103,31.29375 35.8826103,30.73375 L35.8826103,30.73375 Z" id="形状"></path>
        </g>
    </g>
</svg>