<?xml version="1.0" encoding="UTF-8"?>
<svg width="1100px" height="340px" viewBox="0 0 1100 340" version="1.1" xmlns="http://www.w3.org/2000/svg" xmlns:xlink="http://www.w3.org/1999/xlink">
    <!-- Generator: Sketch 54.1 (76490) - https://sketchapp.com -->
    <title>画板</title>
    <desc>Created with Sketch.</desc>
    <g id="画板" stroke="none" stroke-width="1" fill="none" fill-rule="evenodd">
        <g id="icon_消息" transform="translate(63.000000, 18.000000)">
            <path d="M15.9836066,7.64791063 C17.8297751,7.64791063 19.6181217,7.96235002 21.2949549,8.57881671 C22.8974457,9.16632189 24.3306011,10.006206 25.5531198,11.073645 C27.9857669,13.1878362 29.3239293,15.9681423 29.3239293,18.9056682 C29.3239293,21.8390567 27.9857669,24.6193628 25.5531198,26.7376914 C24.326471,27.800993 22.8974457,28.6408771 21.2949549,29.2325197 C19.6181217,29.8489863 17.8297751,30.1634257 15.9836066,30.1634257 C15.1204092,30.1634257 14.2572118,30.0930906 13.4187953,29.9565577 L12.4853857,29.8034754 L11.6676198,30.2751345 L8.0744059,32.3520894 L8.0744059,28.0368225 L7.03361291,27.238312 C5.66653959,26.1915598 4.54727411,24.8924286 3.79972042,23.4815887 C3.03151608,22.03765 2.64328377,20.4944146 2.64328377,18.9015308 C2.64328377,15.9681423 3.98144618,13.1878362 6.41409328,11.0695077 C7.64074215,10.006206 9.06976744,9.16632189 10.6722582,8.57467935 C12.3490914,7.96235002 14.137438,7.64791063 15.9836066,7.64791063 L15.9836066,7.64791063 Z M15.9836066,5 C7.15751684,5 0,11.22259 0,18.9015308 C0,23.0637153 2.10223662,26.7956144 5.43112212,29.3442284 L5.43112212,32.347952 C5.43112212,33.8953248 6.69907231,35 8.07853603,35 C8.52046003,35 8.9706443,34.8882913 9.39604778,34.6400496 L12.9892617,32.5630947 C13.9598424,32.7244518 14.9593341,32.807199 15.9836066,32.807199 C24.8096963,32.807199 31.9672131,26.584609 31.9672131,18.9056682 C31.9672131,11.22259 24.8096963,5 15.9836066,5 Z" id="形状" fill="#BAABFF" fill-rule="nonzero"></path>
            <text id="销售沟通" font-family="PingFangSC-Regular, PingFang SC" font-size="28" font-weight="normal" fill="#000000" fill-opacity="0.85">
                <tspan x="48" y="30">销售沟通</tspan>
            </text>
        </g>
        <g id="icon_消息复制" transform="translate(65.000000, 194.000000)">
            <text id="实际开发" font-family="PingFangSC-Regular, PingFang SC" font-size="28" font-weight="normal" fill="#000000" fill-opacity="0.85">
                <tspan x="46" y="30">实际开发</tspan>
            </text>
            <g id="2" transform="translate(0.000000, 6.000000)" fill="#96DCDD" fill-rule="nonzero">
                <path d="M11.6635923,3 C13.977519,3 16.1516177,3.90246442 17.7889577,5.53592503 C18.8850282,6.6324193 19.6653582,7.99514058 20.0487574,9.48420687 C20.4231354,10.9326623 20.4186248,12.4623395 20.0307151,13.9062825 L19.6022101,15.5171815 L20.7794711,16.6948976 L28.1542666,24.0725443 C29.2819111,25.2006248 29.2819111,27.0326276 28.1542666,28.1561958 C27.6084866,28.7021867 26.8822835,29 26.1109746,29 C25.3396657,29 24.6134626,28.6976744 24.0676826,28.1561958 L16.6973977,20.7830614 L15.5201368,19.6053454 L13.9098603,20.034016 C13.1791466,20.2280458 12.4213695,20.3273169 11.6635923,20.3273169 C9.34966567,20.3273169 7.17556694,19.4248525 5.53822702,17.7913919 C4.83908738,17.091982 4.27075452,16.2887886 3.84676016,15.4088858 C3.44080811,14.5560569 3.17468399,13.6490802 3.06191953,12.7060049 C3.00328202,12.2006248 2.9852397,11.6907324 3.01230317,11.1853523 L5.60137511,13.7754252 C6.41778978,14.5921555 7.50483915,15.0433877 8.66405777,15.0433877 C9.81876581,15.0433877 10.9103258,14.5921555 11.7267404,13.7754252 L13.7700324,11.7313433 C14.5864471,10.914613 15.0375049,9.82714335 15.0375049,8.66747657 C15.0375049,7.51232211 14.5864471,6.42034016 13.7700324,5.60360986 L11.1809605,3.01353697 C11.3433413,3.00451232 11.5057221,3 11.6635923,3 L11.6635923,3 Z M11.6278873,0 C9.58340678,0 7.53438296,0.536059057 5.71706693,1.60817717 L11.6914934,7.58205565 C12.2594046,8.14991482 12.2594046,9.07211811 11.6914934,9.63997729 L9.63792626,11.6978989 C9.35624228,11.9795571 8.98369249,12.124929 8.61114271,12.124929 C8.23859292,12.124929 7.86604313,11.9840999 7.58435915,11.6978989 L1.6099327,5.72402044 C-1.02517554,10.1851221 -0.425461248,16.0227144 3.40907557,19.8568995 C5.68072061,22.1283362 8.65657561,23.2640545 11.6324306,23.2640545 C12.6455843,23.2640545 13.658738,23.1323112 14.6446319,22.8688245 L22.0729112,30.2964225 C23.2087337,31.4321408 24.6989329,32 26.1845887,32 C27.6702446,32 29.1604437,31.4321408 30.2962662,30.2964225 C32.5679113,28.0249858 32.5679113,24.3452584 30.2962662,22.0738217 L22.8634437,14.6416809 C23.8993138,10.762067 22.8952467,6.45088018 19.8512423,3.40715503 C17.5841406,1.13571834 14.6082856,6.45581134e-15 11.6278873,6.45581134e-15 L11.6278873,0 Z" id="形状"></path>
            </g>
        </g>
        <rect id="矩形" fill="#DBD3FF" x="57" y="98" width="174" height="43" rx="21.5"></rect>
        <rect id="矩形复制-4" fill="#A6E1E2" x="57" y="260" width="174" height="43" rx="21.5"></rect>
        <rect id="矩形复制-5" fill="#A6E1E2" x="309" y="260" width="174" height="43" rx="21.5"></rect>
        <rect id="矩形复制-6" fill="#A6E1E2" x="500" y="260" width="174" height="43" rx="21.5"></rect>
        <rect id="矩形复制-7" fill="#A6E1E2" x="695" y="260" width="174" height="43" rx="21.5"></rect>
        <rect id="矩形复制" fill="#DBD3FF" x="309" y="98" width="174" height="43" rx="21.5"></rect>
        <rect id="矩形复制-2" fill="#DBD3FF" x="572" y="98" width="174" height="43" rx="21.5"></rect>
        <rect id="矩形复制-3" fill="#DBD3FF" x="767" y="98" width="199" height="43" rx="21.5"></rect>
        <text id="接触客户" font-family="PingFangSC-Regular, PingFang SC" font-size="20" font-weight="normal" fill="#000000" fill-opacity="0.5">
            <tspan x="104" y="127">接触客户</tspan>
        </text>
        <text id="功能细化" font-family="PingFangSC-Regular, PingFang SC" font-size="20" font-weight="normal" fill="#000000" fill-opacity="0.5">
            <tspan x="104" y="289">功能细化</tspan>
        </text>
        <text id="交互设计" font-family="PingFangSC-Regular, PingFang SC" font-size="20" font-weight="normal" fill="#000000" fill-opacity="0.5">
            <tspan x="356" y="289">交互设计</tspan>
        </text>
        <text id="页面设计" font-family="PingFangSC-Regular, PingFang SC" font-size="20" font-weight="normal" fill="#000000" fill-opacity="0.5">
            <tspan x="563" y="289">页面设计</tspan>
        </text>
        <text id="技术开发" font-family="PingFangSC-Regular, PingFang SC" font-size="20" font-weight="normal" fill="#000000" fill-opacity="0.5">
            <tspan x="742" y="289">技术开发</tspan>
        </text>
        <text id="案例展示" font-family="PingFangSC-Regular, PingFang SC" font-size="20" font-weight="normal" fill="#000000" fill-opacity="0.5">
            <tspan x="356" y="127">案例展示</tspan>
        </text>
        <text id="需求沟通" font-family="PingFangSC-Regular, PingFang SC" font-size="20" font-weight="normal" fill="#000000" fill-opacity="0.5">
            <tspan x="619" y="127">需求沟通</tspan>
        </text>
        <text id="Demo-页面效果" font-family="PingFangSC-Regular, PingFang SC" font-size="20" font-weight="normal" fill="#000000" fill-opacity="0.5">
            <tspan x="804" y="127">Demo 页面效果</tspan>
        </text>
        <text id="……" font-family="PingFangSC-Semibold, PingFang SC" font-size="20" font-weight="500" fill="#DBD3FF">
            <tspan x="248" y="120">……</tspan>
        </text>
        <text id="……复制-3" font-family="PingFangSC-Semibold, PingFang SC" font-size="20" font-weight="500" fill="#44D7B6">
            <tspan x="248" y="282">……</tspan>
        </text>
        <text id="……复制-4" font-family="PingFangSC-Semibold, PingFang SC" font-size="20" font-weight="500" fill="#44D7B6">
            <tspan x="886" y="282">……</tspan>
        </text>
        <text id="……复制" font-family="PingFangSC-Semibold, PingFang SC" font-size="20" font-weight="500" fill="#DBD3FF">
            <tspan x="504" y="119">……</tspan>
        </text>
        <text id="……复制-2" font-family="PingFangSC-Semibold, PingFang SC" font-size="20" font-weight="500" fill="#DBD3FF">
            <tspan x="984" y="119">……</tspan>
        </text>
        <circle id="椭圆形" fill="#8070C6" cx="791.5" cy="119.5" r="6.5"></circle>
        <circle id="椭圆形复制" fill="#44D7B6" cx="540.5" cy="282.5" r="6.5"></circle>
    </g>
</svg>