<?xml version="1.0" encoding="UTF-8"?>
<svg width="441px" height="187px" viewBox="0 0 441 187" version="1.1" xmlns="http://www.w3.org/2000/svg" xmlns:xlink="http://www.w3.org/1999/xlink">
    <!-- Generator: Sketch 54.1 (76490) - https://sketchapp.com -->
    <title>preschool/reg</title>
    <desc>Created with Sketch.</desc>
    <g id="页面1" stroke="none" stroke-width="1" fill="none" fill-rule="evenodd">
        <g id="15.7" transform="translate(-76.000000, -77.000000)">
            <g id="preschool/reg" transform="translate(76.000000, 77.000000)">
                <text id="信息-纠正" font-family="PingFangSC-Regular, PingFang SC" font-size="16" font-weight="normal" fill="#63C9FE">
                    <tspan x="27" y="17">信息</tspan>
                    <tspan x="27" y="39">纠正</tspan>
                </text>
                <text id="监护人错报户籍情况" font-family="PingFangSC-Regular, PingFang SC" font-size="9.58333333" font-weight="normal" fill="#000000" fill-opacity="0.5">
                    <tspan x="0" y="66">监护人错报户籍情况</tspan>
                </text>
                <text id="本户籍幼儿顺序录取流程复杂" font-family="PingFangSC-Regular, PingFang SC" font-size="9.58333333" font-weight="normal" fill="#000000" fill-opacity="0.5">
                    <tspan x="316" y="66">本户籍幼儿顺序录取流程复杂</tspan>
                </text>
                <text id="录取结果需要手动录入直报通" font-family="PingFangSC-Regular, PingFang SC" font-size="9.58333333" font-weight="normal" fill="#000000" fill-opacity="0.5">
                    <tspan x="316" y="87">录取结果需要手动录入直报通</tspan>
                </text>
                <text id="错过登记时间" font-family="PingFangSC-Regular, PingFang SC" font-size="9.58333333" font-weight="normal" fill="#000000" fill-opacity="0.5">
                    <tspan x="15" y="87">错过登记时间</tspan>
                </text>
                <text id="保证户籍与录取通道匹配" font-family="PingFangSC-Regular, PingFang SC" font-size="8" font-weight="normal" fill="#000000" fill-opacity="0.5">
                    <tspan x="43" y="172">保证户籍与录取通道匹配</tspan>
                </text>
                <text id="预防基础信息错误" font-family="PingFangSC-Regular, PingFang SC" font-size="8" font-weight="normal" fill="#000000" fill-opacity="0.5">
                    <tspan x="55" y="186">预防基础信息错误</tspan>
                </text>
                <text id="匹配现有信息库，-减少核验压力" font-family="PingFangSC-Regular, PingFang SC" font-size="8" font-weight="normal" fill="#000000" fill-opacity="0.5">
                    <tspan x="188" y="172">匹配现有信息库，</tspan>
                    <tspan x="196" y="183">减少核验压力</tspan>
                </text>
                <text id="完成信息前后流通-减少手动录入" font-family="PingFangSC-Regular, PingFang SC" font-size="8" font-weight="normal" fill="#000000" fill-opacity="0.5">
                    <tspan x="316" y="172">完成信息前后流通</tspan>
                    <tspan x="324" y="183">减少手动录入</tspan>
                </text>
                <text id="基础信息核验琐碎时间长" font-family="PingFangSC-Regular, PingFang SC" font-size="9.58333333" font-weight="normal" fill="#000000" fill-opacity="0.5">
                    <tspan x="157" y="66">基础信息核验琐碎时间长</tspan>
                </text>
                <text id="手填表导致信息识别错误" font-family="PingFangSC-Regular, PingFang SC" font-size="9.58333333" font-weight="normal" fill="#000000" fill-opacity="0.5">
                    <tspan x="157" y="87">手填表导致信息识别错误</tspan>
                </text>
                <text id="信息-核验" font-family="PingFangSC-Regular, PingFang SC" font-size="16" font-weight="normal" fill="#FFCC7C">
                    <tspan x="188" y="17">信息</tspan>
                    <tspan x="188" y="39">核验</tspan>
                </text>
                <text id="审核-录取" font-family="PingFangSC-Regular, PingFang SC" font-size="16" font-weight="normal" fill="#BAABFF">
                    <tspan x="351" y="17">审核</tspan>
                    <tspan x="351" y="39">录取</tspan>
                </text>
                <path d="M122.5,0 L122.5,52.4772422" id="直线-4" stroke="#BFBABA" stroke-linecap="square" stroke-dasharray="1,4"></path>
                <path d="M285.5,0 L285.5,52.4772422" id="直线-4复制" stroke="#BFBABA" stroke-linecap="square" stroke-dasharray="1,4"></path>
                <text id="流程化" font-family="PingFangSC-Regular, PingFang SC" font-size="14" font-weight="normal" fill="#58DDDF">
                    <tspan x="66" y="149">流程化</tspan>
                </text>
                <text id="自动化" font-family="PingFangSC-Regular, PingFang SC" font-size="14" font-weight="normal" fill="#58DDDF">
                    <tspan x="199" y="149">自动化</tspan>
                </text>
                <text id="信息化" font-family="PingFangSC-Regular, PingFang SC" font-size="14" font-weight="normal" fill="#58DDDF">
                    <tspan x="327" y="149">信息化</tspan>
                </text>
                <g id="下" transform="translate(79.000000, 108.000000)" fill-rule="nonzero">
                    <rect id="矩形" fill="#000000" opacity="0" x="0" y="0" width="16" height="16"></rect>
                    <path d="M1,7.540625 L5.3390625,7.540625 L5.3390625,1.459375 L10.6609375,1.459375 L10.6609375,7.5421875 L15,7.5421875 L8,14.5421875 L1,7.540625 Z M6.1,2.21875 L6.1,8.3015625 L2.8359375,8.3015625 L8,13.465625 L13.1640625,8.3015625 L9.9,8.3015625 L9.9,2.21875 L6.1,2.21875 Z" id="形状" fill="#5DDEE0"></path>
                </g>
                <g id="下复制" transform="translate(212.000000, 108.000000)" fill-rule="nonzero">
                    <rect id="矩形" fill="#000000" opacity="0" x="0" y="0" width="16" height="16"></rect>
                    <path d="M1,7.540625 L5.3390625,7.540625 L5.3390625,1.459375 L10.6609375,1.459375 L10.6609375,7.5421875 L15,7.5421875 L8,14.5421875 L1,7.540625 Z M6.1,2.21875 L6.1,8.3015625 L2.8359375,8.3015625 L8,13.465625 L13.1640625,8.3015625 L9.9,8.3015625 L9.9,2.21875 L6.1,2.21875 Z" id="形状" fill="#5DDEE0"></path>
                </g>
                <g id="下复制-2" transform="translate(335.000000, 108.000000)" fill-rule="nonzero">
                    <rect id="矩形" fill="#000000" opacity="0" x="0" y="0" width="16" height="16"></rect>
                    <path d="M1,7.540625 L5.3390625,7.540625 L5.3390625,1.459375 L10.6609375,1.459375 L10.6609375,7.5421875 L15,7.5421875 L8,14.5421875 L1,7.540625 Z M6.1,2.21875 L6.1,8.3015625 L2.8359375,8.3015625 L8,13.465625 L13.1640625,8.3015625 L9.9,8.3015625 L9.9,2.21875 L6.1,2.21875 Z" id="形状" fill="#5DDEE0"></path>
                </g>
            </g>
        </g>
    </g>
</svg>