<?xml version="1.0" encoding="UTF-8"?>
<svg width="1467px" height="516px" viewBox="0 0 1467 516" version="1.1" xmlns="http://www.w3.org/2000/svg" xmlns:xlink="http://www.w3.org/1999/xlink">
    <!-- Generator: Sketch 54.1 (76490) - https://sketchapp.com -->
    <title>画板</title>
    <desc>Created with Sketch.</desc>
    <g id="画板" stroke="none" stroke-width="1" fill="none" fill-rule="evenodd">
        <circle id="椭圆形复制" fill="#FFCC7C" cx="123" cy="168" r="60"></circle>
        <circle id="椭圆形复制-2" fill="#FFCC7C" cx="123" cy="336" r="60"></circle>
        <circle id="椭圆形复制-4" fill="#FFCC7C" cx="1044" cy="262" r="60"></circle>
        <circle id="椭圆形复制-8" fill="#FFCC7C" cx="1350" cy="262" r="60"></circle>
        <path d="M115,305 C101.215385,305 90,314.662417 90,326.541667 C90,331.594167 92.0076923,336.396 95.6884615,340.183417 L93.8807692,349.669583 C93.75,350.36675 93.9961538,351.0835 94.5307692,351.54175 C94.8846154,351.839417 95.3230769,352 95.7692308,352 C96,352 96.2307692,351.956917 96.4538462,351.87075 L108.257692,347.3 C110.476923,347.820917 112.742308,348.083333 115,348.083333 C128.784615,348.083333 140,338.420917 140,326.541667 C140,314.662417 128.784615,305 115,305 Z M115,343.206918 C112.877091,343.206918 110.746545,342.936998 108.665636,342.404982 C108.524364,342.365864 108.341091,342.346304 108.192182,342.346304 C108.188364,342.346304 108.188364,342.346304 108.184545,342.346304 C108.180727,342.346304 108.180727,342.346304 108.180727,342.346304 C108.176909,342.346304 108.176909,342.346304 108.176909,342.346304 L108.173091,342.346304 C108.173091,342.346304 108.173091,342.346304 108.169273,342.346304 L108.165455,342.346304 C108.161636,342.346304 108.161636,342.346304 108.157818,342.346304 C108.154,342.346304 108.154,342.346304 108.154,342.346304 L108.150182,342.346304 C107.959273,342.346304 107.779818,342.377599 107.608,342.428454 C107.569818,342.444101 107.527818,342.459749 107.485818,342.475396 L98.4367273,346 L99.7692727,338.96644 C99.7921818,338.849084 99.8036364,338.692609 99.8036364,338.567428 C99.8036364,338.563517 99.8036364,338.563517 99.8036364,338.563517 L99.8036364,338.559605 C99.8036364,337.765493 99.3530909,336.990941 98.6925455,336.63496 C95.6609091,333.560222 94,329.671814 94,325.603459 C94,315.898085 103.423273,308 115,308 C126.576727,308 136,315.898085 136,325.603459 C136,335.308833 126.576727,343.206918 115,343.206918 Z M146.752545,330.531374 C150.136085,333.662342 152,337.67958 152,341.843885 C152,346.635157 149.550396,351.194219 145.252707,354.464514 L144.077372,365.270033 C143.99031,366.044068 143.440238,366.694256 142.680425,366.918726 C142.490472,366.972909 142.296562,367 142.106608,367 C141.528834,367 140.96689,366.752309 140.583026,366.299499 L134.33436,358.942303 C133.044262,359.155162 131.671059,359.259657 130.234539,359.259657 C124.931681,359.259657 119.810861,357.715458 115.821846,354.909584 C114.939355,354.286487 114.733573,353.075123 115.370707,352.208204 C116.007842,351.337416 117.242537,351.140037 118.132942,351.767005 C121.453164,354.100718 125.750854,355.389485 130.234539,355.389485 C131.833311,355.389485 133.321277,355.234679 134.658863,354.940546 C135.38306,354.781868 136.146829,355.025689 136.62567,355.590734 L140.634472,360.308473 L141.406156,353.214449 C141.465517,352.661014 141.766276,352.161762 142.229287,351.840538 C145.925458,349.274614 148.042643,345.632783 148.042643,341.843885 C148.042643,338.709046 146.653611,335.767716 144.033841,333.341118 C143.238412,332.605786 143.206754,331.382811 143.954694,330.604907 C144.706592,329.827002 145.957116,329.796041 146.752545,330.531374 Z" id="chat" fill="#FFFFFF" fill-rule="nonzero"></path>
        <path d="M1036,231 C1022.21538,231 1011,240.662417 1011,252.541667 C1011,257.594167 1013.00769,262.396 1016.68846,266.183417 L1014.88077,275.669583 C1014.75,276.36675 1014.99615,277.0835 1015.53077,277.54175 C1015.88462,277.839417 1016.32308,278 1016.76923,278 C1017,278 1017.23077,277.956917 1017.45385,277.87075 L1029.25769,273.3 C1031.47692,273.820917 1033.74231,274.083333 1036,274.083333 C1049.78462,274.083333 1061,264.420917 1061,252.541667 C1061,240.662417 1049.78462,231 1036,231 Z M1036,269.206918 C1033.87709,269.206918 1031.74655,268.936998 1029.66564,268.404982 C1029.52436,268.365864 1029.34109,268.346304 1029.19218,268.346304 C1029.18836,268.346304 1029.18836,268.346304 1029.18455,268.346304 C1029.18073,268.346304 1029.18073,268.346304 1029.18073,268.346304 C1029.17691,268.346304 1029.17691,268.346304 1029.17691,268.346304 L1029.17309,268.346304 C1029.17309,268.346304 1029.17309,268.346304 1029.16927,268.346304 L1029.16545,268.346304 C1029.16164,268.346304 1029.16164,268.346304 1029.15782,268.346304 C1029.154,268.346304 1029.154,268.346304 1029.154,268.346304 L1029.15018,268.346304 C1028.95927,268.346304 1028.77982,268.377599 1028.608,268.428454 C1028.56982,268.444101 1028.52782,268.459749 1028.48582,268.475396 L1019.43673,272 L1020.76927,264.96644 C1020.79218,264.849084 1020.80364,264.692609 1020.80364,264.567428 C1020.80364,264.563517 1020.80364,264.563517 1020.80364,264.563517 L1020.80364,264.559605 C1020.80364,263.765493 1020.35309,262.990941 1019.69255,262.63496 C1016.66091,259.560222 1015,255.671814 1015,251.603459 C1015,241.898085 1024.42327,234 1036,234 C1047.57673,234 1057,241.898085 1057,251.603459 C1057,261.308833 1047.57673,269.206918 1036,269.206918 Z M1067.75255,256.531374 C1071.13609,259.662342 1073,263.67958 1073,267.843885 C1073,272.635157 1070.5504,277.194219 1066.25271,280.464514 L1065.07737,291.270033 C1064.99031,292.044068 1064.44024,292.694256 1063.68043,292.918726 C1063.49047,292.972909 1063.29656,293 1063.10661,293 C1062.52883,293 1061.96689,292.752309 1061.58303,292.299499 L1055.33436,284.942303 C1054.04426,285.155162 1052.67106,285.259657 1051.23454,285.259657 C1045.93168,285.259657 1040.81086,283.715458 1036.82185,280.909584 C1035.93936,280.286487 1035.73357,279.075123 1036.37071,278.208204 C1037.00784,277.337416 1038.24254,277.140037 1039.13294,277.767005 C1042.45316,280.100718 1046.75085,281.389485 1051.23454,281.389485 C1052.83331,281.389485 1054.32128,281.234679 1055.65886,280.940546 C1056.38306,280.781868 1057.14683,281.025689 1057.62567,281.590734 L1061.63447,286.308473 L1062.40616,279.214449 C1062.46552,278.661014 1062.76628,278.161762 1063.22929,277.840538 C1066.92546,275.274614 1069.04264,271.632783 1069.04264,267.843885 C1069.04264,264.709046 1067.65361,261.767716 1065.03384,259.341118 C1064.23841,258.605786 1064.20675,257.382811 1064.95469,256.604907 C1065.70659,255.827002 1066.95712,255.796041 1067.75255,256.531374 Z" id="chat复制" fill="#FFFFFF" fill-rule="nonzero"></path>
        <text id="文档资料研究" font-family="PingFangSC-Regular, PingFang SC" font-size="28" font-weight="normal" fill="#6D7278">
            <tspan x="39" y="82">文档资料研究</tspan>
        </text>
        <text id="多角色部门-会议沟通" font-family="PingFangSC-Regular, PingFang SC" font-size="28" font-weight="normal" fill="#6D7278">
            <tspan x="53" y="442">多角色部门</tspan>
            <tspan x="67" y="482">会议沟通</tspan>
        </text>
        <text id="确认功能需求" font-family="PingFangSC-Regular, PingFang SC" font-size="28" font-weight="normal" fill="#6D7278">
            <tspan x="346" y="442">确认功能需求</tspan>
        </text>
        <text id="方案产出" font-family="PingFangSC-Regular, PingFang SC" font-size="28" font-weight="normal" fill="#6D7278">
            <tspan x="685" y="442">方案产出</tspan>
        </text>
        <text id="内部测试" font-family="PingFangSC-Regular, PingFang SC" font-size="28" font-weight="normal" fill="#6D7278">
            <tspan x="529" y="112">内部测试</tspan>
        </text>
        <text id="Demo开发" font-family="PingFangSC-Regular, PingFang SC" font-size="28" font-weight="normal" fill="#6D7278">
            <tspan x="799.172" y="112">Demo开发</tspan>
        </text>
        <text id="内部评审" font-family="PingFangSC-Regular, PingFang SC" font-size="28" font-weight="normal" fill="#6D7278">
            <tspan x="677" y="62">内部评审</tspan>
        </text>
        <text id="联合测试迭代" font-family="PingFangSC-Regular, PingFang SC" font-size="28" font-weight="normal" fill="#6D7278">
            <tspan x="982" y="442">联合测试迭代</tspan>
        </text>
        <text id="最终方案" font-family="PingFangSC-Regular, PingFang SC" font-size="28" font-weight="normal" fill="#6D7278">
            <tspan x="1303" y="442">最终方案</tspan>
        </text>
        <g id="icon_yuanwen" transform="translate(95.000000, 137.000000)" fill="#FFFFFF" fill-rule="nonzero">
            <path d="M33.1201248,24.5454545 L22.1372855,24.5454545 C20.6185647,24.5454545 19.3915757,25.7642045 19.3915757,27.2727273 L19.3915757,30 L33.1201248,30 C34.6388456,30 35.8658346,28.78125 35.8658346,27.2727273 C35.8658346,25.7642045 34.6388456,24.5454545 33.1201248,24.5454545 Z M33.1201248,35.4545455 L22.1372855,35.4545455 C20.6185647,35.4545455 19.3915757,36.6732955 19.3915757,38.1818182 L19.3915757,40.9090909 L33.1201248,40.9090909 C34.6388456,40.9090909 35.8658346,39.6903409 35.8658346,38.1818182 C35.8658346,36.6732955 34.6388456,35.4545455 33.1201248,35.4545455 Z M38.9547582,5.45454545 L49.4656786,15.6818182 L49.4656786,54.5454545 L5.53432137,54.5454545 L5.53432137,5.45454545 L38.9547582,5.45454545 L38.9547582,5.45454545 Z M40.0702028,0 L2.78861154,0 C1.2698908,0 0.0429017161,1.21875 0.0429017161,2.72727273 L0.0429017161,57.2727273 C0.0429017161,58.78125 1.2698908,60 2.78861154,60 L52.2113885,60 C53.7301092,60 54.9570983,58.78125 54.9570983,57.2727273 L54.9570983,14.5397727 C54.9570983,13.8068182 54.6567863,13.1079545 54.1333853,12.5880682 L41.9921997,0.775568182 C41.4773791,0.28125 40.7909516,0 40.0702028,0 Z M41.2714509,7.71306818 L47.2776911,13.5511364 L41.2714509,13.5511364 L41.2714509,7.71306818 L41.2714509,7.71306818 Z M40.0702028,0 L35.7800312,0 L35.7800312,16.2784091 C35.7800312,17.7869318 37.0070203,19.0056818 38.525741,19.0056818 L54.9570983,19.0056818 L54.9570983,14.5397727 C54.9570983,13.8068182 54.6567863,13.1079545 54.1333853,12.5880682 L41.9921997,0.775568182 C41.4773791,0.28125 40.7909516,0 40.0702028,0 Z" id="形状"></path>
        </g>
        <path d="M320.496352,262 L207,262" id="直线复制" stroke="#BDBBBB" stroke-width="2" stroke-linecap="square" stroke-dasharray="1,4"></path>
        <path d="M642.496352,261 L529,261" id="直线复制-2" stroke="#BDBBBB" stroke-width="2" stroke-linecap="square" stroke-dasharray="1,4"></path>
        <path d="M938.496352,262 L825,262" id="直线复制-3" stroke="#BDBBBB" stroke-width="2" stroke-linecap="square" stroke-dasharray="1,4"></path>
        <path d="M1263.49635,262 L1150,262" id="直线复制-4" stroke="#BDBBBB" stroke-width="2" stroke-linecap="square" stroke-dasharray="1,4"></path>
        <path d="M868,263 C868,188.441559 807.782299,128 733.5,128 C659.217701,128 599,188.441559 599,263" id="椭圆形" stroke="#58DFC6" stroke-width="2" stroke-linecap="square" stroke-dasharray="1,4"></path>
        <circle id="椭圆形复制-2" fill="#58DFC6" cx="430" cy="262" r="60"></circle>
        <circle id="椭圆形复制-3" fill="#58DFC6" cx="737" cy="262" r="60"></circle>
        <circle id="椭圆形复制-5" fill="#58DFC6" cx="626" cy="196" r="40"></circle>
        <circle id="椭圆形复制-6" fill="#58DFC6" cx="737" cy="132" r="40"></circle>
        <circle id="椭圆形复制-7" fill="#58DFC6" cx="848" cy="191" r="40"></circle>
        <g id="icon_审批" transform="translate(400.000000, 236.000000)" fill="#FFFFFF" fill-rule="nonzero">
            <path d="M54.9974026,0 L6.9974026,0 C5.61818182,0 4.5038961,1.11370717 4.5038961,2.49221184 L4.5038961,47.5077882 C4.5038961,48.8862928 5.61818182,50 6.9974026,50 L29.361039,50 C30.7402597,50 31.8545455,48.8862928 31.8545455,47.5077882 C31.8545455,46.1292835 30.7402597,45.0155763 29.361039,45.0155763 L9.49090909,45.0155763 L9.49090909,4.98442368 L52.5038961,4.98442368 L52.5038961,25 C52.5038961,26.3785047 53.6181818,27.4922118 54.9974026,27.4922118 C56.3766234,27.4922118 57.4909091,26.3785047 57.4909091,25 L57.4909091,2.49221184 C57.4909091,1.11370717 56.3766234,0 54.9974026,0 Z" id="路径"></path>
            <path d="M12.5376623,32.4922118 L0.0701298701,32.4922118 L0.0701298701,34.9844237 C0.0701298701,36.3629283 1.18441558,37.4766355 2.56363636,37.4766355 L12.5376623,37.4766355 C13.9168831,37.4766355 15.0311688,36.3629283 15.0311688,34.9844237 C15.0311688,33.605919 13.9090909,32.4922118 12.5376623,32.4922118 Z M12.5376623,22.5233645 L0.0701298701,22.5233645 L0.0701298701,25.0155763 C0.0701298701,26.394081 1.18441558,27.5077882 2.56363636,27.5077882 L12.5376623,27.5077882 C13.9168831,27.5077882 15.0311688,26.394081 15.0311688,25.0155763 C15.0311688,23.6370717 13.9090909,22.5233645 12.5376623,22.5233645 L12.5376623,22.5233645 Z M12.5376623,12.5545171 L0.0701298701,12.5545171 L0.0701298701,15.046729 C0.0701298701,16.4252336 1.18441558,17.5389408 2.56363636,17.5389408 L12.5376623,17.5389408 C13.9168831,17.5389408 15.0311688,16.4252336 15.0311688,15.046729 C15.0311688,13.6682243 13.9090909,12.5545171 12.5376623,12.5545171 Z" id="形状"></path>
            <path d="M57.4363636,33.271028 L46.8623377,43.8395639 L41.5714286,38.5514019 C41.0883117,38.0685358 40.4493506,37.8193146 39.8103896,37.8193146 C39.1714286,37.8193146 38.5324675,38.0607477 38.0493506,38.5514019 L36.2883117,40.3115265 L45.1012987,49.1199377 C45.5844156,49.6028037 46.2233766,49.8520249 46.8623377,49.8520249 C47.5012987,49.8520249 48.1402597,49.6105919 48.6233766,49.1199377 L59.2051948,38.5514019 C60.1792208,37.5778816 60.1792208,35.9968847 59.2051948,35.0233645 L57.4363636,33.271028 L57.4363636,33.271028 Z" id="路径"></path>
        </g>
        <g id="icon_调整" transform="translate(707.000000, 232.000000)" fill="#FFFFFF" fill-rule="nonzero">
            <path d="M45,5 C47.7578125,5 50,7.2421875 50,10 C50,12.7578125 47.7578125,15 45,15 C42.2421875,15 40,12.7578125 40,10 C40,7.2421875 42.2421875,5 45,5 L45,5 Z M45,0 C39.4765625,0 35,4.4765625 35,10 C35,15.5234375 39.4765625,20 45,20 C50.5234375,20 55,15.5234375 55,10 C55,4.4765625 50.5234375,0 45,0 Z M45,45 C47.7578125,45 50,47.2421875 50,50 C50,52.7578125 47.7578125,55 45,55 C42.2421875,55 40,52.7578125 40,50 C40,47.2421875 42.2421875,45 45,45 L45,45 Z M45,40 C39.4765625,40 35,44.4765625 35,50 C35,55.5234375 39.4765625,60 45,60 C50.5234375,60 55,55.5234375 55,50 C55,44.4765625 50.5234375,40 45,40 Z M15,25 C17.7578125,25 20,27.2421875 20,30 C20,32.7578125 17.7578125,35 15,35 C12.2421875,35 10,32.7578125 10,30 C10,27.2421875 12.2421875,25 15,25 L15,25 Z M15,20 C9.4765625,20 5,24.4765625 5,30 C5,35.5234375 9.4765625,40 15,40 C20.5234375,40 25,35.5234375 25,30 C25,24.4765625 20.5234375,20 15,20 Z" id="形状"></path>
            <path d="M10.828125,28 L2.5,28 C1.1171875,28 0,29.1171875 0,30.5 L0,33 L10.828125,33 C10.40625,32.265625 10.15625,31.4140625 10.15625,30.5 C10.15625,29.5859375 10.3984375,28.734375 10.828125,28 Z M57.5,28 L19.484375,28 C19.90625,28.734375 20.15625,29.5859375 20.15625,30.5 C20.15625,31.4140625 19.9140625,32.265625 19.484375,33 L57.5,33 C58.8828125,33 60,31.8828125 60,30.5 C60,29.1171875 58.8828125,28 57.5,28 Z M40.828125,8 L2.5,8 C1.1171875,8 0,9.1171875 0,10.5 L0,13 L40.828125,13 C40.40625,12.265625 40.15625,11.4140625 40.15625,10.5 C40.15625,9.5859375 40.3984375,8.734375 40.828125,8 Z M57.5,8 L49.484375,8 C49.90625,8.734375 50.15625,9.5859375 50.15625,10.5 C50.15625,11.4140625 49.9140625,12.265625 49.484375,13 L57.5,13 C58.8828125,13 60,11.8828125 60,10.5 C60,9.1171875 58.8828125,8 57.5,8 Z" id="形状"></path>
            <path d="M40.828125,48 L2.5,48 C1.1171875,48 0,49.1171875 0,50.5 L0,53 L40.828125,53 C40.40625,52.265625 40.15625,51.4140625 40.15625,50.5 C40.15625,49.5859375 40.3984375,48.734375 40.828125,48 Z M57.5,48 L49.484375,48 C49.90625,48.734375 50.15625,49.5859375 50.15625,50.5 C50.15625,51.4140625 49.9140625,52.265625 49.484375,53 L57.5,53 C58.8828125,53 60,51.8828125 60,50.5 C60,49.1171875 58.8828125,48 57.5,48 Z" id="形状"></path>
        </g>
        <g id="icon_daochu" transform="translate(828.000000, 172.000000)" fill="#FFFFFF" fill-rule="nonzero">
            <path d="M39.1310541,0 L1.86894587,0 C0.835185185,0 0,0.8125 0,1.81818182 L0,38.1818182 C0,39.1875 0.835185185,40 1.86894587,40 L14.951567,40 C15.9853276,40 16.8205128,39.1875 16.8205128,38.1818182 C16.8205128,37.1761364 15.9853276,36.3636364 14.951567,36.3636364 L3.73789174,36.3636364 L3.73789174,3.63636364 L37.2621083,3.63636364 L37.2621083,16.3068182 C37.2621083,17.3125 38.0972934,18.125 39.1310541,18.125 C40.1648148,18.125 41,17.3125 41,16.3068182 L41,1.81818182 C41,0.8125 40.1648148,0 39.1310541,0 Z M31.2405983,21 C30.7616809,21 30.2827635,21.1761364 29.9206553,21.5340909 C29.1905983,22.2443182 29.1905983,23.3977273 29.9206553,24.1079545 L34.5754986,28.6363636 L20.0911681,28.6363636 L20.0911681,30.4545455 C20.0911681,31.4602273 20.9263533,32.2727273 21.960114,32.2727273 L34.657265,32.2727273 L29.9206553,36.8806818 C29.1905983,37.5909091 29.1905983,38.7443182 29.9206553,39.4545455 C30.2827635,39.8068182 30.7616809,39.9886364 31.2405983,39.9886364 C31.7195157,39.9886364 32.198433,39.8125 32.5605413,39.4545455 L40.4509972,31.7784091 C41.1810541,31.0681818 41.1810541,29.9147727 40.4509972,29.2045455 L32.5663818,21.5340909 C32.198433,21.1818182 31.7195157,21 31.2405983,21 Z" id="形状"></path>
        </g>
        <g id="icon_xiaoxi" transform="translate(716.000000, 111.000000)" fill="#FFFFFF" fill-rule="nonzero">
            <path d="M21.5,3.53054751 C23.9833333,3.53054751 26.3888889,3.94980003 28.6444444,4.77175562 C30.8,5.55509585 32.7277778,6.67494139 34.3722222,8.09819335 C37.6444444,10.9171149 39.4444444,14.6241898 39.4444444,18.5408909 C39.4444444,22.4520756 37.6444444,26.1591505 34.3722222,28.9835885 C32.7222222,30.401324 30.8,31.5211695 28.6444444,32.3100262 C26.3888889,33.1319818 23.9833333,33.5512343 21.5,33.5512343 C20.3388889,33.5512343 19.1777778,33.4574541 18.05,33.2754103 L16.7944444,33.0713005 L15.6944444,33.7001793 L10.8611111,36.4694525 L10.8611111,30.7157633 L9.46111111,29.6510826 C7.62222222,28.255413 6.11666667,26.5232382 5.11111111,24.6421183 C4.07777778,22.7168666 3.55555556,20.6592194 3.55555556,18.5353744 C3.55555556,14.6241898 5.35555556,10.9171149 8.62777778,8.09267687 C10.2777778,6.67494139 12.2,5.55509585 14.3555556,4.76623914 C16.6111111,3.94980003 19.0166667,3.53054751 21.5,3.53054751 L21.5,3.53054751 Z M21.5,0 C9.62777778,7.83939027e-15 0,8.29678665 0,18.5353744 C0,24.0849538 2.82777778,29.0608192 7.30555556,32.4589712 L7.30555556,36.463936 C7.30555556,38.5270997 9.01111111,40 10.8666667,40 C11.4611111,40 12.0666667,39.851055 12.6388889,39.5200662 L17.4722222,36.750793 C18.7777778,36.9659357 20.1222222,37.0762653 21.5,37.0762653 C33.3722222,37.0762653 43,28.7794787 43,18.5408909 C43,8.29678665 33.3722222,0 21.5,0 Z" id="形状"></path>
        </g>
        <g id="icon_geren" transform="translate(606.000000, 176.000000)" fill="#FFFFFF" fill-rule="nonzero">
            <path d="M20.5533854,3.37982397 C22.3791667,3.37982397 24.0928385,4.08219364 25.3847656,5.36018957 C26.6766927,6.63818551 27.3867188,8.33337847 27.3867188,10.1394719 C27.3867188,11.9455653 26.6766927,13.6407583 25.3847656,14.9187542 C24.0928385,16.1967502 22.3791667,16.8991198 20.5533854,16.8991198 C18.7276042,16.8991198 17.0139323,16.1967502 15.7220052,14.9187542 C14.4300781,13.6407583 13.7200521,11.9455653 13.7200521,10.1394719 C13.7200521,8.33337847 14.4300781,6.63818551 15.7220052,5.36018957 C17.0139323,4.08219364 18.7276042,3.37982397 20.5533854,3.37982397 L20.5533854,3.37982397 Z M20.5533854,3.00188671e-15 C14.8945313,3.00188671e-15 10.3033854,4.54163846 10.3033854,10.1394719 C10.3033854,15.7373053 14.8945313,20.2789438 20.5533854,20.2789438 C26.2122396,20.2789438 30.8033854,15.7373053 30.8033854,10.1394719 C30.8033854,4.54163846 26.2122396,0 20.5533854,3.00188671e-15 Z M20.5,16.9255247 C9.17695312,16.9255247 0,26.0035206 0,37.2044685 L0,37.310088 C0,38.2448206 0.763411458,39 1.70833333,39 L3.47005208,39 L3.47005208,37.1516588 C3.47005208,27.820176 11.1201823,20.2525389 20.5533854,20.2525389 C29.9865885,20.2525389 37.6367188,27.820176 37.6367188,37.1516588 L37.6367188,39 L39.2916667,39 C40.2365885,39 41,38.2448206 41,37.310088 L41,37.2044685 C41,26.0035206 31.8230469,16.9255247 20.5,16.9255247 Z" id="形状"></path>
        </g>
        <g id="icon_shu" transform="translate(1320.000000, 237.000000)" fill="#FFFFFF" fill-rule="nonzero">
            <path d="M18.4555145,4.98853737 C20.815195,4.98853737 23.0342323,5.90829895 24.7063238,7.56854654 C26.3784153,9.23658872 27.2925962,11.4502522 27.2925962,13.8042182 L27.2925962,44.694177 C23.7296349,43.5016048 20.0104033,42.9014214 16.1817826,42.9014214 C12.3297214,42.9014214 8.58704929,43.5093994 5.00064745,44.7175608 L5.00064745,4.98853737 L18.4555145,4.98853737 L18.4555145,4.98853737 Z M18.4555145,0 L2.30498593,0 C1.03138354,0 0,1.02888583 0,2.29940394 L0,48.7005961 C0,50.0334709 1.09389163,51 2.30498593,51 C2.63315342,51 2.97694794,50.9298487 3.30511542,50.7739569 C7.21187125,48.9266392 11.5718107,47.8899587 16.1817826,47.8899587 C20.7605004,47.8899587 25.1048129,48.91105 28.9881282,50.7427785 C29.3162957,50.8986703 29.6522767,50.9688216 29.9804442,50.9688216 C31.1915385,50.9688216 32.2854301,50.0022925 32.2854301,48.6694177 L32.2854301,13.8120128 C32.2932436,6.18110958 26.0971289,0 18.4555145,0 Z M55.007122,4.98853737 L55.007122,44.7175608 C51.4207201,43.5093994 47.678048,42.9014214 43.8259868,42.9014214 C39.9973661,42.9014214 36.2781346,43.5016048 32.7151732,44.694177 L32.7151732,13.8120128 C32.7151732,11.4580468 33.6371676,9.24438331 35.3014456,7.57634113 C36.9735371,5.90829895 39.1925744,4.99633196 41.5522549,4.99633196 L55.007122,4.99633196 L55.007122,4.98853737 Z M57.7027835,0 L41.5522549,0 C33.9106405,0 27.7145258,6.18110958 27.7145258,13.8042182 L27.7145258,48.6616231 C27.7145258,49.9944979 28.8084174,50.9610271 30.0195117,50.9610271 C30.3476792,50.9610271 30.6836602,50.8908757 31.0118277,50.734984 C34.895143,48.9032554 39.2394555,47.8821641 43.8181733,47.8821641 C48.4281452,47.8821641 52.7958982,48.9188446 56.6948405,50.7661623 C57.023008,50.9220541 57.358989,50.9922054 57.69497,50.9922054 C58.9060643,50.9922054 59.9999559,50.0256763 59.9999559,48.6928015 L59.9999559,2.30719853 C60.0077694,1.03668042 58.9763859,0 57.7027835,0 L57.7027835,0 Z M35.0045322,30.4144888 L25.0032373,30.4144888 C23.6202457,30.4144888 22.5029135,31.5291151 22.5029135,32.9087575 L22.5029135,35.4030261 L35.0045322,35.4030261 C36.3875237,35.4030261 37.5048559,34.2883998 37.5048559,32.9087575 C37.5048559,31.5291151 36.3875237,30.4144888 35.0045322,30.4144888 Z M35.0045322,15.4488767 L25.0032373,15.4488767 C23.6202457,15.4488767 22.5029135,16.563503 22.5029135,17.9431453 L22.5029135,20.437414 L35.0045322,20.437414 C36.3875237,20.437414 37.5048559,19.3227877 37.5048559,17.9431453 C37.5048559,16.563503 36.3875237,15.4488767 35.0045322,15.4488767 Z" id="形状"></path>
        </g>
    </g>
</svg>