<?xml version="1.0" encoding="UTF-8"?>
<svg width="480px" height="133px" viewBox="0 0 480 133" version="1.1" xmlns="http://www.w3.org/2000/svg" xmlns:xlink="http://www.w3.org/1999/xlink">
    <!-- Generator: Sketch 54.1 (76490) - https://sketchapp.com -->
    <title>pic-1复制 4</title>
    <desc>Created with Sketch.</desc>
    <defs>
        <linearGradient x1="-1.09130794%" y1="45.4544914%" x2="98.0640841%" y2="53.7138177%" id="linearGradient-1">
            <stop stop-color="#80A6F2" offset="0%"></stop>
            <stop stop-color="#05ADD9" offset="100%"></stop>
        </linearGradient>
        <rect id="path-2" x="0" y="0" width="480" height="132.341357"></rect>
        <rect id="path-4" x="129" y="35" width="28" height="28" rx="8"></rect>
        <filter x="-35.7%" y="-28.6%" width="171.4%" height="171.4%" filterUnits="objectBoundingBox" id="filter-5">
            <feOffset dx="0" dy="2" in="SourceAlpha" result="shadowOffsetOuter1"></feOffset>
            <feGaussianBlur stdDeviation="3" in="shadowOffsetOuter1" result="shadowBlurOuter1"></feGaussianBlur>
            <feColorMatrix values="0 0 0 0 0   0 0 0 0 0   0 0 0 0 0  0 0 0 0.1 0" type="matrix" in="shadowBlurOuter1"></feColorMatrix>
        </filter>
        <path d="M179.604729,37.5582765 L190.43519,56.5115832 C191.25722,57.9501355 190.75743,59.7826995 189.318878,60.6047294 C188.865585,60.863754 188.352542,61 187.830461,61 L166.169539,61 C164.512685,61 163.169539,59.6568542 163.169539,58 C163.169539,57.4779192 163.305785,56.9648763 163.56481,56.5115832 L174.395271,37.5582765 C175.2173,36.1197242 177.049864,35.619934 178.488417,36.4419639 C178.953511,36.7077318 179.338962,37.0931827 179.604729,37.5582765 Z" id="path-6"></path>
        <filter x="-24.5%" y="-17.7%" width="148.9%" height="160.5%" filterUnits="objectBoundingBox" id="filter-7">
            <feOffset dx="0" dy="2" in="SourceAlpha" result="shadowOffsetOuter1"></feOffset>
            <feGaussianBlur stdDeviation="3" in="shadowOffsetOuter1" result="shadowBlurOuter1"></feGaussianBlur>
            <feColorMatrix values="0 0 0 0 0   0 0 0 0 0   0 0 0 0 0  0 0 0 0.1 0" type="matrix" in="shadowBlurOuter1"></feColorMatrix>
        </filter>
        <circle id="path-8" cx="143" cy="84" r="14"></circle>
        <filter x="-35.7%" y="-28.6%" width="171.4%" height="171.4%" filterUnits="objectBoundingBox" id="filter-9">
            <feOffset dx="0" dy="2" in="SourceAlpha" result="shadowOffsetOuter1"></feOffset>
            <feGaussianBlur stdDeviation="3" in="shadowOffsetOuter1" result="shadowBlurOuter1"></feGaussianBlur>
            <feColorMatrix values="0 0 0 0 0   0 0 0 0 0   0 0 0 0 0  0 0 0 0.1 0" type="matrix" in="shadowBlurOuter1"></feColorMatrix>
        </filter>
        <polygon id="path-10" points="177 70 190.314791 79.6737621 185.228994 95.3262379 168.771006 95.3262379 163.685209 79.6737621"></polygon>
        <filter x="-33.3%" y="-28.6%" width="166.5%" height="161.9%" filterUnits="objectBoundingBox" id="filter-11">
            <feOffset dx="0" dy="2" in="SourceAlpha" result="shadowOffsetOuter1"></feOffset>
            <feGaussianBlur stdDeviation="3" in="shadowOffsetOuter1" result="shadowBlurOuter1"></feGaussianBlur>
            <feColorMatrix values="0 0 0 0 0   0 0 0 0 0   0 0 0 0 0  0 0 0 0.1 0" type="matrix" in="shadowBlurOuter1"></feColorMatrix>
        </filter>
    </defs>
    <g id="页面1" stroke="none" stroke-width="1" fill="none" fill-rule="evenodd">
        <g id="画板" transform="translate(-2246.000000, -557.000000)">
            <g id="pic-1复制-4" transform="translate(2246.000000, 557.000000)">
                <g id="路径复制">
                    <mask id="mask-3" fill="white">
                        <use xlink:href="#path-2"></use>
                    </mask>
                    <use id="蒙版" fill="url(#linearGradient-1)" xlink:href="#path-2"></use>
                    <path d="M34.9347376,132.341357 C161.750018,43.7495865 263.201867,-0.364199072 339.290284,-7.46017831e-15 C415.378701,0.364199072 462.28194,0.364199072 480,2.16840434e-18 L480,132.341357 L34.9347376,132.341357 Z" id="路径" fill="#3BAAE4" mask="url(#mask-3)"></path>
                    <path d="M-214.266958,186.698079 C-87.4516776,98.1063089 14.0001713,53.9925233 90.0885882,54.3567224 C166.177005,54.7209215 213.080244,54.7209215 230.798304,54.3567224 L230.798304,186.698079 L-214.266958,186.698079 Z" fill="#7BAFEF" mask="url(#mask-3)" transform="translate(8.265673, 120.526282) scale(-1, 1) translate(-8.265673, -120.526282) "></path>
                    <path d="M0.525164114,132.341357 C127.340445,43.7495865 228.792294,-0.364199072 304.880711,-7.46017831e-15 C380.969128,0.364199072 427.872366,0.364199072 445.590427,2.16840434e-18 L445.590427,132.341357 L0.525164114,132.341357 Z" id="路径" fill-opacity="0.1" fill="#FFFFFF" mask="url(#mask-3)" transform="translate(223.057795, 66.169560) scale(-1, 1) translate(-223.057795, -66.169560) "></path>
                    <circle id="椭圆形" stroke="#FFFFFF" stroke-width="1.31291028" opacity="0.5" mask="url(#mask-3)" transform="translate(239.888403, 20.888403) scale(-1, 1) translate(-239.888403, -20.888403) " cx="239.888403" cy="20.8884026" r="2.88840263"></circle>
                    <circle id="椭圆形复制" stroke="#FFFFFF" stroke-width="1.31291028" opacity="0.5" mask="url(#mask-3)" transform="translate(422.231947, 105.231947) scale(-1, 1) translate(-422.231947, -105.231947) " cx="422.231947" cy="105.231947" r="2.23194748"></circle>
                    <circle id="椭圆形复制-2" stroke="#FFFFFF" stroke-width="1.787746" opacity="0.6" mask="url(#mask-3)" cx="50.1203501" cy="107.12035" r="5.12035011"></circle>
                    <path d="M252.078775,182.234184 C378.894055,93.6424139 480.345904,49.5286284 556.434321,49.8928274 C632.522738,50.2570265 679.425977,50.2570265 697.144037,49.8928274 L697.144037,182.234184 L252.078775,182.234184 Z" fill="#3BAAE4" mask="url(#mask-3)"></path>
                </g>
                <g id="编组" transform="translate(326.000000, 18.000000)" fill="#FFFFFF">
                    <circle id="椭圆形" cx="1.05032823" cy="1.05032823" r="1.05032823"></circle>
                    <circle id="椭圆形复制-11" cx="1.05032823" cy="6.30196937" r="1.05032823"></circle>
                    <circle id="椭圆形复制-20" cx="1.05032823" cy="11.5536105" r="1.05032823"></circle>
                    <circle id="椭圆形复制-29" cx="1.05032823" cy="16.5426696" r="1.05032823"></circle>
                    <circle id="椭圆形复制-3" cx="6.30196937" cy="1.05032823" r="1.05032823"></circle>
                    <circle id="椭圆形复制-12" cx="6.30196937" cy="6.30196937" r="1.05032823"></circle>
                    <circle id="椭圆形复制-21" cx="6.30196937" cy="11.5536105" r="1.05032823"></circle>
                    <circle id="椭圆形复制-30" cx="6.30196937" cy="16.5426696" r="1.05032823"></circle>
                    <circle id="椭圆形复制-4" cx="11.5536105" cy="1.05032823" r="1.05032823"></circle>
                    <circle id="椭圆形复制-13" cx="11.5536105" cy="6.30196937" r="1.05032823"></circle>
                    <circle id="椭圆形复制-22" cx="11.5536105" cy="11.5536105" r="1.05032823"></circle>
                    <circle id="椭圆形复制-31" cx="11.5536105" cy="16.5426696" r="1.05032823"></circle>
                    <circle id="椭圆形复制-5" cx="16.8052516" cy="1.05032823" r="1.05032823"></circle>
                    <circle id="椭圆形复制-14" cx="16.8052516" cy="6.30196937" r="1.05032823"></circle>
                    <circle id="椭圆形复制-23" cx="16.8052516" cy="11.5536105" r="1.05032823"></circle>
                    <circle id="椭圆形复制-32" cx="16.8052516" cy="16.5426696" r="1.05032823"></circle>
                    <circle id="椭圆形复制-6" cx="22.3194748" cy="1.05032823" r="1.05032823"></circle>
                    <circle id="椭圆形复制-15" cx="22.3194748" cy="6.30196937" r="1.05032823"></circle>
                    <circle id="椭圆形复制-24" cx="22.3194748" cy="11.5536105" r="1.05032823"></circle>
                    <circle id="椭圆形复制-33" cx="22.3194748" cy="16.5426696" r="1.05032823"></circle>
                    <circle id="椭圆形复制-7" cx="27.571116" cy="1.05032823" r="1.05032823"></circle>
                    <circle id="椭圆形复制-16" cx="27.571116" cy="6.30196937" r="1.05032823"></circle>
                    <circle id="椭圆形复制-25" cx="27.571116" cy="11.5536105" r="1.05032823"></circle>
                    <circle id="椭圆形复制-34" cx="27.571116" cy="16.5426696" r="1.05032823"></circle>
                    <circle id="椭圆形复制-8" cx="32.8227571" cy="1.05032823" r="1.05032823"></circle>
                    <circle id="椭圆形复制-17" cx="32.8227571" cy="6.30196937" r="1.05032823"></circle>
                    <circle id="椭圆形复制-26" cx="32.8227571" cy="11.5536105" r="1.05032823"></circle>
                    <circle id="椭圆形复制-35" cx="32.8227571" cy="16.5426696" r="1.05032823"></circle>
                    <circle id="椭圆形复制-9" cx="38.0743982" cy="1.05032823" r="1.05032823"></circle>
                    <circle id="椭圆形复制-18" cx="38.0743982" cy="6.30196937" r="1.05032823"></circle>
                    <circle id="椭圆形复制-27" cx="38.0743982" cy="11.5536105" r="1.05032823"></circle>
                    <circle id="椭圆形复制-36" cx="38.0743982" cy="16.5426696" r="1.05032823"></circle>
                    <circle id="椭圆形复制-10" cx="43.3260394" cy="1.05032823" r="1.05032823"></circle>
                    <circle id="椭圆形复制-19" cx="43.3260394" cy="6.30196937" r="1.05032823"></circle>
                    <circle id="椭圆形复制-28" cx="43.3260394" cy="11.5536105" r="1.05032823"></circle>
                    <circle id="椭圆形复制-37" cx="43.3260394" cy="16.5426696" r="1.05032823"></circle>
                </g>
                <path d="M248.5,23.7768053 L415.5,102" id="路径-2" stroke-opacity="0.5" stroke="#FFFFFF" stroke-width="0.5" opacity="0.5"></path>
                <path d="M60.9190372,102 L230.798304,23.7768053" id="路径-6" stroke-opacity="0.5" stroke="#FFFFFF" stroke-width="0.5" opacity="0.5"></path>
                <path d="M30.7221007,18 L412.121668,105.231947" id="路径-7" stroke-opacity="0.5" stroke="#FFFFFF" stroke-width="0.5" opacity="0.5"></path>
                <text id="Backstage-Design-Par" font-family="PingFangSC-Medium, PingFang SC" font-size="14" font-weight="400" fill="#FFFFFF">
                    <tspan x="219" y="67">Backstage</tspan>
                    <tspan x="219" y="87">Design Parttern Library</tspan>
                </text>
                <g id="矩形">
                    <use fill="black" fill-opacity="1" filter="url(#filter-5)" xlink:href="#path-4"></use>
                    <use fill="#FFD400" fill-rule="evenodd" xlink:href="#path-4"></use>
                </g>
                <g id="三角形">
                    <use fill="black" fill-opacity="1" filter="url(#filter-7)" xlink:href="#path-6"></use>
                    <use fill="#008DCB" fill-rule="evenodd" xlink:href="#path-6"></use>
                </g>
                <g id="椭圆形">
                    <use fill="black" fill-opacity="1" filter="url(#filter-9)" xlink:href="#path-8"></use>
                    <use fill="#008DCB" fill-rule="evenodd" xlink:href="#path-8"></use>
                </g>
                <g id="多边形">
                    <use fill="black" fill-opacity="1" filter="url(#filter-11)" xlink:href="#path-10"></use>
                    <use fill="#FFD400" fill-rule="evenodd" xlink:href="#path-10"></use>
                </g>
            </g>
        </g>
    </g>
</svg>